<?xml version="1.0" encoding="utf-8"?>
<!-- Generator: Adobe Illustrator 19.1.0, SVG Export Plug-In . SVG Version: 6.00 Build 0)  -->
<svg version="1.1" id="Layer_1" xmlns="http://www.w3.org/2000/svg" xmlns:xlink="http://www.w3.org/1999/xlink" x="0px" y="0px"
	 viewBox="0 0 375 175" style="enable-background:new 0 0 375 175;" xml:space="preserve">
<style type="text/css">
	.st0{fill:#58C7EE;}
	.st1{opacity:0.59;fill:#01AAE5;}
</style>
<path class="st0" d="M9,118.4l6-4.9v32.1l-6,4.9V175h339.4l26.6-20.9v-25l-5,4.3V24.5l5-4.3V0H62.5L9,56.8V118.4z M368,23.9v112
	l6-4.3v21.8L348,174H10v-22.9l7-4.9v-35.3l-7,4.9V57.4L63,0h311v19.6L368,23.9z"/>
<polygon class="st1" points="63,0 10,57.4 10,115.8 17,110.9 17,146.2 10,151.1 10,174 348,174 374,153.4 374,131.6 368,135.9 
	368,23.9 374,19.6 374,0 "/>
<polygon class="st0" points="12,123.4 12,140.9 0,150.2 0,132.7 "/>
</svg>
