<?xml version="1.0" encoding="utf-8"?>
<!-- Generator: Adobe Illustrator 19.1.0, SVG Export Plug-In . SVG Version: 6.00 Build 0)  -->
<svg version="1.1" id="Layer_1" xmlns="http://www.w3.org/2000/svg" xmlns:xlink="http://www.w3.org/1999/xlink" x="0px" y="0px"
	 viewBox="0 0 585 175" style="enable-background:new 0 0 585 175;" xml:space="preserve">
<style type="text/css">
	.st0{fill:#58C7EE;}
	.st1{opacity:0.59;fill:#01AAE5;}
</style>
<path class="st0" d="M576,55.6l-6,4.9V28.5l6-4.9V0H27.2L0,19.9v25l6-4.3v108.8l-6,4.3V175h522.8l53.2-57.8V55.6z M8,150.1v-112
	l-6,4.3V20.6L27.6,0H575v22.9l-7,4.9v35.3l7-4.9v58.4L522.4,174H2v-19.6L8,150.1z"/>
<polygon class="st1" points="522.4,174 575,116.6 575,58.2 568,63.1 568,27.8 575,22.9 575,0 27.6,0 2,20.6 2,42.4 8,38.1 8,150.1 
	2,154.4 2,174 "/>
<polygon class="st0" points="573,50.6 573,33.1 585,23.8 585,41.3 "/>
</svg>
