<?xml version="1.0" encoding="utf-8"?>
<!-- Generator: Adobe Illustrator 19.1.0, SVG Export Plug-In . SVG Version: 6.00 Build 0)  -->
<svg version="1.1" xmlns="http://www.w3.org/2000/svg" xmlns:xlink="http://www.w3.org/1999/xlink" x="0px" y="0px"
	 viewBox="0 0 350 100" style="enable-background:new 0 0 350 100;" xml:space="preserve">
<style type="text/css">
	.st0{display:none;}
	.st1{display:inline;}
	.st2{fill:url(#SVGID_1_);}
	.st3{fill:url(#SVGID_2_);}
	.st4{fill:url(#SVGID_3_);}
	.st5{fill:url(#SVGID_4_);}
	.st6{fill:url(#SVGID_5_);}
	.st7{fill:url(#SVGID_6_);}
	.st8{fill:url(#SVGID_7_);}
	.st9{fill:url(#SVGID_8_);}
	.st10{fill:url(#SVGID_9_);}
	.st11{fill:url(#SVGID_10_);}
	.st12{fill:url(#SVGID_11_);}
	.st13{fill:url(#SVGID_12_);}
	.st14{fill:url(#SVGID_13_);}
	.st15{fill:url(#SVGID_14_);}
	.st16{fill:#FFFFFF;}
	.st17{opacity:0.8;}
	.st18{fill:url(#SVGID_15_);}
	.st19{fill:url(#SVGID_16_);}
	.st20{fill:url(#SVGID_17_);}
	.st21{fill:url(#SVGID_18_);}
	.st22{fill:url(#SVGID_19_);}
	.st23{fill:url(#SVGID_20_);}
	.st24{fill:url(#SVGID_21_);}
	.st25{fill:url(#SVGID_22_);}
	.st26{fill:url(#SVGID_23_);}
	.st27{fill:url(#SVGID_24_);}
	.st28{fill:url(#SVGID_25_);}
	.st29{fill:url(#SVGID_26_);}
	.st30{fill:url(#SVGID_27_);}
	.st31{fill:url(#SVGID_28_);}
</style>
<g id="Layer_1" class="st0">
	<g class="st1">
		<g>
			
				<linearGradient id="SVGID_1_" gradientUnits="userSpaceOnUse" x1="-420.6894" y1="-525.7868" x2="-13.2855" y2="-404.6665" gradientTransform="matrix(0.9214 0.3885 0.3885 -0.9214 550.9272 -264.6682)">
				<stop  offset="0" style="stop-color:#58595B"/>
				<stop  offset="9.065685e-02" style="stop-color:#858587"/>
				<stop  offset="0.1938" style="stop-color:#B0B1B2"/>
				<stop  offset="0.2937" style="stop-color:#D2D3D3"/>
				<stop  offset="0.3879" style="stop-color:#EBEBEB"/>
				<stop  offset="0.4743" style="stop-color:#FAFAFA"/>
				<stop  offset="0.5455" style="stop-color:#FFFFFF"/>
				<stop  offset="1" style="stop-color:#58595B"/>
			</linearGradient>
			<path class="st2" d="M135.6,88.3c0,0,0.5,0.1,1.5,0.2c0.5,0.1,1.1,0.1,1.8,0.2c0.7,0.1,1.6,0.2,2.5,0.2c3.8,0.3,9.2,0.8,15.9,1.1
				c1.7,0.1,3.4,0.2,5.2,0.2c0.4,0,0.9,0,1.4,0l0.7,0l0.7,0c0.9,0,1.9,0,2.8,0.1c3.8,0.1,7.9,0.1,12.1,0c4.2-0.1,8.5-0.2,12.9-0.4
				c4.4-0.2,8.8-0.5,13.1-0.8c4.4-0.4,8.7-0.8,12.8-1.3c1-0.1,2.1-0.3,3.1-0.4c1-0.1,2-0.3,3-0.4l0.8-0.1l0.7-0.1
				c0.5-0.1,1-0.1,1.5-0.2c0.5-0.1,1-0.1,1.5-0.2c0.5-0.1,0.9-0.2,1.4-0.2c3.9-0.6,7.4-1.3,10.7-2c0.8-0.2,1.6-0.4,2.4-0.5
				c0.8-0.2,1.5-0.4,2.3-0.5c0.4-0.1,0.8-0.2,1.1-0.3c0.4-0.1,0.7-0.2,1.1-0.3c0.7-0.2,1.4-0.4,2.1-0.5c5.4-1.4,9.3-2.8,12-3.8
				c0.6-0.3,1.2-0.5,1.7-0.7c0.5-0.2,1-0.4,1.3-0.5c0.7-0.3,1-0.4,1-0.4l7.2,0.6c0,0-0.4,0.2-1.1,0.5c-0.3,0.2-0.8,0.3-1.4,0.5
				c-0.6,0.2-1.2,0.5-1.9,0.7c-2.9,1.1-7.3,2.5-13.2,4c-0.7,0.2-1.5,0.4-2.3,0.6c-0.4,0.1-0.8,0.2-1.2,0.3c-0.4,0.1-0.8,0.2-1.2,0.3
				c-0.8,0.2-1.6,0.4-2.5,0.6c-0.9,0.2-1.7,0.4-2.6,0.6c-3.5,0.7-7.4,1.5-11.5,2.1c-0.5,0.1-1,0.2-1.5,0.2c-0.5,0.1-1.1,0.2-1.6,0.2
				c-0.5,0.1-1,0.2-1.6,0.2l-0.8,0.1l-0.8,0.1c-1.1,0.1-2.2,0.3-3.2,0.4c-1.1,0.1-2.2,0.3-3.3,0.4c-4.4,0.5-9,1-13.7,1.4
				c-9.2,0.7-18.8,1.1-27.7,1.3c-4.5,0-8.8,0-12.9,0c-1,0-2,0-3-0.1l-0.7,0l-0.7,0c-0.5,0-1,0-1.5,0c-1.9-0.1-3.8-0.1-5.5-0.2
				c-7.1-0.3-12.9-0.8-17-1.1c-1-0.1-1.9-0.2-2.7-0.3c-0.8-0.1-1.5-0.1-2-0.2c-1.1-0.1-1.6-0.2-1.6-0.2L135.6,88.3z"/>
			
				<linearGradient id="SVGID_2_" gradientUnits="userSpaceOnUse" x1="-604.4708" y1="-543.0502" x2="21.7772" y2="-356.868" gradientTransform="matrix(0.9214 0.3885 0.3885 -0.9214 550.9272 -264.6682)">
				<stop  offset="0" style="stop-color:#58595B"/>
				<stop  offset="9.065685e-02" style="stop-color:#858587"/>
				<stop  offset="0.1938" style="stop-color:#B0B1B2"/>
				<stop  offset="0.2937" style="stop-color:#D2D3D3"/>
				<stop  offset="0.3879" style="stop-color:#EBEBEB"/>
				<stop  offset="0.4743" style="stop-color:#FAFAFA"/>
				<stop  offset="0.5455" style="stop-color:#FFFFFF"/>
				<stop  offset="1" style="stop-color:#58595B"/>
			</linearGradient>
			<path class="st3" d="M331.8,66.1l-13.4,0.3c0,0,0.2-0.1,0.4-0.4c0.3-0.2,0.7-0.6,1.1-1c0.4-0.4,0.9-0.9,1.3-1.4
				c0.1-0.1,0.3-0.3,0.4-0.4c0.1-0.1,0.2-0.3,0.3-0.4c0.2-0.3,0.4-0.6,0.7-0.8c0.2-0.3,0.5-0.6,0.6-0.9c0.2-0.3,0.3-0.6,0.5-0.8
				c0.3-0.5,0.7-1.1,0.8-1.5c0.4-0.9,0.6-1.5,0.6-1.5l15.5-1.2c0,0-0.4,0.7-0.9,1.7c-0.2,0.5-0.7,1.1-1.2,1.7
				c-0.2,0.3-0.5,0.6-0.7,0.9c-0.2,0.3-0.6,0.6-0.8,0.9c-0.3,0.3-0.6,0.6-0.9,0.9c-0.1,0.2-0.3,0.3-0.4,0.4
				c-0.2,0.1-0.3,0.3-0.5,0.4c-0.6,0.6-1.2,1.1-1.7,1.5c-0.5,0.4-1,0.8-1.3,1.1C332,66,331.8,66.1,331.8,66.1z"/>
			
				<linearGradient id="SVGID_3_" gradientUnits="userSpaceOnUse" x1="-387.3842" y1="-462.6675" x2="-15.3866" y2="-352.0734" gradientTransform="matrix(0.9214 0.3885 0.3885 -0.9214 550.9272 -264.6682)">
				<stop  offset="0" style="stop-color:#58595B"/>
				<stop  offset="9.065685e-02" style="stop-color:#858587"/>
				<stop  offset="0.1938" style="stop-color:#B0B1B2"/>
				<stop  offset="0.2937" style="stop-color:#D2D3D3"/>
				<stop  offset="0.3879" style="stop-color:#EBEBEB"/>
				<stop  offset="0.4743" style="stop-color:#FAFAFA"/>
				<stop  offset="0.5455" style="stop-color:#FFFFFF"/>
				<stop  offset="1" style="stop-color:#58595B"/>
			</linearGradient>
			<path class="st4" d="M342.2,51.3L326,53.1c0,0,0-0.2,0-0.4c0-0.3-0.1-0.7-0.1-1.1c0-1-0.5-2.3-1-3.6c-0.3-0.7-0.7-1.3-1-1.9
				c-0.4-0.6-0.8-1.2-1.2-1.7c-0.4-0.5-0.6-0.9-0.9-1.2c-0.3-0.3-0.4-0.5-0.4-0.5l17.4-3.2c0,0,0.1,0.2,0.4,0.5
				c0.3,0.3,0.5,0.8,0.9,1.4c0.3,0.6,0.7,1.2,1,1.9c0.3,0.7,0.5,1.5,0.8,2.2c0.3,1.5,0.6,2.9,0.5,4c0,0.5,0,1,0,1.3
				C342.3,51.2,342.2,51.3,342.2,51.3z"/>
			
				<linearGradient id="SVGID_4_" gradientUnits="userSpaceOnUse" x1="-414.3571" y1="-528.2493" x2="-16.1737" y2="-409.8703" gradientTransform="matrix(0.9214 0.3885 0.3885 -0.9214 550.9272 -264.6682)">
				<stop  offset="0" style="stop-color:#58595B"/>
				<stop  offset="9.065685e-02" style="stop-color:#858587"/>
				<stop  offset="0.1938" style="stop-color:#B0B1B2"/>
				<stop  offset="0.2937" style="stop-color:#D2D3D3"/>
				<stop  offset="0.3879" style="stop-color:#EBEBEB"/>
				<stop  offset="0.4743" style="stop-color:#FAFAFA"/>
				<stop  offset="0.5455" style="stop-color:#FFFFFF"/>
				<stop  offset="1" style="stop-color:#58595B"/>
			</linearGradient>
			<path class="st5" d="M247.3,89.4l2.7,0.8c0,0,0.7-0.1,1.8-0.3c0.6-0.1,1.3-0.2,2.1-0.4c0.8-0.1,1.7-0.3,2.7-0.5
				c2-0.4,4.2-0.8,6.7-1.3c2.4-0.5,5-1,7.5-1.6c0.6-0.1,1.3-0.3,1.9-0.4c0.6-0.2,1.2-0.3,1.8-0.5c1.2-0.3,2.5-0.6,3.5-0.9
				c1.1-0.3,2.2-0.6,3.3-0.9c1-0.3,2-0.6,2.8-0.8c0.4-0.1,0.9-0.3,1.3-0.4c0.4-0.1,0.8-0.2,1.1-0.3c0.7-0.2,1.3-0.4,1.8-0.6
				c1-0.3,1.6-0.5,1.6-0.5l9.1,0.9c0,0-0.6,0.2-1.8,0.6c-0.6,0.2-1.3,0.4-2.2,0.7c-0.4,0.1-0.9,0.3-1.4,0.4c-0.5,0.1-1,0.3-1.6,0.4
				c-4.4,1.2-10.9,2.9-19.3,4.7c-4,0.8-8.6,1.7-13.5,2.5c-4.8,0.8-10,1.6-15.4,2.3c-10.6,1.4-22.5,2.5-34.5,3.2
				c-5.9,0.3-11.9,0.6-17.7,0.8c-5.8,0.2-11.6,0.2-17.2,0.2c-2.8,0-5.5,0-8.2-0.1c-2.7-0.1-5.3-0.1-7.9-0.2c-2.6-0.1-5-0.2-7.4-0.3
				c-1.2-0.1-2.4-0.1-3.5-0.2c-0.6,0-1.2-0.1-1.7-0.1c-0.6,0-1.1-0.1-1.7-0.1c-9-0.5-16.3-1.1-21.4-1.6c-1.3-0.1-2.4-0.2-3.4-0.3
				c-1-0.1-1.8-0.2-2.5-0.3c-1.4-0.1-2.1-0.2-2.1-0.2l3.9-1.6c0,0,1.7,0.2,4.6,0.5c1.5,0.2,3.3,0.3,5.4,0.5c2.1,0.2,4.4,0.4,7,0.6
				c5.1,0.4,11.2,0.8,17.7,1.1c6.5,0.3,13.5,0.4,20.5,0.5c7,0,14-0.1,20.5-0.3c6.5-0.2,12.6-0.6,17.8-0.9c1.3-0.1,2.5-0.2,3.7-0.3
				c1.2-0.1,2.3-0.2,3.3-0.3c0.5,0,1-0.1,1.5-0.1c0.5,0,1-0.1,1.4-0.1c0.9-0.1,1.7-0.2,2.5-0.2c0.8-0.1,1.4-0.1,2-0.2
				c0.6-0.1,1.1-0.1,1.5-0.2c0.8-0.1,1.2-0.1,1.2-0.1l-1.9-0.8c0,0,0.3,0,0.9-0.1c0.6-0.1,1.4-0.2,2.3-0.3c0.5-0.1,1-0.1,1.6-0.2
				c0.3,0,0.6-0.1,0.9-0.1c0.3,0,0.6-0.1,0.9-0.1c1.2-0.2,2.5-0.3,3.8-0.5c1.3-0.2,2.5-0.4,3.7-0.5c0.3,0,0.6-0.1,0.9-0.1
				c0.3,0,0.6-0.1,0.8-0.1c0.5-0.1,1-0.2,1.5-0.2c0.9-0.1,1.7-0.3,2.3-0.4C247,89.4,247.3,89.4,247.3,89.4z"/>
			
				<linearGradient id="SVGID_5_" gradientUnits="userSpaceOnUse" x1="-459.9974" y1="-494.3141" x2="21.4199" y2="-351.1898" gradientTransform="matrix(0.9214 0.3885 0.3885 -0.9214 550.9272 -264.6682)">
				<stop  offset="0" style="stop-color:#58595B"/>
				<stop  offset="9.065685e-02" style="stop-color:#858587"/>
				<stop  offset="0.1938" style="stop-color:#B0B1B2"/>
				<stop  offset="0.2937" style="stop-color:#D2D3D3"/>
				<stop  offset="0.3879" style="stop-color:#EBEBEB"/>
				<stop  offset="0.4743" style="stop-color:#FAFAFA"/>
				<stop  offset="0.5455" style="stop-color:#FFFFFF"/>
				<stop  offset="1" style="stop-color:#58595B"/>
			</linearGradient>
			<path class="st6" d="M28.7,62.2l-14.4-0.7c0,0-0.1-0.1-0.2-0.2c-0.1-0.2-0.3-0.4-0.6-0.7c-0.2-0.3-0.5-0.7-0.9-1.1
				c-0.4-0.4-0.6-1-1-1.5c-1.5-2.4-3-5.9-2.5-10.2c0-0.3,0.1-0.6,0.1-0.9c0.1-0.3,0.2-0.6,0.2-0.9c0.2-0.6,0.3-1.2,0.5-1.8
				c0.3-0.6,0.6-1.2,0.9-1.9c0.2-0.3,0.3-0.7,0.5-1c0.2-0.3,0.5-0.6,0.7-1c1.7-2.7,4.7-5.6,8.6-8.4c4-3,9.4-6,16-8.9
				c6.9-3,15-5.9,24.5-8.4c9.8-2.6,20.7-5,32.3-6.9c11.9-2,24.6-3.4,37.3-4.4c12.9-1,25.7-1.6,38-1.7c1.5,0,3.1,0,4.6-0.1
				c1.5,0,3,0,4.5,0c3,0,5.9,0,8.8,0.1c5.8,0.2,11.3,0.3,16.6,0.6c21,1,37.5,3,48.3,4.6c1.4,0.2,2.6,0.4,3.8,0.6
				c1.2,0.2,2.3,0.4,3.3,0.5c2,0.3,3.7,0.6,5.1,0.9c2.8,0.5,4.1,0.8,4.1,0.8l-6.1,3.9l-5.8,3.7l-5.5,3.6c0,0-0.6-0.1-1.6-0.3
				c-1-0.2-2.5-0.4-4.3-0.7c-3.6-0.6-8.6-1.2-13.7-1.9c-2.6-0.3-5.2-0.6-7.7-0.8c-2.5-0.2-4.8-0.4-6.9-0.6c-2-0.2-3.7-0.3-4.9-0.4
				c-1.2-0.1-1.9-0.1-1.9-0.1l2.6-4.1c0,0-1.3-0.1-3.8-0.3c-2.5-0.2-6.1-0.3-10.8-0.6c-9.4-0.4-23-0.7-39.3-0.2
				c-2,0.1-4.1,0.1-6.2,0.2c-2.1,0.1-4.2,0.2-6.3,0.3c-4.3,0.2-8.6,0.6-13.1,0.9c-8.8,0.8-17.8,1.7-26.6,3.1
				c-1.1,0.2-2.2,0.3-3.3,0.5c-1.1,0.2-2.1,0.4-3.2,0.5c-2.1,0.4-4.3,0.7-6.4,1.1c-4.1,0.8-8.3,1.6-12.1,2.5
				c-4,0.9-7.6,1.9-11.2,2.8c-1.8,0.5-3.4,1-5.1,1.5c-0.8,0.3-1.7,0.5-2.5,0.8L59.9,26c-12.2,4.1-20.9,8.9-26.6,13.5
				c-5.1,4.3-7.4,8.5-7.9,12c-0.4,3.3,0.5,6.1,1.5,7.9c0.1,0.2,0.2,0.4,0.3,0.6c0.1,0.2,0.3,0.4,0.4,0.6c0.2,0.3,0.4,0.6,0.6,0.9
				c0.2,0.2,0.3,0.4,0.4,0.5C28.6,62.1,28.7,62.2,28.7,62.2z"/>
			
				<linearGradient id="SVGID_6_" gradientUnits="userSpaceOnUse" x1="-449.939" y1="-504.2106" x2="2.6713" y2="-369.6505" gradientTransform="matrix(0.9214 0.3885 0.3885 -0.9214 550.9272 -264.6682)">
				<stop  offset="0" style="stop-color:#58595B"/>
				<stop  offset="9.065685e-02" style="stop-color:#858587"/>
				<stop  offset="0.1938" style="stop-color:#B0B1B2"/>
				<stop  offset="0.2937" style="stop-color:#D2D3D3"/>
				<stop  offset="0.3879" style="stop-color:#EBEBEB"/>
				<stop  offset="0.4743" style="stop-color:#FAFAFA"/>
				<stop  offset="0.5455" style="stop-color:#FFFFFF"/>
				<stop  offset="1" style="stop-color:#58595B"/>
			</linearGradient>
			<path class="st7" d="M181.2,27.5c0,0-1.1,0-3.2,0c-1,0-2.3,0-3.8,0c-1.5,0-3.2,0-5.2,0.1c-7.7,0.1-18.7,0.5-31.2,1.7
				c-6.1,0.6-12.6,1.3-19.1,2.3c-6.4,1-12.8,2.1-18.7,3.6c-5.8,1.4-11.4,2.9-16.3,4.7c-4.8,1.7-9,3.6-12.5,5.5c-3.4,1.9-6,3.8-8,5.7
				c-1,0.9-1.7,1.9-2.4,2.8c-0.3,0.5-0.5,0.9-0.8,1.4c-0.3,0.4-0.4,0.9-0.5,1.4c-1.2,3.5-0.1,6.7,1.9,9.3c1.8,2.5,4.5,4.5,6.5,5.9
				c0.5,0.3,1,0.6,1.4,0.9c0.4,0.3,0.8,0.5,1,0.6c0.3,0.2,0.5,0.3,0.7,0.4c0.2,0.1,0.2,0.1,0.2,0.1l-19.5,0.9c0,0-0.1-0.1-0.3-0.2
				c-0.2-0.1-0.6-0.3-0.9-0.5c-0.4-0.2-0.9-0.5-1.4-0.8c-0.6-0.3-1.2-0.6-1.9-1c-2.8-1.6-6.5-4-9.4-7.1c-3.2-3.2-5.4-7.2-5-11.6
				c0.1-0.6,0.1-1.1,0.3-1.7c0.2-0.6,0.4-1.2,0.6-1.8c0.6-1.2,1.1-2.4,2.1-3.6c1.9-2.5,4.6-5.1,8.3-7.5c3.9-2.5,8.7-5,14.4-7.3
				c5.8-2.4,12.6-4.5,19.9-6.4c7.4-2,15.5-3.6,23.6-5c8.2-1.4,16.6-2.5,24.5-3.3c16.2-1.7,30.6-2.2,40.6-2.4c2.5,0,4.8-0.1,6.7-0.1
				c2,0,3.6,0,5,0c2.7,0,4.2,0,4.2,0L181.2,27.5z"/>
			
				<linearGradient id="SVGID_7_" gradientUnits="userSpaceOnUse" x1="-422.9401" y1="-490.2534" x2="-11.4057" y2="-367.9052" gradientTransform="matrix(0.9214 0.3885 0.3885 -0.9214 550.9272 -264.6682)">
				<stop  offset="0" style="stop-color:#58595B"/>
				<stop  offset="9.065685e-02" style="stop-color:#858587"/>
				<stop  offset="0.1938" style="stop-color:#B0B1B2"/>
				<stop  offset="0.2937" style="stop-color:#D2D3D3"/>
				<stop  offset="0.3879" style="stop-color:#EBEBEB"/>
				<stop  offset="0.4743" style="stop-color:#FAFAFA"/>
				<stop  offset="0.5455" style="stop-color:#FFFFFF"/>
				<stop  offset="1" style="stop-color:#58595B"/>
			</linearGradient>
			<path class="st8" d="M252.7,85.2c0,0,0.4-0.1,1.1-0.2c0.3-0.1,0.8-0.2,1.3-0.3c0.5-0.1,1.1-0.2,1.7-0.4c0.6-0.2,1.3-0.3,2.1-0.5
				c0.4-0.1,0.8-0.2,1.2-0.3c0.4-0.1,0.8-0.2,1.2-0.3c0.4-0.1,0.9-0.2,1.3-0.4c0.5-0.1,0.9-0.2,1.4-0.4c0.9-0.3,1.9-0.6,2.9-0.8
				c4.1-1.2,8.6-2.8,12.8-4.6c4.3-1.9,8.4-4,11.6-6.3c0.5-0.3,0.8-0.6,1.2-0.9c0.4-0.3,0.8-0.6,1.1-0.9c0.3-0.3,0.7-0.6,1-0.9
				c0.3-0.3,0.7-0.6,0.9-0.9c0.5-0.6,1.2-1.2,1.6-1.8c0.2-0.3,0.5-0.6,0.7-0.9c0.2-0.3,0.3-0.6,0.5-0.9c1.4-2.5,1.7-5,1.3-7.1
				c-0.5-2.2-1.4-4-2.5-5.2c-0.2-0.3-0.5-0.6-0.7-0.9c-0.2-0.3-0.4-0.5-0.6-0.6c-0.3-0.3-0.5-0.5-0.5-0.5l-14.2,2.4
				c0,0-0.1-0.1-0.3-0.3c-0.2-0.2-0.5-0.5-1-0.8c-0.5-0.3-1-0.7-1.6-1.1c-0.6-0.4-1.4-0.8-2.1-1.3c-0.7-0.5-1.6-0.9-2.3-1.3
				c-0.8-0.4-1.5-0.8-2.2-1.1c-1.4-0.6-2.3-1.1-2.3-1.1l13.5-3.6c0,0-0.4-0.2-1.2-0.6c-0.8-0.3-1.8-0.8-2.8-1.2
				c-0.5-0.2-1.1-0.4-1.6-0.6c-0.5-0.2-1-0.4-1.5-0.6c-0.9-0.3-1.4-0.5-1.4-0.5l-12.8,4.1c0,0-0.3-0.1-0.8-0.3
				c-0.5-0.2-1.3-0.4-2.2-0.7c-0.5-0.1-1-0.3-1.5-0.5c-0.3-0.1-0.5-0.2-0.8-0.3c-0.3-0.1-0.6-0.2-0.9-0.3c-1.3-0.3-2.6-0.7-3.9-1.1
				c-1.4-0.3-2.9-0.7-4.2-1c-0.3-0.1-0.7-0.2-1-0.2c-0.3-0.1-0.7-0.1-1-0.2c-0.7-0.1-1.3-0.3-1.8-0.4c-1.2-0.2-2.1-0.5-2.8-0.6
				c-0.7-0.1-1.1-0.2-1.1-0.2l10-5.2l3.9-2l10.4-5.5c0,0,0.3,0.1,0.8,0.2c0.5,0.1,1.3,0.3,2.3,0.5c1,0.2,2.2,0.5,3.5,0.9
				c0.7,0.2,1.4,0.3,2.2,0.5c0.8,0.2,1.5,0.4,2.4,0.7c6.7,1.8,15.4,4.5,23.3,8.3c0.9,0.5,1.9,0.9,2.9,1.4c0.9,0.5,1.8,1,2.7,1.5
				c1.9,1,3.3,2.1,5,3.1c2.9,2.1,5.4,4.4,7.1,6.8c1.6,2.3,2.5,4.7,2.7,7.1c0.2,2.3-0.5,4.7-1.8,6.9c-1.2,2.2-3.1,4.3-5.4,6.3
				c-2.3,1.9-5.1,3.8-8.1,5.5c-0.4,0.2-0.8,0.4-1.1,0.6l-0.6,0.3l-0.6,0.3c-0.8,0.4-1.6,0.8-2.3,1.2c-1.7,0.7-3.2,1.5-4.9,2.1
				c-1.6,0.7-3.3,1.3-4.9,1.9c-0.8,0.3-1.7,0.6-2.5,0.9c-0.4,0.1-0.8,0.3-1.2,0.4c-0.4,0.1-0.8,0.3-1.2,0.4
				c-6.2,2-12.1,3.5-16.3,4.5c-1,0.2-2,0.5-2.7,0.6c-0.8,0.2-1.5,0.3-2.1,0.5c-1.1,0.2-1.7,0.4-1.7,0.4L252.7,85.2z"/>
			
				<linearGradient id="SVGID_8_" gradientUnits="userSpaceOnUse" x1="-440.7648" y1="-538.6838" x2="55.3013" y2="-391.2044" gradientTransform="matrix(0.9214 0.3885 0.3885 -0.9214 550.9272 -264.6682)">
				<stop  offset="0" style="stop-color:#58595B"/>
				<stop  offset="9.065685e-02" style="stop-color:#858587"/>
				<stop  offset="0.1938" style="stop-color:#B0B1B2"/>
				<stop  offset="0.2937" style="stop-color:#D2D3D3"/>
				<stop  offset="0.3879" style="stop-color:#EBEBEB"/>
				<stop  offset="0.4743" style="stop-color:#FAFAFA"/>
				<stop  offset="0.5455" style="stop-color:#FFFFFF"/>
				<stop  offset="1" style="stop-color:#58595B"/>
			</linearGradient>
			<path class="st9" d="M33.9,67.3c0,0,0.2,0.1,0.4,0.4c0.3,0.2,0.7,0.5,1.3,0.9c0.3,0.2,0.5,0.4,0.8,0.6c0.1,0.1,0.3,0.2,0.5,0.3
				c0.2,0.1,0.4,0.2,0.5,0.3c0.7,0.5,1.5,0.9,2.2,1.4c0.8,0.5,1.7,0.9,2.4,1.4c0.8,0.4,1.6,0.8,2.2,1.2c0.7,0.3,1.2,0.6,1.6,0.8
				c0.4,0.2,0.6,0.3,0.6,0.3l-11,0.5c0,0-0.3-0.1-0.7-0.3c-0.5-0.2-1.1-0.5-1.8-0.9c-0.7-0.4-1.7-0.8-2.6-1.3
				c-0.9-0.5-1.8-1-2.8-1.5c-0.9-0.5-1.8-1-2.6-1.6c-0.2-0.1-0.4-0.2-0.6-0.4c-0.2-0.1-0.4-0.2-0.5-0.4c-0.4-0.2-0.7-0.5-1-0.7
				c-0.6-0.4-1.2-0.8-1.5-1c-0.3-0.2-0.5-0.4-0.5-0.4L33.9,67.3z"/>
			
				<linearGradient id="SVGID_9_" gradientUnits="userSpaceOnUse" x1="-407.0411" y1="-538.6083" x2="-21.4018" y2="-423.9586" gradientTransform="matrix(0.9214 0.3885 0.3885 -0.9214 550.9272 -264.6682)">
				<stop  offset="0" style="stop-color:#58595B"/>
				<stop  offset="9.065685e-02" style="stop-color:#858587"/>
				<stop  offset="0.1938" style="stop-color:#B0B1B2"/>
				<stop  offset="0.2937" style="stop-color:#D2D3D3"/>
				<stop  offset="0.3879" style="stop-color:#EBEBEB"/>
				<stop  offset="0.4743" style="stop-color:#FAFAFA"/>
				<stop  offset="0.5455" style="stop-color:#FFFFFF"/>
				<stop  offset="1" style="stop-color:#58595B"/>
			</linearGradient>
			<path class="st10" d="M115.2,88.7c0,0,0.1,0,0.4,0.1c0.2,0,0.6,0.1,1.1,0.2c0.9,0.1,2,0.3,3.2,0.5c1.2,0.2,2.4,0.3,3.2,0.4
				c0.4,0.1,0.8,0.1,1.1,0.1c0.3,0,0.4,0.1,0.4,0.1l-4.1,1.7c0,0-0.2,0-0.4-0.1c-0.3,0-0.7-0.1-1.2-0.1c-1-0.1-2.2-0.3-3.5-0.4
				c-1.3-0.2-2.5-0.3-3.5-0.5c-0.5-0.1-0.9-0.1-1.1-0.2c-0.3,0-0.4-0.1-0.4-0.1L115.2,88.7z"/>
			
				<linearGradient id="SVGID_10_" gradientUnits="userSpaceOnUse" x1="-405.1135" y1="-538.0767" x2="-23.4203" y2="-424.6002" gradientTransform="matrix(0.9214 0.3885 0.3885 -0.9214 550.9272 -264.6682)">
				<stop  offset="0" style="stop-color:#58595B"/>
				<stop  offset="9.065685e-02" style="stop-color:#858587"/>
				<stop  offset="0.1938" style="stop-color:#B0B1B2"/>
				<stop  offset="0.2937" style="stop-color:#D2D3D3"/>
				<stop  offset="0.3879" style="stop-color:#EBEBEB"/>
				<stop  offset="0.4743" style="stop-color:#FAFAFA"/>
				<stop  offset="0.5455" style="stop-color:#FFFFFF"/>
				<stop  offset="1" style="stop-color:#58595B"/>
			</linearGradient>
			<path class="st11" d="M140.2,91.5l-2.8,1.8c0,0-0.7-0.1-1.6-0.1c-0.5,0-1.1-0.1-1.7-0.1c-0.6-0.1-1.3-0.1-1.9-0.2
				c-1.3-0.1-2.6-0.2-3.6-0.3c-1-0.1-1.6-0.2-1.6-0.2l3.6-1.7c0,0,0.6,0.1,1.5,0.2c0.9,0.1,2.1,0.2,3.3,0.3c0.6,0.1,1.2,0.1,1.8,0.2
				c0.6,0.1,1.1,0.1,1.6,0.1C139.6,91.5,140.2,91.5,140.2,91.5z"/>
			
				<linearGradient id="SVGID_11_" gradientUnits="userSpaceOnUse" x1="-404.8712" y1="-537.3493" x2="-23.7465" y2="-424.0417" gradientTransform="matrix(0.9214 0.3885 0.3885 -0.9214 550.9272 -264.6682)">
				<stop  offset="0" style="stop-color:#58595B"/>
				<stop  offset="9.065685e-02" style="stop-color:#858587"/>
				<stop  offset="0.1938" style="stop-color:#B0B1B2"/>
				<stop  offset="0.2937" style="stop-color:#D2D3D3"/>
				<stop  offset="0.3879" style="stop-color:#EBEBEB"/>
				<stop  offset="0.4743" style="stop-color:#FAFAFA"/>
				<stop  offset="0.5455" style="stop-color:#FFFFFF"/>
				<stop  offset="1" style="stop-color:#58595B"/>
			</linearGradient>
			<path class="st12" d="M156.2,92.5l-1.5,1.8c0,0-0.7,0-1.7-0.1c-1,0-2.3-0.1-3.6-0.2c-1.3-0.1-2.6-0.2-3.6-0.2
				c-1-0.1-1.7-0.1-1.7-0.1l2.3-1.8c0,0,0.6,0,1.5,0.1c0.9,0.1,2.1,0.1,3.4,0.2c1.2,0.1,2.5,0.1,3.4,0.2
				C155.6,92.5,156.2,92.5,156.2,92.5z"/>
			
				<linearGradient id="SVGID_12_" gradientUnits="userSpaceOnUse" x1="-405.1952" y1="-536.1364" x2="-24.1364" y2="-422.8484" gradientTransform="matrix(0.9214 0.3885 0.3885 -0.9214 550.9272 -264.6682)">
				<stop  offset="0" style="stop-color:#58595B"/>
				<stop  offset="9.065685e-02" style="stop-color:#858587"/>
				<stop  offset="0.1938" style="stop-color:#B0B1B2"/>
				<stop  offset="0.2937" style="stop-color:#D2D3D3"/>
				<stop  offset="0.3879" style="stop-color:#EBEBEB"/>
				<stop  offset="0.4743" style="stop-color:#FAFAFA"/>
				<stop  offset="0.5455" style="stop-color:#FFFFFF"/>
				<stop  offset="1" style="stop-color:#58595B"/>
			</linearGradient>
			<path class="st13" d="M172.4,92.9l-0.2,1.8c0,0-0.2,0-0.5,0c-0.3,0-0.7,0-1.2,0c-1,0-2.3,0-3.7,0c-1.3,0-2.7-0.1-3.7-0.1
				c-0.5,0-0.9,0-1.2,0c-0.3,0-0.5,0-0.5,0l1-1.8c0,0,0.2,0,0.4,0c0.3,0,0.7,0,1.1,0c0.9,0,2.2,0,3.4,0.1c1.2,0,2.5,0,3.4,0
				c0.5,0,0.9,0,1.1,0C172.3,92.9,172.4,92.9,172.4,92.9z"/>
			
				<linearGradient id="SVGID_13_" gradientUnits="userSpaceOnUse" x1="-424.0068" y1="-541.298" x2="13.3345" y2="-411.2773" gradientTransform="matrix(0.9214 0.3885 0.3885 -0.9214 550.9272 -264.6682)">
				<stop  offset="0" style="stop-color:#58595B"/>
				<stop  offset="9.065685e-02" style="stop-color:#858587"/>
				<stop  offset="0.1938" style="stop-color:#B0B1B2"/>
				<stop  offset="0.2937" style="stop-color:#D2D3D3"/>
				<stop  offset="0.3879" style="stop-color:#EBEBEB"/>
				<stop  offset="0.4743" style="stop-color:#FAFAFA"/>
				<stop  offset="0.5455" style="stop-color:#FFFFFF"/>
				<stop  offset="1" style="stop-color:#58595B"/>
			</linearGradient>
			<path class="st14" d="M53.1,77.8c0,0,1,0.4,2.5,1c1.6,0.6,3.6,1.3,5.9,2.1c0.5,0.2,1.1,0.4,1.6,0.5c0.5,0.2,1.1,0.3,1.6,0.5
				c1.1,0.3,2,0.6,2.9,0.9c1.7,0.5,2.9,0.8,2.9,0.8l-8,1.1c0,0-1.3-0.3-3.2-0.9c-1-0.3-2-0.6-3.2-0.9c-0.6-0.2-1.2-0.4-1.8-0.5
				c-0.6-0.2-1.2-0.4-1.8-0.6c-2.5-0.8-4.8-1.6-6.6-2.2c-1.7-0.6-2.9-1.1-2.9-1.1L53.1,77.8z"/>
			
				<linearGradient id="SVGID_14_" gradientUnits="userSpaceOnUse" x1="-412.6295" y1="-542.1178" x2="-9.1234" y2="-422.1563" gradientTransform="matrix(0.9214 0.3885 0.3885 -0.9214 550.9272 -264.6682)">
				<stop  offset="0" style="stop-color:#58595B"/>
				<stop  offset="9.065685e-02" style="stop-color:#858587"/>
				<stop  offset="0.1938" style="stop-color:#B0B1B2"/>
				<stop  offset="0.2937" style="stop-color:#D2D3D3"/>
				<stop  offset="0.3879" style="stop-color:#EBEBEB"/>
				<stop  offset="0.4743" style="stop-color:#FAFAFA"/>
				<stop  offset="0.5455" style="stop-color:#FFFFFF"/>
				<stop  offset="1" style="stop-color:#58595B"/>
			</linearGradient>
			<path class="st15" d="M71.5,86.9l7.2-1.2c0,0,0.3,0.1,0.8,0.2c0.5,0.1,1.3,0.3,2.2,0.5c0.9,0.2,2,0.4,3.1,0.7
				c1.2,0.2,2.4,0.5,3.7,0.8c0.6,0.1,1.3,0.2,1.9,0.4c0.6,0.1,1.2,0.2,1.8,0.3c0.6,0.1,1.2,0.2,1.7,0.3c0.6,0.1,1.1,0.2,1.6,0.3
				c1.9,0.3,3.2,0.6,3.2,0.6l-5.4,1.4c0,0-1.4-0.2-3.5-0.6c-0.5-0.1-1.1-0.2-1.7-0.3c-0.6-0.1-1.2-0.2-1.8-0.3
				c-0.6-0.1-1.3-0.2-2-0.4c-0.7-0.1-1.4-0.3-2-0.4c-1.4-0.3-2.7-0.5-4-0.8c-1.3-0.3-2.4-0.5-3.4-0.7c-1-0.2-1.9-0.4-2.4-0.5
				C71.8,87,71.5,86.9,71.5,86.9z"/>
		</g>
	</g>
	<g class="st1">
		<g>
			<g>
				<path class="st16" d="M144.9,40.6l0.1,0.1c0,0-0.8,0.1-2.3,0.2c-0.4,0-0.8,0.1-1.2,0.1c-0.4,0.1-0.9,0.1-1.4,0.2
					c-0.5,0.1-1.1,0.1-1.7,0.2c-0.3,0-0.6,0.1-0.9,0.1c-0.3,0-0.6,0.1-0.9,0.1c-0.7,0.1-1.3,0.2-2,0.3c-0.7,0.1-1.5,0.2-2.2,0.3
					c-0.8,0.1-1.5,0.2-2.3,0.4c-0.4,0.1-0.8,0.1-1.2,0.2c-0.4,0.1-0.8,0.1-1.2,0.2c-0.8,0.2-1.7,0.3-2.6,0.5
					c-0.4,0.1-0.9,0.2-1.3,0.3c-0.4,0.1-0.9,0.2-1.3,0.3c-0.4,0.1-0.9,0.2-1.3,0.3c-0.2,0-0.5,0.1-0.7,0.1c-0.2,0.1-0.4,0.1-0.7,0.2
					c-0.9,0.2-1.8,0.4-2.7,0.6c-0.5,0.1-0.9,0.2-1.3,0.3c-0.4,0.1-0.9,0.2-1.3,0.4c-0.4,0.1-0.9,0.2-1.4,0.4
					c-0.4,0.1-0.9,0.3-1.3,0.4c-0.4,0.1-0.9,0.3-1.3,0.4c-0.4,0.1-0.9,0.3-1.3,0.4c-0.8,0.3-1.7,0.6-2.5,0.8
					c-3.2,1.2-6.3,2.4-8.9,3.8c-2.5,1.4-4.6,2.8-6.1,4.4c-1.5,1.5-2.4,3-2.7,4.6c-0.3,1.5-0.1,3,0.6,4.5c0.7,1.4,1.8,2.8,3.3,4
					c1.4,1.2,3.2,2.4,5.1,3.5c1.9,1,4,2,6.1,2.8c0.5,0.2,1,0.4,1.5,0.6c0.2,0.1,0.5,0.2,0.8,0.3c0.3,0.1,0.5,0.2,0.8,0.3
					c1,0.4,2,0.7,2.9,1c0.5,0.2,0.9,0.3,1.4,0.4c0.5,0.1,0.9,0.3,1.3,0.4c0.1,0,0.2,0.1,0.3,0.1c0.1,0,0.2,0.1,0.3,0.1
					c0.2,0.1,0.4,0.1,0.6,0.2c0.4,0.1,0.8,0.2,1.1,0.3c0.2,0,0.4,0.1,0.5,0.1c0.2,0,0.4,0.1,0.5,0.1c0.3,0.1,0.6,0.2,0.9,0.2
					c0.6,0.1,1.1,0.3,1.5,0.4c0.8,0.2,1.3,0.3,1.3,0.3c0.5-0.1,1.1-0.1,1.7-0.1c0.3,0,0.6,0,0.9,0.1c0.3,0,0.6,0.1,0.9,0.1
					c1.2,0.2,1.5,0.6,0.6,0.9c-0.8,0.2-2.5,0.2-3.8-0.1c-0.3-0.1-0.6-0.1-0.8-0.2c-0.2-0.1-0.3-0.2-0.4-0.2
					c-0.1-0.2,0.1-0.3,0.5-0.4c0,0,0.1,0,0.1,0c0,0-0.4-0.1-1.3-0.3c-0.4-0.1-0.9-0.2-1.5-0.4c-0.3-0.1-0.6-0.1-0.9-0.2
					c-0.2,0-0.3-0.1-0.5-0.1c-0.2,0-0.3-0.1-0.5-0.1c-0.4-0.1-0.7-0.2-1.1-0.3c-0.2-0.1-0.4-0.1-0.6-0.2c-0.1,0-0.2-0.1-0.3-0.1
					c-0.1,0-0.2-0.1-0.3-0.1c-0.4-0.1-0.9-0.3-1.3-0.4c-0.5-0.1-0.9-0.3-1.4-0.4c-0.9-0.3-2-0.6-2.9-1c-0.3-0.1-0.5-0.2-0.8-0.3
					c-0.3-0.1-0.5-0.2-0.8-0.3c-0.5-0.2-1-0.4-1.5-0.6c-2.1-0.8-4.2-1.8-6.1-2.8c-1.9-1.1-3.7-2.2-5.2-3.5c-1.5-1.3-2.6-2.6-3.3-4.1
					c-0.7-1.5-0.9-3-0.6-4.5c0.3-1.6,1.3-3.1,2.7-4.6c1.5-1.5,3.6-3,6.1-4.4c2.6-1.4,5.6-2.7,8.9-3.9c0.9-0.3,1.7-0.6,2.5-0.8
					c0.4-0.1,0.9-0.3,1.3-0.4c0.4-0.1,0.9-0.3,1.3-0.4c0.4-0.1,0.9-0.3,1.3-0.4c0.5-0.1,0.9-0.2,1.4-0.4c0.4-0.1,0.9-0.2,1.3-0.4
					c0.4-0.1,0.9-0.2,1.3-0.3c0.9-0.2,1.8-0.4,2.7-0.6c0.2-0.1,0.4-0.1,0.7-0.2c0.2-0.1,0.5-0.1,0.7-0.1c0.5-0.1,0.9-0.2,1.3-0.3
					c0.4-0.1,0.9-0.2,1.3-0.3c0.4-0.1,0.9-0.2,1.3-0.3c0.9-0.2,1.7-0.3,2.6-0.5c0.4-0.1,0.8-0.1,1.2-0.2c0.4-0.1,0.8-0.1,1.2-0.2
					c0.8-0.1,1.6-0.3,2.4-0.4c0.7-0.1,1.5-0.2,2.2-0.3c0.7-0.1,1.4-0.2,2.1-0.3c0.3,0,0.6-0.1,1-0.1c0.3,0,0.6-0.1,0.9-0.1
					c0.6-0.1,1.2-0.1,1.7-0.2c0.5-0.1,1-0.1,1.4-0.2c0.4-0.1,0.8-0.1,1.2-0.1C144.1,40.7,144.9,40.6,144.9,40.6z"/>
			</g>
			<g>
				<path class="st16" d="M250.3,73.1l-0.2,0c0,0,0.3-0.2,0.8-0.4c0.2-0.1,0.5-0.3,0.9-0.5c0.2-0.1,0.4-0.2,0.6-0.3
					c0.2-0.1,0.4-0.3,0.6-0.4c1.7-1.1,3.8-2.8,5-4.9c0.1-0.3,0.3-0.5,0.4-0.8c0.1-0.1,0.1-0.3,0.2-0.4c0.1-0.1,0.1-0.3,0.2-0.4
					c0-0.1,0.1-0.3,0.1-0.5c0-0.2,0.1-0.3,0.1-0.5c0.1-0.3,0.1-0.6,0.1-1c0-0.2,0-0.3,0-0.5c0-0.2,0-0.3,0-0.5
					c-0.1-0.3-0.1-0.7-0.2-1c-0.1-0.3-0.3-0.7-0.4-1c0-0.1-0.1-0.2-0.1-0.3c-0.1-0.1-0.1-0.2-0.1-0.3c-0.1-0.2-0.2-0.4-0.3-0.5
					c-0.9-1.5-2.4-3-4.5-4.4c-2.1-1.5-4.9-3-8.3-4.4c-3.4-1.4-7.5-2.8-12-4c-4.6-1.2-9.6-2.3-14.8-3.1c-5.3-0.9-10.8-1.6-16.2-2.1
					c-1.4-0.1-2.7-0.2-4.1-0.4c-1.3-0.1-2.7-0.2-4-0.3c-0.7,0-1.3-0.1-2-0.1c-0.7,0-1.3-0.1-2-0.1c-0.6,0-1.3-0.1-1.9-0.1
					c-0.3,0-0.6,0-1,0c-0.3,0-0.6,0-0.9,0c-1.3,0-2.5-0.1-3.7-0.1c-1.2,0-2.4-0.1-3.5-0.1c-0.6,0-1.1,0-1.7,0c-0.6,0-1.1,0-1.7,0
					c-1.1,0-2.2,0-3.2,0c-1,0-2,0-3,0c-0.5,0-1,0-1.4,0c-0.5,0-0.9,0-1.4,0c-1.8,0.1-3.4,0.1-4.9,0.1c-1.5,0.1-2.8,0.1-3.9,0.2
					c-0.3,0-0.6,0-0.8,0c-0.3,0-0.5,0-0.7,0c-0.5,0-0.9,0.1-1.3,0.1c-1.5,0.1-2.4,0.1-2.4,0.1c0.1,0.6-1.1,1.2-3,1.3
					c-0.5,0-1.1,0-1.6,0c-0.5,0-1-0.1-1.4-0.1c-0.9-0.2-1.6-0.4-2-0.8c-0.4-0.3-0.2-0.7,0.2-1c0.2-0.1,0.6-0.3,1-0.4
					c0.4-0.1,0.9-0.2,1.5-0.2c1.1-0.1,2.3,0,3.2,0.1c0.5,0.1,0.9,0.2,1.2,0.3c0.3,0.1,0.6,0.3,0.7,0.5c0,0,0,0.1,0.1,0.1
					c0,0,0.8-0.1,2.4-0.1c0.4,0,0.8-0.1,1.3-0.1c0.2,0,0.5,0,0.7,0c0.3,0,0.5,0,0.8,0c1.1-0.1,2.4-0.1,3.9-0.2
					c1.5-0.1,3.1-0.1,4.9-0.1c0.4,0,0.9,0,1.4,0c0.5,0,0.9,0,1.4,0c1,0,2,0,3,0c1,0,2.1,0,3.2,0c0.5,0,1.1,0,1.7,0
					c0.6,0,1.1,0,1.7,0c1.2,0,2.3,0,3.6,0.1c1.2,0,2.4,0.1,3.7,0.1c0.3,0,0.6,0,0.9,0c0.3,0,0.6,0,1,0c0.6,0,1.3,0.1,1.9,0.1
					c1.3,0.1,2.6,0.1,3.9,0.2c1.3,0.1,2.7,0.2,4,0.3c1.3,0.1,2.7,0.2,4.1,0.4c5.4,0.5,10.9,1.2,16.2,2.1c5.2,0.9,10.3,1.9,14.9,3.2
					c4.5,1.2,8.5,2.5,12,4c3.4,1.4,6.2,2.9,8.3,4.4c2.1,1.5,3.6,3,4.5,4.5c0.1,0.2,0.2,0.4,0.3,0.5c0.1,0.1,0.1,0.2,0.2,0.3
					c0,0.1,0.1,0.2,0.1,0.3c0.1,0.4,0.3,0.7,0.4,1.1c0.1,0.3,0.1,0.7,0.2,1c0,0.2,0,0.3,0,0.5c0,0.2,0,0.3,0,0.5
					c0,0.3-0.1,0.6-0.1,1c0,0.2-0.1,0.3-0.1,0.5c0,0.2-0.1,0.3-0.2,0.5c-0.1,0.1-0.1,0.3-0.2,0.4c-0.1,0.1-0.1,0.3-0.2,0.4
					c-0.2,0.3-0.3,0.6-0.4,0.8c-1.3,2.1-3.4,3.8-5.1,4.9c-0.2,0.1-0.4,0.3-0.6,0.4c-0.2,0.1-0.4,0.2-0.6,0.3
					c-0.3,0.2-0.6,0.4-0.9,0.5C250.6,73,250.3,73.1,250.3,73.1z"/>
			</g>
			<g>
				<path class="st16" d="M123.8,81.5l0.1,0c0,0,0.5,0.1,1.3,0.3c0.4,0.1,1,0.2,1.6,0.3c0.6,0.1,1.4,0.2,2.2,0.4
					c0.2,0,0.4,0.1,0.6,0.1c0.1,0,0.2,0,0.3,0.1c0.1,0,0.2,0,0.3,0.1c0.5,0.1,1,0.2,1.5,0.2c0.3,0,0.5,0.1,0.8,0.1
					c0.3,0,0.5,0.1,0.8,0.1c0.6,0.1,1.1,0.2,1.7,0.2c0.3,0,0.6,0.1,0.9,0.1c0.3,0,0.6,0.1,1,0.1c0.6,0.1,1.3,0.2,2,0.3
					c0.3,0,0.7,0.1,1,0.1c0.4,0,0.7,0.1,1.1,0.1c0.4,0,0.7,0.1,1.1,0.1c0.2,0,0.4,0,0.6,0.1c0.2,0,0.4,0,0.6,0.1
					c0.8,0.1,1.5,0.2,2.3,0.2c0.8,0.1,1.6,0.1,2.5,0.2c0.2,0,0.4,0,0.6,0.1c0.2,0,0.4,0,0.6,0.1c0.4,0,0.9,0.1,1.3,0.1
					c0.4,0,0.9,0.1,1.3,0.1c0.4,0,0.9,0.1,1.3,0.1c3.6,0.2,7.4,0.4,11.4,0.6c4,0.1,8.1,0.2,12.4,0.1c4.2,0,8.5-0.2,12.7-0.4
					c4.2-0.2,8.4-0.5,12.4-0.9c4.1-0.4,7.9-0.9,11.6-1.4c0.5-0.1,0.9-0.1,1.4-0.2c0.2,0,0.5-0.1,0.7-0.1l0.3-0.1l0.3-0.1
					c0.9-0.1,1.7-0.3,2.6-0.4c0.8-0.1,1.7-0.3,2.5-0.4c0.2,0,0.4-0.1,0.6-0.1c0.2,0,0.4-0.1,0.6-0.1c0.4-0.1,0.8-0.2,1.2-0.2
					c0.4-0.1,0.8-0.2,1.2-0.2c0.4-0.1,0.7-0.2,1.1-0.2c0.4-0.1,0.7-0.2,1.1-0.2c0.4-0.1,0.7-0.2,1.1-0.2c0.7-0.2,1.4-0.3,2.1-0.5
					c0.3-0.1,0.7-0.2,1-0.2c0.3-0.1,0.6-0.2,1-0.2c0.3-0.1,0.6-0.2,0.9-0.2c0.3-0.1,0.6-0.2,0.9-0.2c0.6-0.2,1.2-0.3,1.7-0.5
					c0.5-0.2,1.1-0.3,1.6-0.5c0.5-0.2,1-0.3,1.5-0.5c1.9-0.6,3.4-1.2,4.6-1.6c0.6-0.2,1.1-0.4,1.6-0.6c0.4-0.2,0.8-0.4,1.1-0.5
					c0.6-0.3,0.9-0.4,0.9-0.4c-1-0.2-1.3-0.5-0.6-0.9c0.2-0.1,0.5-0.2,0.7-0.3c0.3-0.1,0.6-0.1,1-0.2c0.7-0.1,1.5-0.1,2.2-0.1
					c0.7,0,1.2,0.2,1.4,0.3c0.1,0.1,0.1,0.2,0.1,0.3c0,0.1-0.2,0.2-0.4,0.3c-0.4,0.2-1.1,0.4-1.8,0.5c-0.7,0.1-1.5,0.1-2.1,0.1
					c-0.1,0-0.1,0-0.2,0c0,0-0.3,0.1-0.9,0.4c-0.3,0.1-0.7,0.3-1.1,0.5c-0.5,0.2-1,0.4-1.6,0.6c-1.2,0.5-2.7,1-4.6,1.6
					c-0.1,0-0.2,0.1-0.3,0.1c-0.1,0-0.2,0.1-0.4,0.1c-0.2,0.1-0.5,0.2-0.8,0.2c-0.5,0.2-1,0.3-1.6,0.5c-0.6,0.2-1.1,0.3-1.7,0.5
					c-0.1,0-0.3,0.1-0.4,0.1c-0.1,0-0.3,0.1-0.5,0.1c-0.3,0.1-0.6,0.2-0.9,0.2c-0.3,0.1-0.6,0.2-1,0.2c-0.3,0.1-0.6,0.2-1,0.2
					c-0.7,0.2-1.4,0.3-2.1,0.5c-0.3,0.1-0.7,0.2-1.1,0.2c-0.4,0.1-0.7,0.2-1.1,0.2c-0.4,0.1-0.7,0.2-1.1,0.2
					c-0.4,0.1-0.8,0.2-1.2,0.2c-0.4,0.1-0.8,0.2-1.2,0.2c-0.2,0-0.4,0.1-0.6,0.1c-0.2,0-0.4,0.1-0.6,0.1c-0.8,0.1-1.7,0.3-2.5,0.4
					c-0.9,0.1-1.7,0.3-2.6,0.4l-0.3,0.1L216,83c-0.2,0-0.5,0.1-0.7,0.1c-0.5,0.1-0.9,0.1-1.4,0.2c-3.6,0.5-7.5,1-11.6,1.4
					c-4,0.4-8.2,0.7-12.5,0.9c-4.2,0.2-8.5,0.3-12.7,0.4c-4.2,0-8.4,0-12.4-0.1c-4-0.1-7.9-0.3-11.5-0.6c-0.5,0-0.9-0.1-1.3-0.1
					c-0.4,0-0.9-0.1-1.3-0.1c-0.4,0-0.9-0.1-1.3-0.1c-0.2,0-0.4,0-0.6-0.1c-0.2,0-0.4,0-0.6-0.1c-0.8-0.1-1.7-0.1-2.5-0.2
					c-0.8-0.1-1.6-0.2-2.3-0.2c-0.2,0-0.4,0-0.6-0.1l-0.3,0l-0.3,0c-0.4,0-0.7-0.1-1.1-0.1c-0.4,0-0.7-0.1-1.1-0.1
					c-0.4,0-0.7-0.1-1-0.1c-0.7-0.1-1.3-0.2-2-0.3c-0.3,0-0.6-0.1-1-0.1c-0.3,0-0.6-0.1-0.9-0.1c-0.6-0.1-1.2-0.2-1.7-0.2
					c-0.3,0-0.6-0.1-0.8-0.1c-0.3,0-0.5-0.1-0.8-0.1c-0.5-0.1-1-0.2-1.5-0.2c-0.1,0-0.2,0-0.3-0.1c-0.1,0-0.2,0-0.3-0.1
					c-0.2,0-0.4-0.1-0.6-0.1c-0.8-0.1-1.6-0.3-2.2-0.4c-0.6-0.1-1.2-0.2-1.6-0.3C124.2,81.6,123.8,81.5,123.8,81.5z"/>
			</g>
		</g>
		<g class="st17">
			<g>
				<path class="st16" d="M74.4,53.4l0.3,0.1c0,0-0.2,0.2-0.7,0.7c-0.1,0.1-0.2,0.2-0.3,0.4c-0.1,0.1-0.2,0.3-0.3,0.5
					c-0.1,0.2-0.2,0.3-0.4,0.5c-0.1,0.1-0.1,0.2-0.2,0.3c-0.1,0.1-0.1,0.2-0.2,0.3c-0.1,0.2-0.2,0.4-0.4,0.7
					c-0.1,0.2-0.3,0.5-0.3,0.7c-0.1,0.3-0.2,0.5-0.3,0.8c0,0.1-0.1,0.3-0.1,0.4c0,0.1,0,0.3-0.1,0.4c0,0.3-0.1,0.6-0.1,0.9
					c0,0.1,0,0.3,0,0.5c0,0.2,0,0.3,0,0.5c0,0.2,0,0.3,0,0.5c0,0.1,0,0.2,0,0.2c0,0.1,0,0.2,0.1,0.2c0.1,0.3,0.1,0.7,0.2,1
					c0,0.2,0.1,0.3,0.2,0.5c0.1,0.2,0.1,0.3,0.2,0.5c0.1,0.2,0.1,0.3,0.2,0.5c0.1,0.2,0.2,0.4,0.3,0.5c0.1,0.2,0.2,0.4,0.3,0.5
					c0.1,0.2,0.2,0.4,0.4,0.5c0.3,0.4,0.6,0.7,0.8,1.1c1.3,1.4,2.9,2.9,5.1,4.4c2.1,1.4,4.7,2.8,7.8,4.2c3,1.3,6.4,2.6,10.1,3.7
					c3.6,1.1,7.6,2.2,11.7,3.1c4,0.9,8.2,1.7,12.4,2.4c4.1,0.7,8.3,1.3,12.3,1.8c4,0.5,7.9,0.9,11.5,1.2c0.9,0.1,1.8,0.1,2.7,0.2
					c0.4,0,0.9,0.1,1.3,0.1c0.4,0,0.8,0.1,1.3,0.1c1.6,0.1,3.2,0.2,4.7,0.3c0.7,0,1.5,0.1,2.2,0.1c0.7,0,1.4,0.1,2,0.1
					c0.2,0,0.3,0,0.5,0c0.2,0,0.3,0,0.5,0c0.3,0,0.6,0,0.9,0c0.6,0,1.2,0,1.7,0.1c0.3,0,0.5,0,0.8,0c0.3,0,0.5,0,0.7,0
					c0.5,0,0.9,0,1.3,0c0.8,0,1.5,0,2.1,0c1.2,0,1.8,0,1.8,0c0.2-0.1,0.5-0.2,1.1-0.3c0.3,0,0.6-0.1,0.9-0.1c0.3,0,0.7,0,1,0
					c1.6,0,2.9,0.3,3,0.6c0,0.3-1.4,0.6-3.1,0.6c-0.4,0-0.8,0-1.2-0.1c-0.4,0-0.7-0.1-1-0.1c-0.5-0.1-0.8-0.3-0.8-0.4c0,0,0,0,0,0
					c0,0-0.6,0-1.8,0c-0.6,0-1.3,0-2.1,0c-0.4,0-0.9,0-1.4,0c-0.2,0-0.5,0-0.7,0c-0.3,0-0.5,0-0.8,0c-0.5,0-1.1,0-1.7-0.1
					c-0.3,0-0.6,0-0.9,0c-0.2,0-0.3,0-0.5,0c-0.2,0-0.3,0-0.5,0c-0.6,0-1.3-0.1-2-0.1c-0.7,0-1.4-0.1-2.2-0.1
					c-1.5-0.1-3.1-0.2-4.7-0.3c-0.4,0-0.8-0.1-1.3-0.1c-0.4,0-0.9-0.1-1.3-0.1c-0.9-0.1-1.7-0.1-2.7-0.2c-3.6-0.3-7.5-0.7-11.5-1.2
					c-4-0.5-8.2-1.1-12.4-1.8c-4.2-0.7-8.4-1.5-12.5-2.4c-4.1-0.9-8.1-2-11.7-3.1c-3.7-1.2-7.2-2.4-10.1-3.7
					c-3.1-1.4-5.7-2.8-7.8-4.2c-2.2-1.5-3.9-3-5.2-4.4c-0.3-0.4-0.6-0.7-0.9-1.1c-0.2-0.2-0.2-0.4-0.4-0.5c-0.1-0.2-0.2-0.4-0.3-0.5
					c-0.1-0.2-0.2-0.4-0.3-0.5c-0.1-0.2-0.1-0.4-0.2-0.5c-0.1-0.2-0.1-0.3-0.2-0.5c-0.1-0.2-0.2-0.3-0.2-0.5c-0.1-0.3-0.1-0.7-0.2-1
					c0-0.1,0-0.2-0.1-0.2c0-0.1,0-0.2,0-0.2c0-0.2,0-0.3,0-0.5c0-0.2,0-0.3,0-0.5c0-0.2,0-0.3,0-0.5c0-0.3,0.1-0.6,0.1-0.9
					c0-0.1,0-0.3,0.1-0.4c0-0.1,0.1-0.3,0.1-0.4c0.1-0.3,0.2-0.5,0.3-0.8c0.1-0.3,0.2-0.5,0.3-0.7c0.1-0.2,0.2-0.5,0.4-0.7
					c0.1-0.1,0.1-0.2,0.2-0.3c0.1-0.1,0.1-0.2,0.2-0.3c0.1-0.2,0.3-0.4,0.4-0.5c0.1-0.2,0.2-0.3,0.3-0.5c0.1-0.1,0.2-0.3,0.3-0.4
					C74.1,53.6,74.4,53.4,74.4,53.4z"/>
			</g>
			<g>
				<path class="st16" d="M273.9,52.8l-0.3,0.1c0,0-0.3-0.2-0.7-0.7c-0.3-0.2-0.6-0.5-1-0.8c-0.2-0.2-0.4-0.3-0.7-0.5
					c-0.2-0.2-0.6-0.4-0.9-0.6c-2.4-1.7-6.6-4.1-13.6-6.6c-0.9-0.3-1.9-0.6-2.8-1c-0.5-0.2-1-0.3-1.5-0.5c-0.5-0.2-1.1-0.3-1.6-0.5
					c-0.5-0.2-1.1-0.3-1.6-0.5c-0.6-0.2-1.2-0.3-1.8-0.5c-1.2-0.3-2.4-0.7-3.7-1c-0.7-0.2-1.3-0.3-2-0.5c-0.7-0.2-1.3-0.3-2-0.5
					c-1.4-0.3-2.9-0.6-4.3-0.9c-1.5-0.3-3.1-0.6-4.7-0.9c-0.4-0.1-0.8-0.1-1.2-0.2c-0.4-0.1-0.8-0.1-1.2-0.2
					c-0.8-0.1-1.7-0.3-2.5-0.4c-6.8-1.1-14.4-2-22.4-2.6c-8.1-0.6-16.6-1-25.1-1.1c-8.6-0.1-17.2,0.1-25.4,0.6
					c-8.2,0.5-16,1.2-23.1,2.2c-7,0.9-13.4,2-19,3.3c-1.4,0.3-2.7,0.6-4,0.9c-1.3,0.3-2.5,0.6-3.7,0.9c-0.6,0.2-1.2,0.3-1.7,0.5
					c-0.6,0.2-1.1,0.3-1.6,0.5c-0.5,0.2-1.1,0.3-1.6,0.5c-0.3,0.1-0.5,0.2-0.8,0.2c-0.2,0.1-0.5,0.2-0.7,0.2c-1,0.3-1.9,0.6-2.8,0.9
					c-0.9,0.3-1.7,0.6-2.5,0.9c-0.4,0.1-0.8,0.3-1.2,0.4c-0.4,0.1-0.7,0.3-1.1,0.4c-0.7,0.3-1.4,0.6-2,0.8c-0.6,0.3-1.2,0.5-1.7,0.8
					c-0.3,0.1-0.5,0.3-0.8,0.4c-0.3,0.1-0.5,0.2-0.7,0.4c-0.9,0.5-1.8,0.9-2.5,1.3c-0.7,0.4-1.3,0.8-1.8,1.1
					c-0.1,0.1-0.3,0.2-0.4,0.2c-0.1,0.1-0.2,0.1-0.3,0.2c-0.2,0.1-0.4,0.3-0.5,0.4c-0.6,0.4-0.9,0.7-0.9,0.7c1.7,0.4,2.6,1.1,2,1.7
					c-0.2,0.2-0.5,0.3-0.8,0.4c-0.4,0.1-0.8,0.2-1.2,0.2c-0.9,0.1-2.1,0.1-3.2-0.1c-1.1-0.2-2-0.5-2.5-0.8C71.2,52.4,71,52.2,71,52
					c0-0.2,0-0.4,0.2-0.5c0.4-0.3,1.2-0.6,2.2-0.7c0.5,0,1-0.1,1.6,0c0.6,0,1.1,0.1,1.7,0.2c0.1,0,0.2,0,0.3,0.1
					c0,0,0.3-0.2,0.9-0.7c0.2-0.1,0.3-0.2,0.5-0.4c0.1-0.1,0.2-0.1,0.3-0.2c0.1-0.1,0.2-0.1,0.4-0.2c0.5-0.3,1.1-0.7,1.8-1.1
					c0.7-0.4,1.6-0.9,2.5-1.3c0.2-0.1,0.5-0.2,0.8-0.4c0.3-0.1,0.5-0.3,0.8-0.4c0.6-0.3,1.1-0.5,1.7-0.8c0.6-0.3,1.3-0.5,2-0.8
					c0.4-0.1,0.7-0.3,1.1-0.4c0.4-0.1,0.8-0.3,1.2-0.4c0.8-0.3,1.6-0.6,2.5-0.9c0.9-0.3,1.9-0.6,2.8-0.9c0.2-0.1,0.5-0.2,0.7-0.2
					c0.2-0.1,0.5-0.2,0.8-0.2c0.5-0.2,1.1-0.3,1.6-0.5c1.1-0.3,2.2-0.6,3.4-0.9c1.2-0.3,2.4-0.6,3.7-0.9c1.3-0.3,2.6-0.6,4-0.9
					c5.6-1.2,12-2.3,19.1-3.3c7.2-1,15-1.7,23.2-2.2c8.3-0.5,16.9-0.7,25.5-0.6c8.6,0.1,17.1,0.5,25.2,1.1c8,0.6,15.6,1.5,22.5,2.6
					c0.8,0.1,1.7,0.3,2.5,0.4c0.4,0.1,0.8,0.1,1.2,0.2c0.4,0.1,0.8,0.1,1.2,0.2c1.6,0.3,3.1,0.6,4.7,0.9c1.5,0.3,2.9,0.6,4.4,0.9
					c0.7,0.1,1.4,0.3,2,0.5c0.7,0.2,1.3,0.3,2,0.5c1.3,0.3,2.5,0.7,3.7,1c0.6,0.2,1.2,0.3,1.8,0.5c0.6,0.2,1.1,0.3,1.6,0.5
					c0.5,0.2,1.1,0.3,1.6,0.5c0.5,0.2,1.1,0.3,1.5,0.5c1,0.3,1.9,0.7,2.8,1c7,2.6,11.2,5,13.6,6.7c0.3,0.2,0.6,0.4,0.9,0.6
					c0.2,0.2,0.5,0.4,0.7,0.5c0.4,0.3,0.8,0.6,1,0.8C273.6,52.5,273.9,52.8,273.9,52.8z"/>
			</g>
			<g>
				<path class="st16" d="M175.4,89.1L175.4,89.1c0,0,0.6-0.1,1.8-0.1c0.6,0,1.3,0,2.1,0c0.8,0,1.8,0,2.9,0c0.3,0,0.5,0,0.8,0
					c0.1,0,0.3,0,0.4,0c0.1,0,0.3,0,0.4,0c0.6,0,1.2,0,1.9-0.1c0.3,0,0.7,0,1,0c0.3,0,0.7,0,1,0c0.7,0,1.4-0.1,2.2-0.1
					c0.4,0,0.8,0,1.1,0c0.4,0,0.8,0,1.2-0.1c0.8,0,1.6-0.1,2.4-0.1c0.4,0,0.8,0,1.3-0.1c0.4,0,0.9-0.1,1.3-0.1
					c0.4,0,0.9-0.1,1.3-0.1c0.2,0,0.4,0,0.7,0c0.2,0,0.4,0,0.7,0c0.9-0.1,1.8-0.1,2.8-0.2c0.9-0.1,1.9-0.2,2.9-0.2
					c0.2,0,0.5,0,0.7-0.1c0.2,0,0.5,0,0.7-0.1c0.5,0,1-0.1,1.5-0.1c0.5,0,1-0.1,1.5-0.1c0.5-0.1,1-0.1,1.5-0.2
					c4.1-0.4,8.3-1,12.5-1.6c4.3-0.6,8.5-1.4,12.7-2.2c4.2-0.9,8.3-1.9,12-2.9c3.9-1.1,7.4-2.3,10.6-3.5c3.3-1.3,6.1-2.6,8.4-4
					c0.3-0.2,0.6-0.3,0.9-0.5c0.1-0.1,0.3-0.2,0.4-0.3l0.2-0.1l0.2-0.1c0.5-0.4,1-0.7,1.6-1.1c0.5-0.4,0.9-0.7,1.4-1.1
					c0.1-0.1,0.2-0.2,0.3-0.3c0.1-0.1,0.2-0.2,0.3-0.3c0.2-0.2,0.4-0.4,0.6-0.5c0.2-0.2,0.4-0.4,0.6-0.5c0.2-0.2,0.3-0.4,0.5-0.5
					c0.2-0.2,0.3-0.4,0.5-0.5c0.2-0.2,0.3-0.4,0.4-0.5c0.2-0.3,0.5-0.7,0.7-1c0.1-0.2,0.2-0.3,0.3-0.5c0.1-0.2,0.2-0.3,0.3-0.5
					c0.1-0.2,0.2-0.3,0.3-0.5c0.1-0.2,0.1-0.3,0.2-0.5c0.1-0.3,0.2-0.6,0.3-1c0.1-0.3,0.1-0.6,0.1-0.9c0-0.3,0.1-0.6,0.1-0.9
					c0-1.1-0.2-2.1-0.6-3c-0.2-0.4-0.3-0.8-0.5-1.1c-0.2-0.3-0.4-0.6-0.5-0.8c-0.3-0.5-0.4-0.7-0.4-0.7c-2,0.2-3.8-0.1-4.3-0.7
					c-0.1-0.2-0.1-0.3-0.1-0.5c0.1-0.2,0.2-0.3,0.5-0.5c0.5-0.3,1.4-0.6,2.5-0.8c1.1-0.2,2.3-0.2,3.2-0.1c0.5,0.1,0.9,0.1,1.3,0.3
					c0.4,0.1,0.6,0.3,0.7,0.4c0.3,0.3,0.1,0.7-0.5,1c-0.6,0.3-1.5,0.6-2.6,0.7c-0.1,0-0.2,0-0.3,0c0,0,0.2,0.2,0.4,0.7
					c0.1,0.2,0.3,0.5,0.5,0.8c0.1,0.3,0.3,0.7,0.5,1.1c0.3,0.8,0.5,1.8,0.5,3c0,0.1,0,0.1,0,0.2c0,0.1,0,0.1,0,0.2
					c0,0.1,0,0.3-0.1,0.4c0,0.3-0.1,0.6-0.1,0.9c-0.1,0.3-0.2,0.6-0.3,1c0,0.1-0.1,0.2-0.1,0.2c0,0.1,0,0.2-0.1,0.2
					c-0.1,0.2-0.2,0.3-0.3,0.5c-0.1,0.2-0.2,0.3-0.3,0.5c-0.1,0.2-0.2,0.3-0.3,0.5c-0.2,0.3-0.5,0.7-0.7,1c-0.1,0.2-0.3,0.3-0.4,0.5
					c-0.2,0.2-0.3,0.4-0.5,0.5c-0.2,0.2-0.3,0.4-0.5,0.5c-0.2,0.2-0.4,0.4-0.6,0.5c-0.2,0.2-0.4,0.4-0.6,0.5
					c-0.1,0.1-0.2,0.2-0.3,0.3c-0.1,0.1-0.2,0.2-0.3,0.3c-0.5,0.4-0.9,0.7-1.4,1.1c-0.5,0.4-1,0.7-1.6,1.1l-0.2,0.1l-0.2,0.1
					c-0.1,0.1-0.3,0.2-0.4,0.3c-0.3,0.2-0.6,0.3-0.9,0.5c-2.4,1.4-5.2,2.7-8.5,4c-3.2,1.3-6.8,2.5-10.6,3.6
					c-3.8,1.1-7.9,2.1-12.1,2.9c-4.1,0.9-8.4,1.6-12.7,2.3c-4.2,0.6-8.5,1.2-12.5,1.6c-0.5,0.1-1,0.1-1.5,0.2c-0.5,0-1,0.1-1.5,0.1
					c-0.5,0-1,0.1-1.5,0.1c-0.2,0-0.5,0-0.7,0.1c-0.2,0-0.5,0-0.7,0.1c-1,0.1-1.9,0.2-2.9,0.2c-0.9,0.1-1.9,0.1-2.8,0.2
					c-0.2,0-0.5,0-0.7,0l-0.3,0l-0.3,0c-0.4,0-0.9,0.1-1.3,0.1c-0.4,0-0.9,0.1-1.3,0.1c-0.4,0-0.8,0.1-1.3,0.1
					c-0.8,0-1.7,0.1-2.4,0.1c-0.4,0-0.8,0-1.2,0.1c-0.4,0-0.8,0-1.1,0c-0.7,0-1.5,0.1-2.2,0.1c-0.3,0-0.7,0-1,0c-0.3,0-0.7,0-1,0
					c-0.7,0-1.3,0-1.9,0.1c-0.1,0-0.3,0-0.4,0c-0.1,0-0.3,0-0.4,0c-0.3,0-0.6,0-0.8,0c-1.1,0-2,0-2.9,0c-0.8,0-1.6,0-2.1,0
					C176,89.1,175.4,89.1,175.4,89.1z"/>
			</g>
		</g>
	</g>
</g>
<g id="Layer_2">
	<g>
		<g>
			
				<linearGradient id="SVGID_15_" gradientUnits="userSpaceOnUse" x1="-528.8986" y1="-283.3111" x2="-111.2241" y2="-159.1373" gradientTransform="matrix(0.9214 -0.3885 0.3885 0.9214 550.9272 98.2797)">
				<stop  offset="0" style="stop-color:#58595B"/>
				<stop  offset="9.065685e-02" style="stop-color:#858587"/>
				<stop  offset="0.1938" style="stop-color:#B0B1B2"/>
				<stop  offset="0.2937" style="stop-color:#D2D3D3"/>
				<stop  offset="0.3879" style="stop-color:#EBEBEB"/>
				<stop  offset="0.4743" style="stop-color:#FAFAFA"/>
				<stop  offset="0.5455" style="stop-color:#FFFFFF"/>
				<stop  offset="1" style="stop-color:#58595B"/>
			</linearGradient>
			<path class="st18" d="M134.6,10c0,0,0.5-0.1,1.6-0.2c0.5-0.1,1.1-0.1,1.9-0.2c0.7-0.1,1.6-0.2,2.6-0.2c3.9-0.3,9.4-0.8,16.3-1.1
				c1.7-0.1,3.5-0.2,5.3-0.2c0.5,0,0.9,0,1.4,0l0.7,0l0.7,0c1,0,1.9,0,2.9-0.1c3.9-0.1,8.1-0.1,12.4,0c4.3,0.1,8.7,0.2,13.2,0.4
				c4.5,0.2,9,0.5,13.4,0.8c4.5,0.4,8.9,0.8,13.1,1.3c1.1,0.1,2.1,0.3,3.2,0.4c1,0.1,2.1,0.3,3.1,0.4l0.8,0.1l0.7,0.1
				c0.5,0.1,1,0.2,1.5,0.2c0.5,0.1,1,0.2,1.5,0.2c0.5,0.1,1,0.2,1.5,0.2c4,0.6,7.6,1.4,10.9,2.1c0.8,0.2,1.7,0.4,2.5,0.5
				c0.8,0.2,1.6,0.4,2.3,0.6c0.4,0.1,0.8,0.2,1.2,0.3c0.4,0.1,0.7,0.2,1.1,0.3c0.7,0.2,1.4,0.4,2.1,0.5c5.6,1.5,9.6,2.9,12.3,3.9
				c0.7,0.3,1.2,0.5,1.8,0.7c0.5,0.2,1,0.4,1.3,0.5c0.7,0.3,1,0.4,1,0.4l7.4-0.6c0,0-0.4-0.2-1.2-0.5c-0.4-0.2-0.8-0.3-1.4-0.6
				c-0.6-0.2-1.2-0.5-2-0.7c-3-1.1-7.4-2.6-13.5-4.1c-0.8-0.2-1.5-0.4-2.3-0.6c-0.4-0.1-0.8-0.2-1.2-0.3c-0.4-0.1-0.8-0.2-1.3-0.3
				c-0.8-0.2-1.7-0.4-2.5-0.6c-0.9-0.2-1.8-0.4-2.7-0.6c-3.6-0.7-7.6-1.5-11.8-2.2c-0.5-0.1-1-0.2-1.6-0.3c-0.5-0.1-1.1-0.2-1.6-0.2
				c-0.5-0.1-1.1-0.2-1.6-0.2l-0.8-0.1l-0.8-0.1c-1.1-0.2-2.2-0.3-3.3-0.5c-1.1-0.1-2.3-0.3-3.4-0.4c-4.5-0.5-9.3-1-14-1.4
				c-9.4-0.8-19.3-1.2-28.4-1.3c-4.6,0-9,0-13.2,0c-1,0-2.1,0-3.1,0.1l-0.8,0l-0.8,0c-0.5,0-1,0-1.5,0c-2,0.1-3.9,0.1-5.7,0.2
				c-7.3,0.3-13.3,0.8-17.4,1.2c-1,0.1-1.9,0.2-2.7,0.3c-0.8,0.1-1.5,0.1-2,0.2c-1.1,0.1-1.7,0.2-1.7,0.2L134.6,10z"/>
			
				<linearGradient id="SVGID_16_" gradientUnits="userSpaceOnUse" x1="-717.3132" y1="-301.0096" x2="-75.2775" y2="-110.1338" gradientTransform="matrix(0.9214 -0.3885 0.3885 0.9214 550.9272 98.2797)">
				<stop  offset="0" style="stop-color:#58595B"/>
				<stop  offset="9.065685e-02" style="stop-color:#858587"/>
				<stop  offset="0.1938" style="stop-color:#B0B1B2"/>
				<stop  offset="0.2937" style="stop-color:#D2D3D3"/>
				<stop  offset="0.3879" style="stop-color:#EBEBEB"/>
				<stop  offset="0.4743" style="stop-color:#FAFAFA"/>
				<stop  offset="0.5455" style="stop-color:#FFFFFF"/>
				<stop  offset="1" style="stop-color:#58595B"/>
			</linearGradient>
			<path class="st19" d="M335.7,32.7l-13.8-0.3c0,0,0.2,0.1,0.4,0.4c0.3,0.2,0.7,0.6,1.1,1c0.4,0.4,0.9,0.9,1.4,1.4
				c0.1,0.1,0.3,0.3,0.4,0.4c0.1,0.1,0.2,0.3,0.3,0.4c0.2,0.3,0.4,0.6,0.7,0.9c0.2,0.3,0.5,0.6,0.7,0.9c0.2,0.3,0.4,0.6,0.5,0.9
				c0.3,0.6,0.7,1.1,0.9,1.5c0.4,0.9,0.7,1.5,0.7,1.5l15.9,1.3c0,0-0.4-0.7-1-1.7c-0.2-0.5-0.7-1.1-1.2-1.7
				c-0.2-0.3-0.5-0.6-0.7-0.9c-0.2-0.3-0.6-0.6-0.9-1c-0.3-0.3-0.6-0.6-0.9-1c-0.1-0.2-0.3-0.3-0.4-0.5c-0.2-0.2-0.3-0.3-0.5-0.4
				c-0.6-0.6-1.2-1.1-1.7-1.6c-0.5-0.5-1-0.8-1.4-1.1C335.9,32.8,335.7,32.7,335.7,32.7z"/>
			
				<linearGradient id="SVGID_17_" gradientUnits="userSpaceOnUse" x1="-494.7538" y1="-218.6005" x2="-113.3782" y2="-105.2183" gradientTransform="matrix(0.9214 -0.3885 0.3885 0.9214 550.9272 98.2797)">
				<stop  offset="0" style="stop-color:#58595B"/>
				<stop  offset="9.065685e-02" style="stop-color:#858587"/>
				<stop  offset="0.1938" style="stop-color:#B0B1B2"/>
				<stop  offset="0.2937" style="stop-color:#D2D3D3"/>
				<stop  offset="0.3879" style="stop-color:#EBEBEB"/>
				<stop  offset="0.4743" style="stop-color:#FAFAFA"/>
				<stop  offset="0.5455" style="stop-color:#FFFFFF"/>
				<stop  offset="1" style="stop-color:#58595B"/>
			</linearGradient>
			<path class="st20" d="M346.4,47.8l-16.6-1.8c0,0,0,0.2,0,0.4c0,0.3-0.1,0.7-0.1,1.2c0,1-0.5,2.3-1,3.7c-0.3,0.7-0.7,1.3-1,2
				c-0.4,0.6-0.9,1.2-1.2,1.7c-0.4,0.5-0.6,1-1,1.2c-0.3,0.3-0.4,0.5-0.4,0.5l17.8,3.2c0,0,0.2-0.2,0.4-0.5c0.3-0.3,0.5-0.8,0.9-1.4
				c0.3-0.6,0.8-1.3,1.1-2c0.3-0.7,0.5-1.5,0.8-2.3c0.3-1.5,0.6-3,0.5-4.1c0-0.6,0-1,0-1.3C346.4,48,346.4,47.8,346.4,47.8z"/>
			
				<linearGradient id="SVGID_18_" gradientUnits="userSpaceOnUse" x1="-522.4067" y1="-285.8357" x2="-114.1851" y2="-164.4723" gradientTransform="matrix(0.9214 -0.3885 0.3885 0.9214 550.9272 98.2797)">
				<stop  offset="0" style="stop-color:#58595B"/>
				<stop  offset="9.065685e-02" style="stop-color:#858587"/>
				<stop  offset="0.1938" style="stop-color:#B0B1B2"/>
				<stop  offset="0.2937" style="stop-color:#D2D3D3"/>
				<stop  offset="0.3879" style="stop-color:#EBEBEB"/>
				<stop  offset="0.4743" style="stop-color:#FAFAFA"/>
				<stop  offset="0.5455" style="stop-color:#FFFFFF"/>
				<stop  offset="1" style="stop-color:#58595B"/>
			</linearGradient>
			<path class="st21" d="M249,8.9l2.8-0.8c0,0,0.7,0.1,1.9,0.3c0.6,0.1,1.3,0.2,2.2,0.4c0.8,0.1,1.7,0.3,2.7,0.5
				c2.1,0.4,4.4,0.8,6.9,1.3c2.5,0.5,5.1,1.1,7.6,1.7c0.6,0.1,1.3,0.3,1.9,0.4c0.6,0.2,1.2,0.3,1.9,0.5c1.2,0.3,2.5,0.6,3.6,0.9
				c1.2,0.3,2.3,0.6,3.3,0.9c1,0.3,2,0.6,2.9,0.8c0.5,0.1,0.9,0.3,1.3,0.4c0.4,0.1,0.8,0.2,1.1,0.4c0.7,0.2,1.3,0.4,1.9,0.6
				c1.1,0.3,1.6,0.5,1.6,0.5l9.3-0.9c0,0-0.6-0.2-1.8-0.6c-0.6-0.2-1.4-0.4-2.2-0.7c-0.4-0.1-0.9-0.3-1.4-0.4
				c-0.5-0.1-1.1-0.3-1.6-0.5c-4.5-1.3-11.1-3-19.8-4.8c-4.1-0.9-8.8-1.7-13.8-2.6c-4.9-0.8-10.2-1.6-15.8-2.3
				c-10.9-1.4-23-2.6-35.4-3.3c-6-0.4-12.2-0.6-18.2-0.8c-6-0.2-11.9-0.2-17.7-0.2c-2.9,0-5.7,0-8.4,0.1c-2.8,0.1-5.5,0.1-8.1,0.2
				c-2.6,0.1-5.2,0.2-7.6,0.3c-1.2,0.1-2.4,0.1-3.6,0.2c-0.6,0-1.2,0.1-1.8,0.1c-0.6,0-1.2,0.1-1.7,0.1C133.7,2,126.2,2.7,121,3.2
				c-1.3,0.1-2.5,0.2-3.5,0.3c-1,0.1-1.9,0.2-2.6,0.3C113.5,4,112.8,4,112.8,4l4,1.6c0,0,1.7-0.2,4.8-0.5c1.5-0.2,3.4-0.3,5.5-0.5
				c2.1-0.2,4.5-0.4,7.2-0.6c5.2-0.4,11.4-0.8,18.2-1.1c6.6-0.3,13.8-0.5,21-0.5c7.2,0,14.3,0.1,21,0.3c6.7,0.2,12.9,0.6,18.2,1
				c1.3,0.1,2.6,0.2,3.8,0.3c1.2,0.1,2.3,0.2,3.4,0.3c0.5,0,1.1,0.1,1.6,0.1c0.5,0,1,0.1,1.4,0.1c0.9,0.1,1.8,0.2,2.5,0.2
				c0.8,0.1,1.4,0.1,2,0.2c0.6,0.1,1.1,0.1,1.5,0.2c0.8,0.1,1.3,0.1,1.3,0.1L228.2,6c0,0,0.3,0,0.9,0.1c0.6,0.1,1.4,0.2,2.4,0.3
				c0.5,0.1,1,0.1,1.6,0.2c0.3,0,0.6,0.1,0.9,0.1c0.3,0,0.6,0.1,0.9,0.1c1.2,0.2,2.5,0.3,3.9,0.5c1.3,0.2,2.6,0.4,3.8,0.5
				c0.3,0,0.6,0.1,0.9,0.1c0.3,0,0.6,0.1,0.8,0.1c0.5,0.1,1.1,0.2,1.6,0.2c1,0.1,1.8,0.3,2.3,0.4C248.7,8.8,249,8.9,249,8.9z"/>
			
				<linearGradient id="SVGID_19_" gradientUnits="userSpaceOnUse" x1="-569.1976" y1="-251.0449" x2="-75.6437" y2="-104.3124" gradientTransform="matrix(0.9214 -0.3885 0.3885 0.9214 550.9272 98.2797)">
				<stop  offset="0" style="stop-color:#58595B"/>
				<stop  offset="9.065685e-02" style="stop-color:#858587"/>
				<stop  offset="0.1938" style="stop-color:#B0B1B2"/>
				<stop  offset="0.2937" style="stop-color:#D2D3D3"/>
				<stop  offset="0.3879" style="stop-color:#EBEBEB"/>
				<stop  offset="0.4743" style="stop-color:#FAFAFA"/>
				<stop  offset="0.5455" style="stop-color:#FFFFFF"/>
				<stop  offset="1" style="stop-color:#58595B"/>
			</linearGradient>
			<path class="st22" d="M24.9,36.7l-14.8,0.7c0,0-0.1,0.1-0.2,0.2c-0.1,0.2-0.3,0.4-0.6,0.7c-0.2,0.3-0.6,0.7-0.9,1.1
				c-0.4,0.5-0.7,1-1,1.6c-1.5,2.4-3.1,6.1-2.6,10.5c0,0.3,0.1,0.6,0.1,0.9c0.1,0.3,0.2,0.6,0.2,0.9c0.2,0.6,0.4,1.2,0.5,1.9
				c0.3,0.6,0.6,1.3,0.9,1.9c0.2,0.3,0.3,0.7,0.5,1c0.2,0.3,0.5,0.7,0.7,1c1.8,2.8,4.8,5.7,8.8,8.6c4.1,3.1,9.7,6.1,16.4,9.1
				c7.1,3.1,15.4,6.1,25.1,8.7c10,2.7,21.2,5.1,33.1,7.1c12.2,2,25.2,3.5,38.2,4.6c13.2,1.1,26.3,1.7,38.9,1.8c1.6,0,3.1,0,4.7,0.1
				c1.6,0,3.1,0,4.6,0c3.1,0,6.1,0,9-0.1c5.9-0.2,11.6-0.3,17-0.6c21.5-1,38.4-3,49.6-4.7c1.4-0.2,2.7-0.4,3.9-0.6
				c1.2-0.2,2.3-0.4,3.4-0.6c2.1-0.4,3.8-0.7,5.2-0.9c2.8-0.5,4.2-0.8,4.2-0.8l-6.2-4L258,83l-5.6-3.7c0,0-0.6,0.1-1.6,0.3
				c-1.1,0.2-2.6,0.4-4.5,0.7c-3.7,0.6-8.8,1.3-14,1.9c-2.7,0.3-5.3,0.6-7.9,0.9c-2.5,0.3-5,0.4-7,0.6c-2.1,0.2-3.8,0.3-5,0.4
				c-1.2,0.1-1.9,0.1-1.9,0.1l2.6,4.2c0,0-1.3,0.1-3.9,0.3c-2.5,0.2-6.3,0.4-11.1,0.6c-9.6,0.4-23.6,0.7-40.2,0.2
				c-2.1-0.1-4.2-0.1-6.3-0.2c-2.1-0.1-4.3-0.2-6.5-0.4c-4.4-0.2-8.8-0.6-13.4-0.9c-9-0.8-18.3-1.8-27.3-3.1
				c-1.1-0.2-2.2-0.3-3.4-0.5c-1.1-0.2-2.2-0.4-3.3-0.6c-2.2-0.4-4.4-0.8-6.6-1.1c-4.2-0.9-8.5-1.6-12.4-2.6
				c-4.1-0.9-7.8-1.9-11.5-2.9c-1.8-0.5-3.5-1.1-5.3-1.6c-0.9-0.3-1.7-0.5-2.6-0.8l-2.4-0.8C44.4,69.6,35.4,64.7,29.6,60
				c-5.2-4.4-7.6-8.7-8.1-12.3c-0.4-3.4,0.5-6.2,1.6-8.1c0.1-0.2,0.2-0.5,0.3-0.7c0.1-0.2,0.3-0.4,0.4-0.6c0.2-0.4,0.4-0.7,0.6-0.9
				c0.2-0.2,0.3-0.4,0.4-0.6C24.9,36.8,24.9,36.7,24.9,36.7z"/>
			
				<linearGradient id="SVGID_20_" gradientUnits="userSpaceOnUse" x1="-558.8857" y1="-261.1909" x2="-94.8649" y2="-123.2386" gradientTransform="matrix(0.9214 -0.3885 0.3885 0.9214 550.9272 98.2797)">
				<stop  offset="0" style="stop-color:#58595B"/>
				<stop  offset="9.065685e-02" style="stop-color:#858587"/>
				<stop  offset="0.1938" style="stop-color:#B0B1B2"/>
				<stop  offset="0.2937" style="stop-color:#D2D3D3"/>
				<stop  offset="0.3879" style="stop-color:#EBEBEB"/>
				<stop  offset="0.4743" style="stop-color:#FAFAFA"/>
				<stop  offset="0.5455" style="stop-color:#FFFFFF"/>
				<stop  offset="1" style="stop-color:#58595B"/>
			</linearGradient>
			<path class="st23" d="M181.3,72.3c0,0-1.1,0-3.3,0c-1.1,0-2.4,0-3.9,0c-1.5,0-3.3,0-5.3-0.1c-7.9-0.1-19.1-0.5-31.9-1.7
				c-6.3-0.6-13-1.3-19.5-2.4c-6.5-1-13.1-2.2-19.2-3.7c-6-1.4-11.7-3-16.7-4.8c-4.9-1.7-9.2-3.6-12.8-5.6c-3.5-1.9-6.2-3.9-8.2-5.9
				c-1-1-1.7-1.9-2.5-2.9c-0.3-0.5-0.5-1-0.8-1.4c-0.3-0.5-0.4-0.9-0.6-1.4c-1.2-3.5-0.1-6.9,1.9-9.6c1.9-2.6,4.6-4.7,6.7-6
				c0.5-0.3,1-0.6,1.4-0.9c0.4-0.3,0.8-0.5,1.1-0.7c0.3-0.2,0.6-0.3,0.7-0.4c0.2-0.1,0.3-0.1,0.3-0.1l-20-0.9c0,0-0.1,0.1-0.3,0.2
				c-0.2,0.1-0.6,0.3-0.9,0.5c-0.4,0.2-0.9,0.5-1.4,0.8c-0.6,0.3-1.3,0.7-1.9,1.1c-2.9,1.6-6.7,4.1-9.7,7.2
				c-3.3,3.3-5.5,7.4-5.1,11.9c0.1,0.6,0.1,1.2,0.3,1.8c0.2,0.6,0.4,1.2,0.6,1.8c0.6,1.2,1.2,2.5,2.2,3.7c1.9,2.6,4.7,5.2,8.6,7.7
				c4,2.6,9,5.1,14.7,7.5c6,2.4,12.9,4.6,20.4,6.6c7.6,2,15.9,3.7,24.1,5.1c8.4,1.5,17,2.5,25.1,3.4c16.6,1.7,31.3,2.3,41.6,2.4
				c2.6,0,4.9,0.1,6.9,0.1c2,0,3.7,0,5.1,0c2.8,0,4.3,0,4.3,0L181.3,72.3z"/>
			
				<linearGradient id="SVGID_21_" gradientUnits="userSpaceOnUse" x1="-531.2061" y1="-246.8819" x2="-109.2968" y2="-121.4492" gradientTransform="matrix(0.9214 -0.3885 0.3885 0.9214 550.9272 98.2797)">
				<stop  offset="0" style="stop-color:#58595B"/>
				<stop  offset="9.065685e-02" style="stop-color:#858587"/>
				<stop  offset="0.1938" style="stop-color:#B0B1B2"/>
				<stop  offset="0.2937" style="stop-color:#D2D3D3"/>
				<stop  offset="0.3879" style="stop-color:#EBEBEB"/>
				<stop  offset="0.4743" style="stop-color:#FAFAFA"/>
				<stop  offset="0.5455" style="stop-color:#FFFFFF"/>
				<stop  offset="1" style="stop-color:#58595B"/>
			</linearGradient>
			<path class="st24" d="M254.6,13.2c0,0,0.4,0.1,1.1,0.2c0.4,0.1,0.8,0.2,1.3,0.3c0.5,0.1,1.1,0.2,1.8,0.4c0.6,0.2,1.4,0.3,2.1,0.5
				c0.4,0.1,0.8,0.2,1.2,0.3c0.4,0.1,0.8,0.2,1.3,0.3c0.4,0.1,0.9,0.2,1.4,0.4c0.5,0.1,1,0.3,1.4,0.4c1,0.3,2,0.6,3,0.9
				c4.2,1.3,8.8,2.8,13.1,4.7c4.5,1.9,8.6,4.1,11.9,6.4c0.5,0.3,0.8,0.6,1.2,0.9c0.4,0.3,0.8,0.6,1.2,0.9c0.3,0.3,0.7,0.6,1,0.9
				c0.3,0.3,0.7,0.6,1,0.9c0.5,0.6,1.2,1.3,1.6,1.9c0.2,0.3,0.5,0.6,0.7,1c0.2,0.3,0.4,0.6,0.5,1c1.5,2.6,1.7,5.1,1.3,7.2
				c-0.5,2.2-1.5,4.1-2.6,5.4c-0.3,0.3-0.5,0.6-0.7,0.9c-0.2,0.3-0.5,0.5-0.6,0.6c-0.3,0.4-0.5,0.5-0.5,0.5l-14.6-2.5
				c0,0-0.1,0.1-0.4,0.3c-0.2,0.2-0.5,0.5-1,0.8c-0.5,0.3-1,0.7-1.6,1.2c-0.6,0.4-1.4,0.9-2.1,1.3c-0.7,0.5-1.6,0.9-2.4,1.3
				c-0.8,0.4-1.5,0.8-2.2,1.1c-1.4,0.7-2.4,1.1-2.4,1.1l13.9,3.7c0,0-0.5,0.2-1.3,0.6c-0.8,0.3-1.8,0.8-2.9,1.3
				c-0.5,0.2-1.1,0.5-1.6,0.7c-0.5,0.2-1.1,0.4-1.5,0.6c-0.9,0.3-1.5,0.6-1.5,0.6L263.6,58c0,0-0.3,0.1-0.8,0.3
				c-0.6,0.2-1.3,0.4-2.3,0.7c-0.5,0.1-1,0.3-1.5,0.5c-0.3,0.1-0.6,0.2-0.8,0.3c-0.3,0.1-0.6,0.2-0.9,0.3c-1.3,0.4-2.7,0.7-4,1.1
				c-1.5,0.4-2.9,0.7-4.3,1c-0.3,0.1-0.7,0.2-1,0.2c-0.4,0.1-0.7,0.1-1,0.2c-0.7,0.1-1.3,0.3-1.9,0.4c-1.2,0.2-2.1,0.5-2.9,0.6
				c-0.7,0.1-1.1,0.2-1.1,0.2l10.2,5.4l4,2.1l10.7,5.6c0,0,0.3-0.1,0.8-0.2c0.5-0.1,1.3-0.3,2.3-0.5c1-0.2,2.2-0.5,3.6-0.9
				c0.7-0.2,1.5-0.4,2.3-0.6c0.8-0.2,1.6-0.4,2.4-0.7c6.8-1.8,15.8-4.6,23.9-8.5c1-0.5,2-0.9,3-1.4c1-0.5,1.8-1,2.7-1.5
				c1.9-1,3.4-2.1,5.1-3.2c2.9-2.2,5.5-4.5,7.3-7c1.6-2.4,2.6-4.8,2.7-7.3c0.2-2.4-0.5-4.8-1.8-7.1c-1.3-2.2-3.2-4.4-5.6-6.5
				c-2.3-2-5.2-3.9-8.3-5.6c-0.4-0.2-0.8-0.4-1.2-0.6l-0.6-0.3l-0.6-0.3c-0.8-0.4-1.6-0.8-2.4-1.2c-1.7-0.8-3.3-1.5-5-2.2
				c-1.6-0.7-3.4-1.3-5-2c-0.8-0.3-1.7-0.6-2.5-0.9c-0.4-0.1-0.8-0.3-1.2-0.4c-0.4-0.1-0.8-0.3-1.2-0.4c-6.4-2.1-12.4-3.6-16.7-4.6
				c-1.1-0.2-2-0.5-2.8-0.7c-0.8-0.2-1.6-0.3-2.1-0.5c-1.2-0.2-1.8-0.4-1.8-0.4L254.6,13.2z"/>
			
				<linearGradient id="SVGID_22_" gradientUnits="userSpaceOnUse" x1="-549.4802" y1="-296.5332" x2="-40.9081" y2="-145.3359" gradientTransform="matrix(0.9214 -0.3885 0.3885 0.9214 550.9272 98.2797)">
				<stop  offset="0" style="stop-color:#58595B"/>
				<stop  offset="9.065685e-02" style="stop-color:#858587"/>
				<stop  offset="0.1938" style="stop-color:#B0B1B2"/>
				<stop  offset="0.2937" style="stop-color:#D2D3D3"/>
				<stop  offset="0.3879" style="stop-color:#EBEBEB"/>
				<stop  offset="0.4743" style="stop-color:#FAFAFA"/>
				<stop  offset="0.5455" style="stop-color:#FFFFFF"/>
				<stop  offset="1" style="stop-color:#58595B"/>
			</linearGradient>
			<path class="st25" d="M30.3,31.5c0,0,0.2-0.1,0.4-0.4c0.3-0.2,0.8-0.6,1.3-0.9c0.3-0.2,0.6-0.4,0.9-0.6c0.2-0.1,0.3-0.2,0.5-0.3
				c0.2-0.1,0.4-0.2,0.5-0.3c0.7-0.5,1.5-1,2.3-1.5c0.9-0.5,1.7-1,2.5-1.4c0.8-0.4,1.6-0.8,2.3-1.2c0.7-0.3,1.2-0.6,1.6-0.8
				c0.4-0.2,0.7-0.3,0.7-0.3L32,23.1c0,0-0.3,0.1-0.8,0.3c-0.5,0.2-1.1,0.5-1.9,0.9c-0.8,0.4-1.7,0.8-2.6,1.3
				c-0.9,0.5-1.9,1-2.9,1.5c-0.9,0.5-1.8,1.1-2.7,1.6c-0.2,0.1-0.4,0.3-0.6,0.4c-0.2,0.1-0.4,0.2-0.6,0.4c-0.4,0.2-0.7,0.5-1,0.7
				c-0.6,0.4-1.2,0.8-1.5,1c-0.3,0.3-0.5,0.4-0.5,0.4L30.3,31.5z"/>
			
				<linearGradient id="SVGID_23_" gradientUnits="userSpaceOnUse" x1="-514.9062" y1="-296.4558" x2="-119.545" y2="-178.9157" gradientTransform="matrix(0.9214 -0.3885 0.3885 0.9214 550.9272 98.2797)">
				<stop  offset="0" style="stop-color:#58595B"/>
				<stop  offset="9.065685e-02" style="stop-color:#858587"/>
				<stop  offset="0.1938" style="stop-color:#B0B1B2"/>
				<stop  offset="0.2937" style="stop-color:#D2D3D3"/>
				<stop  offset="0.3879" style="stop-color:#EBEBEB"/>
				<stop  offset="0.4743" style="stop-color:#FAFAFA"/>
				<stop  offset="0.5455" style="stop-color:#FFFFFF"/>
				<stop  offset="1" style="stop-color:#58595B"/>
			</linearGradient>
			<path class="st26" d="M113.6,9.6c0,0,0.1,0,0.4-0.1c0.3,0,0.6-0.1,1.1-0.2c0.9-0.1,2.1-0.3,3.3-0.5c1.2-0.2,2.4-0.3,3.3-0.4
				c0.4-0.1,0.8-0.1,1.1-0.1c0.3,0,0.4-0.1,0.4-0.1l-4.3-1.7c0,0-0.2,0-0.4,0.1c-0.3,0-0.7,0.1-1.2,0.1c-1,0.1-2.3,0.3-3.6,0.5
				c-1.3,0.2-2.6,0.4-3.6,0.5c-0.5,0.1-0.9,0.1-1.2,0.2c-0.3,0-0.4,0.1-0.4,0.1L113.6,9.6z"/>
			
				<linearGradient id="SVGID_24_" gradientUnits="userSpaceOnUse" x1="-512.9301" y1="-295.9108" x2="-121.6144" y2="-179.5735" gradientTransform="matrix(0.9214 -0.3885 0.3885 0.9214 550.9272 98.2797)">
				<stop  offset="0" style="stop-color:#58595B"/>
				<stop  offset="9.065685e-02" style="stop-color:#858587"/>
				<stop  offset="0.1938" style="stop-color:#B0B1B2"/>
				<stop  offset="0.2937" style="stop-color:#D2D3D3"/>
				<stop  offset="0.3879" style="stop-color:#EBEBEB"/>
				<stop  offset="0.4743" style="stop-color:#FAFAFA"/>
				<stop  offset="0.5455" style="stop-color:#FFFFFF"/>
				<stop  offset="1" style="stop-color:#58595B"/>
			</linearGradient>
			<path class="st27" d="M139.2,6.6l-2.9-1.8c0,0-0.7,0.1-1.7,0.1c-0.5,0-1.1,0.1-1.7,0.1c-0.6,0.1-1.3,0.1-2,0.2
				c-1.3,0.1-2.7,0.2-3.7,0.3c-1,0.1-1.7,0.2-1.7,0.2l3.7,1.8c0,0,0.6-0.1,1.5-0.2c0.9-0.1,2.2-0.2,3.4-0.3c0.6-0.1,1.2-0.1,1.8-0.2
				c0.6-0.1,1.1-0.1,1.6-0.1C138.6,6.7,139.2,6.6,139.2,6.6z"/>
			
				<linearGradient id="SVGID_25_" gradientUnits="userSpaceOnUse" x1="-512.6817" y1="-295.165" x2="-121.9488" y2="-179.001" gradientTransform="matrix(0.9214 -0.3885 0.3885 0.9214 550.9272 98.2797)">
				<stop  offset="0" style="stop-color:#58595B"/>
				<stop  offset="9.065685e-02" style="stop-color:#858587"/>
				<stop  offset="0.1938" style="stop-color:#B0B1B2"/>
				<stop  offset="0.2937" style="stop-color:#D2D3D3"/>
				<stop  offset="0.3879" style="stop-color:#EBEBEB"/>
				<stop  offset="0.4743" style="stop-color:#FAFAFA"/>
				<stop  offset="0.5455" style="stop-color:#FFFFFF"/>
				<stop  offset="1" style="stop-color:#58595B"/>
			</linearGradient>
			<path class="st28" d="M155.7,5.6l-1.5-1.9c0,0-0.7,0-1.7,0.1c-1,0.1-2.4,0.1-3.7,0.2c-1.4,0.1-2.7,0.2-3.7,0.2
				c-1,0.1-1.7,0.1-1.7,0.1l2.3,1.8c0,0,0.6,0,1.6-0.1c0.9-0.1,2.2-0.1,3.4-0.2c1.3-0.1,2.5-0.1,3.5-0.2
				C155,5.7,155.7,5.6,155.7,5.6z"/>
			
				<linearGradient id="SVGID_26_" gradientUnits="userSpaceOnUse" x1="-513.0138" y1="-293.9215" x2="-122.3486" y2="-177.7776" gradientTransform="matrix(0.9214 -0.3885 0.3885 0.9214 550.9272 98.2797)">
				<stop  offset="0" style="stop-color:#58595B"/>
				<stop  offset="9.065685e-02" style="stop-color:#858587"/>
				<stop  offset="0.1938" style="stop-color:#B0B1B2"/>
				<stop  offset="0.2937" style="stop-color:#D2D3D3"/>
				<stop  offset="0.3879" style="stop-color:#EBEBEB"/>
				<stop  offset="0.4743" style="stop-color:#FAFAFA"/>
				<stop  offset="0.5455" style="stop-color:#FFFFFF"/>
				<stop  offset="1" style="stop-color:#58595B"/>
			</linearGradient>
			<path class="st29" d="M172.3,5.2L172,3.3c0,0-0.2,0-0.5,0c-0.3,0-0.7,0-1.2,0c-1,0-2.4,0-3.8,0c-1.4,0-2.7,0.1-3.8,0.1
				c-0.5,0-0.9,0-1.2,0c-0.3,0-0.5,0-0.5,0l1,1.9c0,0,0.2,0,0.4,0c0.3,0,0.7,0,1.1,0c1,0,2.2,0,3.5-0.1c1.3,0,2.5,0,3.5,0
				c0.5,0,0.9,0,1.2,0C172.1,5.2,172.3,5.2,172.3,5.2z"/>
			
				<linearGradient id="SVGID_27_" gradientUnits="userSpaceOnUse" x1="-532.2997" y1="-299.2133" x2="-83.9329" y2="-165.9148" gradientTransform="matrix(0.9214 -0.3885 0.3885 0.9214 550.9272 98.2797)">
				<stop  offset="0" style="stop-color:#58595B"/>
				<stop  offset="9.065685e-02" style="stop-color:#858587"/>
				<stop  offset="0.1938" style="stop-color:#B0B1B2"/>
				<stop  offset="0.2937" style="stop-color:#D2D3D3"/>
				<stop  offset="0.3879" style="stop-color:#EBEBEB"/>
				<stop  offset="0.4743" style="stop-color:#FAFAFA"/>
				<stop  offset="0.5455" style="stop-color:#FFFFFF"/>
				<stop  offset="1" style="stop-color:#58595B"/>
			</linearGradient>
			<path class="st30" d="M50,20.7c0,0,1-0.4,2.6-1c1.6-0.6,3.7-1.4,6-2.1c0.6-0.2,1.1-0.4,1.7-0.5c0.5-0.2,1.1-0.3,1.7-0.5
				c1.1-0.3,2.1-0.6,2.9-0.9c1.8-0.5,3-0.8,3-0.8l-8.2-1.1c0,0-1.3,0.4-3.3,0.9c-1,0.3-2.1,0.6-3.3,1c-0.6,0.2-1.2,0.4-1.9,0.5
				c-0.6,0.2-1.2,0.4-1.9,0.6c-2.6,0.8-4.9,1.6-6.7,2.3c-1.7,0.6-2.9,1.1-2.9,1.1L50,20.7z"/>
			
				<linearGradient id="SVGID_28_" gradientUnits="userSpaceOnUse" x1="-520.6355" y1="-300.0537" x2="-106.957" y2="-177.068" gradientTransform="matrix(0.9214 -0.3885 0.3885 0.9214 550.9272 98.2797)">
				<stop  offset="0" style="stop-color:#58595B"/>
				<stop  offset="9.065685e-02" style="stop-color:#858587"/>
				<stop  offset="0.1938" style="stop-color:#B0B1B2"/>
				<stop  offset="0.2937" style="stop-color:#D2D3D3"/>
				<stop  offset="0.3879" style="stop-color:#EBEBEB"/>
				<stop  offset="0.4743" style="stop-color:#FAFAFA"/>
				<stop  offset="0.5455" style="stop-color:#FFFFFF"/>
				<stop  offset="1" style="stop-color:#58595B"/>
			</linearGradient>
			<path class="st31" d="M68.8,11.4l7.4,1.3c0,0,0.3-0.1,0.8-0.2c0.5-0.1,1.3-0.3,2.3-0.5c0.9-0.2,2-0.5,3.2-0.7
				c1.2-0.2,2.5-0.5,3.8-0.8c0.6-0.1,1.3-0.3,1.9-0.4c0.6-0.1,1.3-0.2,1.9-0.4c0.6-0.1,1.2-0.2,1.7-0.3c0.6-0.1,1.1-0.2,1.6-0.3
				c2-0.3,3.3-0.6,3.3-0.6L91.2,7c0,0-1.4,0.2-3.5,0.6c-0.5,0.1-1.1,0.2-1.7,0.3C85.3,8,84.6,8.1,84,8.3c-0.7,0.1-1.3,0.2-2,0.4
				c-0.7,0.1-1.4,0.3-2.1,0.4c-1.4,0.3-2.8,0.6-4.1,0.8c-1.3,0.3-2.5,0.5-3.5,0.8c-1,0.2-1.9,0.4-2.5,0.6
				C69.1,11.3,68.8,11.4,68.8,11.4z"/>
		</g>
	</g>
	<g>
		<g>
			<g>
				<path class="st16" d="M144,58.9l0.1-0.1c0,0-0.8-0.1-2.3-0.2c-0.4,0-0.8-0.1-1.2-0.1c-0.5-0.1-0.9-0.1-1.5-0.2
					c-0.5-0.1-1.1-0.1-1.7-0.2c-0.3,0-0.6-0.1-0.9-0.1c-0.3,0-0.6-0.1-1-0.1c-0.7-0.1-1.4-0.2-2.1-0.3c-0.7-0.1-1.5-0.2-2.3-0.3
					c-0.8-0.1-1.6-0.2-2.4-0.4c-0.4-0.1-0.8-0.1-1.3-0.2c-0.4-0.1-0.8-0.2-1.3-0.2c-0.9-0.2-1.7-0.3-2.6-0.5
					c-0.5-0.1-0.9-0.2-1.3-0.3c-0.4-0.1-0.9-0.2-1.4-0.3c-0.5-0.1-0.9-0.2-1.4-0.3c-0.2,0-0.5-0.1-0.7-0.1c-0.2-0.1-0.5-0.1-0.7-0.2
					c-0.9-0.2-1.8-0.4-2.8-0.6c-0.5-0.1-0.9-0.2-1.4-0.3c-0.5-0.1-0.9-0.2-1.4-0.4c-0.5-0.1-0.9-0.2-1.4-0.4
					c-0.4-0.1-0.9-0.3-1.3-0.4c-0.4-0.1-0.9-0.3-1.3-0.4c-0.4-0.1-0.9-0.3-1.3-0.4c-0.9-0.3-1.7-0.6-2.6-0.9
					c-3.3-1.2-6.4-2.5-9.1-3.9c-2.6-1.4-4.8-2.9-6.3-4.5c-1.5-1.5-2.4-3.1-2.8-4.7c-0.3-1.5-0.1-3.1,0.6-4.6
					c0.7-1.4,1.9-2.8,3.4-4.1c1.5-1.3,3.3-2.5,5.3-3.5c2-1.1,4.1-2,6.2-2.8c0.5-0.2,1.1-0.4,1.6-0.6c0.2-0.1,0.5-0.2,0.8-0.3
					c0.3-0.1,0.5-0.2,0.8-0.3c1-0.4,2.1-0.7,3-1c0.5-0.2,1-0.3,1.4-0.4c0.5-0.1,0.9-0.3,1.3-0.4c0.1,0,0.2-0.1,0.3-0.1
					c0.1,0,0.2-0.1,0.3-0.1c0.2-0.1,0.4-0.1,0.6-0.2c0.4-0.1,0.8-0.2,1.2-0.3c0.2,0,0.4-0.1,0.5-0.1c0.2,0,0.4-0.1,0.5-0.1
					c0.3-0.1,0.7-0.2,1-0.2c0.6-0.1,1.1-0.3,1.5-0.4c0.9-0.2,1.3-0.3,1.3-0.3c0.5,0.1,1.1,0.1,1.7,0.1c0.3,0,0.6,0,0.9-0.1
					c0.3,0,0.6-0.1,0.9-0.1c1.2-0.3,1.5-0.6,0.6-0.9c-0.8-0.2-2.6-0.2-3.9,0.1c-0.3,0.1-0.6,0.1-0.8,0.2c-0.2,0.1-0.3,0.2-0.4,0.2
					c-0.1,0.2,0.1,0.3,0.5,0.4c0,0,0.1,0,0.1,0c0,0-0.5,0.1-1.3,0.3c-0.4,0.1-0.9,0.2-1.5,0.4c-0.3,0.1-0.6,0.2-1,0.2
					c-0.2,0-0.3,0.1-0.5,0.1c-0.2,0-0.4,0.1-0.5,0.1c-0.4,0.1-0.8,0.2-1.2,0.3c-0.2,0.1-0.4,0.1-0.6,0.2c-0.1,0-0.2,0.1-0.3,0.1
					c-0.1,0-0.2,0.1-0.3,0.1c-0.4,0.1-0.9,0.3-1.3,0.4c-0.5,0.1-1,0.3-1.4,0.4c-1,0.3-2,0.6-3,1c-0.3,0.1-0.5,0.2-0.8,0.3
					c-0.3,0.1-0.5,0.2-0.8,0.3c-0.5,0.2-1,0.4-1.6,0.6c-2.1,0.8-4.3,1.8-6.2,2.9c-2,1.1-3.8,2.3-5.3,3.5c-1.5,1.3-2.7,2.7-3.4,4.2
					c-0.7,1.5-0.9,3-0.6,4.6c0.3,1.6,1.3,3.2,2.8,4.7c1.5,1.6,3.7,3.1,6.3,4.5c2.7,1.4,5.8,2.8,9.1,4c0.9,0.3,1.7,0.6,2.6,0.9
					c0.4,0.1,0.9,0.3,1.3,0.4c0.5,0.1,0.9,0.3,1.4,0.4c0.5,0.1,0.9,0.3,1.3,0.4c0.5,0.1,0.9,0.2,1.4,0.4c0.5,0.1,0.9,0.2,1.4,0.4
					c0.5,0.1,0.9,0.2,1.4,0.3c0.9,0.2,1.9,0.4,2.8,0.6c0.2,0.1,0.5,0.1,0.7,0.2c0.2,0.1,0.5,0.1,0.7,0.1c0.5,0.1,0.9,0.2,1.4,0.3
					c0.5,0.1,0.9,0.2,1.4,0.3c0.4,0.1,0.9,0.2,1.3,0.3c0.9,0.2,1.8,0.3,2.6,0.5c0.4,0.1,0.9,0.2,1.3,0.2c0.4,0.1,0.9,0.1,1.3,0.2
					c0.8,0.1,1.6,0.3,2.4,0.4c0.8,0.1,1.5,0.2,2.3,0.3c0.7,0.1,1.4,0.2,2.1,0.3c0.3,0,0.7,0.1,1,0.1c0.3,0,0.6,0.1,0.9,0.1
					c0.6,0.1,1.2,0.1,1.7,0.2c0.5,0.1,1,0.1,1.5,0.2c0.5,0.1,0.9,0.1,1.3,0.1C143.2,58.8,144,58.9,144,58.9z"/>
			</g>
			<g>
				<path class="st16" d="M252.1,25.5l-0.2,0c0,0,0.3,0.2,0.8,0.4c0.2,0.1,0.5,0.3,0.9,0.5c0.2,0.1,0.4,0.2,0.6,0.4
					c0.2,0.1,0.4,0.3,0.6,0.4c1.7,1.2,3.9,2.9,5.2,5.1c0.2,0.3,0.3,0.6,0.5,0.8c0.1,0.1,0.1,0.3,0.2,0.4c0.1,0.1,0.1,0.3,0.2,0.5
					c0.1,0.2,0.1,0.3,0.2,0.5c0,0.2,0.1,0.3,0.1,0.5c0.1,0.3,0.1,0.6,0.1,1c0,0.2,0,0.3,0,0.5c0,0.2,0,0.3,0,0.5
					c-0.1,0.3-0.1,0.7-0.2,1c-0.1,0.4-0.3,0.7-0.4,1.1c0,0.1-0.1,0.2-0.1,0.3c-0.1,0.1-0.1,0.2-0.2,0.3c-0.1,0.2-0.2,0.4-0.3,0.6
					c-0.9,1.5-2.5,3-4.6,4.6c-2.2,1.6-5.1,3.1-8.5,4.5c-3.5,1.5-7.7,2.9-12.3,4.1c-4.7,1.2-9.8,2.3-15.2,3.2
					c-5.4,0.9-11.1,1.6-16.6,2.2c-1.4,0.1-2.8,0.3-4.2,0.4c-1.4,0.1-2.8,0.2-4.1,0.3c-0.7,0-1.3,0.1-2,0.1c-0.7,0-1.3,0.1-2,0.1
					c-0.7,0-1.3,0.1-2,0.1c-0.3,0-0.7,0-1,0c-0.3,0-0.6,0-1,0c-1.3,0-2.5,0.1-3.8,0.1c-1.2,0-2.5,0.1-3.6,0.1c-0.6,0-1.2,0-1.8,0
					c-0.6,0-1.1,0-1.7,0c-1.1,0-2.2,0-3.3,0c-1.1,0-2.1,0-3.1,0c-0.5,0-1,0-1.5,0c-0.5,0-0.9,0-1.4,0c-1.8-0.1-3.5-0.1-5-0.1
					c-1.5-0.1-2.8-0.1-4-0.2c-0.3,0-0.6,0-0.8,0c-0.3,0-0.5,0-0.8,0c-0.5,0-0.9-0.1-1.3-0.1c-1.6-0.1-2.4-0.1-2.4-0.1
					c0.1-0.6-1.1-1.2-3-1.4c-0.5,0-1.1,0-1.6,0c-0.5,0-1,0.1-1.5,0.2c-0.9,0.2-1.7,0.4-2.1,0.8c-0.4,0.3-0.3,0.7,0.3,1
					c0.3,0.2,0.6,0.3,1,0.4c0.4,0.1,1,0.2,1.5,0.2c1.2,0.1,2.4,0,3.3-0.1c0.5-0.1,0.9-0.2,1.2-0.3c0.3-0.1,0.6-0.3,0.7-0.5
					c0,0,0-0.1,0.1-0.1c0,0,0.8,0.1,2.4,0.1c0.4,0,0.8,0.1,1.3,0.1c0.2,0,0.5,0,0.8,0c0.3,0,0.5,0,0.8,0c1.2,0.1,2.5,0.1,4,0.2
					c1.5,0.1,3.2,0.1,5,0.1c0.5,0,0.9,0,1.4,0c0.5,0,1,0,1.5,0c1,0,2,0,3.1,0c1.1,0,2.2,0,3.3,0c0.6,0,1.1,0,1.7,0
					c0.6,0,1.2,0,1.8,0c1.2,0,2.4-0.1,3.6-0.1c1.2,0,2.5-0.1,3.8-0.1c0.3,0,0.6,0,1,0c0.3,0,0.7,0,1,0c0.6,0,1.3-0.1,2-0.1
					c1.3-0.1,2.7-0.1,4-0.2c1.4-0.1,2.7-0.2,4.1-0.3c1.4-0.1,2.8-0.2,4.2-0.4c5.6-0.5,11.2-1.3,16.6-2.2c5.4-0.9,10.5-2,15.3-3.2
					c4.6-1.2,8.7-2.6,12.3-4.1c3.5-1.4,6.3-3,8.5-4.5c2.2-1.5,3.7-3.1,4.6-4.6c0.1-0.2,0.2-0.4,0.3-0.6c0.1-0.1,0.1-0.2,0.2-0.3
					c0.1-0.1,0.1-0.2,0.1-0.3c0.1-0.4,0.3-0.7,0.4-1.1c0.1-0.4,0.1-0.7,0.2-1c0-0.2,0-0.3,0-0.5c0-0.2,0-0.3,0-0.5
					c0-0.3-0.1-0.7-0.1-1c0-0.2-0.1-0.3-0.1-0.5c0-0.2-0.1-0.3-0.2-0.5c-0.1-0.2-0.1-0.3-0.2-0.5c-0.1-0.1-0.1-0.3-0.2-0.4
					c-0.2-0.3-0.3-0.6-0.5-0.9c-1.3-2.2-3.5-3.9-5.2-5.1c-0.2-0.1-0.4-0.3-0.6-0.4c-0.2-0.1-0.4-0.2-0.6-0.4
					c-0.4-0.2-0.7-0.4-0.9-0.6C252.4,25.7,252.1,25.5,252.1,25.5z"/>
			</g>
			<g>
				<path class="st16" d="M122.4,16.9l0.1,0c0,0,0.5-0.1,1.4-0.3c0.4-0.1,1-0.2,1.6-0.3c0.7-0.1,1.4-0.2,2.3-0.4
					c0.2,0,0.4-0.1,0.7-0.1c0.1,0,0.2,0,0.3-0.1c0.1,0,0.2,0,0.4-0.1c0.5-0.1,1-0.2,1.5-0.2c0.3,0,0.5-0.1,0.8-0.1
					c0.3,0,0.5-0.1,0.8-0.1c0.6-0.1,1.2-0.2,1.8-0.3c0.3,0,0.6-0.1,0.9-0.1c0.3,0,0.6-0.1,1-0.1c0.7-0.1,1.3-0.2,2-0.3
					c0.3,0,0.7-0.1,1.1-0.1c0.4,0,0.7-0.1,1.1-0.1c0.4,0,0.7-0.1,1.1-0.1c0.2,0,0.4,0,0.6-0.1c0.2,0,0.4,0,0.6-0.1
					c0.8-0.1,1.6-0.2,2.4-0.2c0.8-0.1,1.7-0.2,2.5-0.2c0.2,0,0.4,0,0.6-0.1c0.2,0,0.4,0,0.7-0.1c0.4,0,0.9-0.1,1.3-0.1
					c0.4,0,0.9-0.1,1.3-0.1c0.5,0,0.9-0.1,1.4-0.1c3.7-0.3,7.6-0.5,11.7-0.6c4.1-0.1,8.4-0.2,12.7-0.1c4.3,0,8.7,0.2,13,0.4
					c4.3,0.2,8.6,0.5,12.7,0.9c4.2,0.4,8.1,0.9,11.9,1.4c0.5,0.1,0.9,0.1,1.4,0.2c0.2,0,0.5,0.1,0.7,0.1l0.3,0.1l0.3,0.1
					c0.9,0.1,1.8,0.3,2.7,0.4c0.9,0.2,1.7,0.3,2.6,0.5c0.2,0,0.4,0.1,0.6,0.1c0.2,0,0.4,0.1,0.6,0.1c0.4,0.1,0.8,0.2,1.2,0.2
					c0.4,0.1,0.8,0.2,1.2,0.2c0.4,0.1,0.8,0.2,1.1,0.2c0.4,0.1,0.8,0.2,1.1,0.2c0.4,0.1,0.8,0.2,1.1,0.2c0.7,0.2,1.4,0.3,2.1,0.5
					c0.4,0.1,0.7,0.2,1,0.3c0.3,0.1,0.7,0.2,1,0.3c0.3,0.1,0.6,0.2,1,0.2c0.3,0.1,0.6,0.2,0.9,0.2c0.6,0.2,1.2,0.3,1.8,0.5
					c0.6,0.2,1.1,0.3,1.6,0.5c0.5,0.2,1,0.3,1.5,0.5c1.9,0.6,3.5,1.2,4.7,1.7c0.6,0.2,1.1,0.5,1.6,0.7c0.5,0.2,0.8,0.4,1.1,0.5
					c0.6,0.3,0.9,0.4,0.9,0.4c-1,0.2-1.4,0.5-0.6,0.9c0.2,0.1,0.5,0.2,0.8,0.3c0.3,0.1,0.6,0.1,1,0.2c0.7,0.1,1.5,0.1,2.2,0.1
					c0.7,0,1.2-0.2,1.4-0.4c0.1-0.1,0.1-0.2,0.1-0.3c0-0.1-0.2-0.2-0.4-0.3c-0.4-0.2-1.1-0.4-1.8-0.5c-0.7-0.1-1.5-0.1-2.2-0.1
					c-0.1,0-0.1,0-0.2,0c0,0-0.3-0.1-1-0.4c-0.3-0.1-0.7-0.3-1.1-0.5c-0.5-0.2-1-0.4-1.6-0.7c-1.2-0.5-2.8-1-4.7-1.7
					c-0.1,0-0.2-0.1-0.4-0.1c-0.1,0-0.2-0.1-0.4-0.1c-0.3-0.1-0.5-0.2-0.8-0.2c-0.5-0.2-1-0.3-1.6-0.5c-0.6-0.2-1.2-0.3-1.8-0.5
					c-0.1,0-0.3-0.1-0.4-0.1c-0.1,0-0.3-0.1-0.5-0.1c-0.3-0.1-0.6-0.2-1-0.2c-0.3-0.1-0.7-0.2-1-0.3c-0.3-0.1-0.7-0.2-1-0.3
					c-0.7-0.2-1.4-0.3-2.1-0.5c-0.3-0.1-0.7-0.2-1.1-0.2c-0.4-0.1-0.8-0.2-1.1-0.2c-0.4-0.1-0.8-0.2-1.2-0.2
					c-0.4-0.1-0.8-0.2-1.2-0.2c-0.4-0.1-0.8-0.2-1.2-0.2c-0.2,0-0.4-0.1-0.6-0.1c-0.2,0-0.4-0.1-0.6-0.1c-0.8-0.2-1.7-0.3-2.6-0.5
					c-0.9-0.1-1.8-0.3-2.7-0.4l-0.3-0.1l-0.3-0.1c-0.2,0-0.5-0.1-0.7-0.1c-0.5-0.1-0.9-0.1-1.4-0.2c-3.7-0.5-7.7-1-11.9-1.4
					c-4.1-0.4-8.4-0.7-12.8-0.9c-4.3-0.2-8.7-0.4-13-0.4c-4.3,0-8.6,0-12.7,0.1c-4.1,0.1-8.1,0.3-11.7,0.6c-0.5,0-0.9,0.1-1.4,0.1
					c-0.5,0-0.9,0.1-1.3,0.1c-0.4,0-0.9,0.1-1.3,0.1c-0.2,0-0.4,0-0.7,0.1c-0.2,0-0.4,0-0.6,0.1c-0.9,0.1-1.7,0.2-2.5,0.2
					c-0.8,0.1-1.6,0.2-2.4,0.2c-0.2,0-0.4,0-0.6,0.1l-0.3,0l-0.3,0c-0.4,0-0.8,0.1-1.1,0.1c-0.4,0-0.7,0.1-1.1,0.1
					c-0.4,0-0.7,0.1-1.1,0.1c-0.7,0.1-1.4,0.2-2,0.3c-0.3,0-0.7,0.1-1,0.1c-0.3,0-0.6,0.1-0.9,0.1c-0.6,0.1-1.2,0.2-1.8,0.3
					c-0.3,0-0.6,0.1-0.8,0.1c-0.3,0-0.5,0.1-0.8,0.1c-0.5,0.1-1,0.2-1.5,0.2c-0.1,0-0.2,0-0.4,0.1c-0.1,0-0.2,0-0.3,0.1
					c-0.2,0-0.4,0.1-0.7,0.1c-0.8,0.1-1.6,0.3-2.3,0.4c-0.6,0.1-1.2,0.2-1.6,0.3C122.9,16.8,122.4,16.9,122.4,16.9z"/>
			</g>
		</g>
		<g class="st17">
			<g>
				<path class="st16" d="M71.8,45.8l0.3-0.1c0,0-0.2-0.2-0.7-0.7c-0.1-0.1-0.2-0.2-0.3-0.4c-0.1-0.1-0.2-0.3-0.3-0.5
					c-0.1-0.2-0.3-0.3-0.4-0.5c-0.1-0.1-0.1-0.2-0.2-0.3c-0.1-0.1-0.1-0.2-0.2-0.3c-0.1-0.2-0.2-0.4-0.4-0.7
					c-0.1-0.2-0.3-0.5-0.3-0.7c-0.1-0.3-0.2-0.5-0.3-0.8c0-0.1-0.1-0.3-0.1-0.4c0-0.1,0-0.3-0.1-0.4c0-0.3-0.1-0.6-0.1-0.9
					c0-0.2,0-0.3,0-0.5c0-0.2,0-0.3,0-0.5c0-0.2,0-0.3,0-0.5c0-0.1,0-0.2,0-0.2c0-0.1,0-0.2,0.1-0.3c0.1-0.3,0.1-0.7,0.2-1
					c0-0.2,0.1-0.4,0.2-0.5c0.1-0.2,0.1-0.4,0.2-0.5c0.1-0.2,0.1-0.4,0.2-0.5c0.1-0.2,0.2-0.4,0.3-0.5c0.1-0.2,0.2-0.4,0.3-0.5
					c0.1-0.2,0.2-0.4,0.4-0.6c0.3-0.4,0.6-0.7,0.9-1.1c1.3-1.5,3-3,5.3-4.5c2.2-1.5,4.8-2.9,8-4.3c3.1-1.3,6.5-2.6,10.4-3.8
					c3.7-1.2,7.8-2.2,12-3.2c4.1-0.9,8.4-1.8,12.7-2.5c4.2-0.7,8.5-1.3,12.6-1.8c4.1-0.5,8.1-0.9,11.8-1.2c0.9-0.1,1.8-0.1,2.7-0.2
					c0.4,0,0.9-0.1,1.3-0.1c0.4,0,0.9-0.1,1.3-0.1c1.7-0.1,3.3-0.2,4.8-0.3c0.8,0,1.5-0.1,2.2-0.1c0.7,0,1.4-0.1,2.1-0.1
					c0.2,0,0.3,0,0.5,0c0.2,0,0.3,0,0.5,0c0.3,0,0.6,0,0.9,0c0.6,0,1.2,0,1.7-0.1c0.3,0,0.5,0,0.8,0c0.3,0,0.5,0,0.8,0
					c0.5,0,1,0,1.4,0c0.9,0,1.6,0,2.2-0.1c1.2,0,1.8,0,1.8,0c0.2,0.1,0.6,0.3,1.1,0.3c0.3,0,0.6,0.1,0.9,0.1c0.3,0,0.7,0,1.1,0
					c1.7,0,3-0.3,3-0.6c0-0.3-1.4-0.6-3.2-0.6c-0.4,0-0.9,0-1.2,0.1c-0.4,0-0.7,0.1-1,0.1c-0.6,0.1-0.9,0.3-0.8,0.4c0,0,0,0,0,0
					c0,0-0.6,0-1.8,0c-0.6,0-1.3,0-2.2,0.1c-0.4,0-0.9,0-1.4,0c-0.2,0-0.5,0-0.8,0c-0.3,0-0.5,0-0.8,0c-0.6,0-1.1,0-1.7,0.1
					c-0.3,0-0.6,0-0.9,0c-0.2,0-0.3,0-0.5,0c-0.2,0-0.3,0-0.5,0c-0.7,0-1.4,0.1-2.1,0.1c-0.7,0-1.5,0.1-2.2,0.1
					c-1.5,0.1-3.2,0.2-4.9,0.3c-0.4,0-0.9,0.1-1.3,0.1c-0.4,0-0.9,0.1-1.3,0.1c-0.9,0.1-1.8,0.1-2.7,0.2c-3.7,0.3-7.7,0.7-11.8,1.2
					c-4.1,0.5-8.4,1.1-12.7,1.8c-4.3,0.7-8.6,1.6-12.8,2.5c-4.2,1-8.3,2-12,3.2c-3.8,1.2-7.3,2.5-10.4,3.8c-3.2,1.4-5.9,2.8-8,4.3
					c-2.3,1.5-4,3-5.3,4.5c-0.3,0.4-0.6,0.7-0.9,1.1c-0.2,0.2-0.3,0.4-0.4,0.6c-0.1,0.2-0.2,0.4-0.3,0.6c-0.1,0.2-0.2,0.4-0.3,0.5
					c-0.1,0.2-0.1,0.4-0.2,0.5c-0.1,0.2-0.1,0.4-0.2,0.5c-0.1,0.2-0.2,0.4-0.2,0.5c-0.1,0.3-0.2,0.7-0.2,1c0,0.1,0,0.2-0.1,0.3
					c0,0.1,0,0.2,0,0.2c0,0.2,0,0.3,0,0.5c0,0.2,0,0.3,0,0.5c0,0.2,0,0.3,0,0.5c0,0.3,0.1,0.6,0.1,0.9c0,0.1,0,0.3,0.1,0.4
					c0.1,0.1,0.1,0.3,0.1,0.4c0.1,0.3,0.2,0.5,0.3,0.8c0.1,0.3,0.2,0.5,0.3,0.7c0.1,0.2,0.2,0.5,0.4,0.7c0.1,0.1,0.1,0.2,0.2,0.3
					c0.1,0.1,0.1,0.2,0.2,0.3c0.1,0.2,0.3,0.4,0.4,0.5c0.1,0.2,0.2,0.3,0.3,0.5c0.1,0.1,0.2,0.3,0.3,0.4
					C71.5,45.5,71.8,45.8,71.8,45.8z"/>
			</g>
			<g>
				<path class="st16" d="M276.3,46.4l-0.3-0.1c0,0-0.3,0.2-0.8,0.7c-0.3,0.2-0.6,0.5-1.1,0.8c-0.2,0.2-0.4,0.3-0.7,0.5
					c-0.2,0.2-0.6,0.4-0.9,0.6c-2.5,1.7-6.8,4.2-13.9,6.8c-0.9,0.3-1.9,0.7-2.9,1c-0.5,0.2-1,0.3-1.6,0.5c-0.5,0.2-1.1,0.3-1.6,0.5
					c-0.6,0.2-1.1,0.3-1.7,0.5c-0.6,0.2-1.2,0.3-1.8,0.5c-1.2,0.3-2.4,0.7-3.8,1c-0.7,0.2-1.3,0.3-2,0.5c-0.7,0.2-1.4,0.3-2.1,0.5
					c-1.5,0.3-2.9,0.6-4.4,1c-1.6,0.3-3.2,0.6-4.8,0.9c-0.4,0.1-0.8,0.1-1.2,0.2c-0.4,0.1-0.8,0.1-1.3,0.2c-0.8,0.1-1.7,0.3-2.6,0.4
					c-7,1.1-14.8,2-23,2.7c-8.3,0.7-17,1.1-25.8,1.1c-8.8,0.1-17.6-0.1-26-0.6c-8.4-0.5-16.4-1.3-23.7-2.2c-7.2-1-13.7-2.1-19.5-3.3
					c-1.4-0.3-2.8-0.6-4.1-0.9c-1.3-0.3-2.5-0.6-3.8-1c-0.6-0.2-1.2-0.3-1.8-0.5c-0.6-0.2-1.1-0.3-1.7-0.5c-0.6-0.2-1.1-0.3-1.6-0.5
					c-0.3-0.1-0.5-0.2-0.8-0.2c-0.3-0.1-0.5-0.2-0.7-0.2c-1-0.3-1.9-0.6-2.9-0.9c-0.9-0.3-1.7-0.6-2.5-0.9c-0.4-0.2-0.8-0.3-1.2-0.4
					c-0.4-0.2-0.7-0.3-1.1-0.5c-0.7-0.3-1.4-0.6-2.1-0.9c-0.6-0.3-1.2-0.6-1.8-0.8c-0.3-0.1-0.6-0.3-0.8-0.4
					c-0.3-0.1-0.5-0.2-0.8-0.4c-0.9-0.5-1.8-1-2.5-1.4c-0.7-0.4-1.3-0.8-1.8-1.1c-0.1-0.1-0.3-0.2-0.4-0.2c-0.1-0.1-0.2-0.2-0.3-0.2
					c-0.2-0.1-0.4-0.3-0.5-0.4c-0.6-0.5-1-0.7-1-0.7c1.8-0.4,2.7-1.2,2-1.7c-0.2-0.2-0.5-0.3-0.9-0.4c-0.4-0.1-0.8-0.2-1.3-0.2
					c-0.9-0.1-2.1-0.1-3.2,0.1c-1.1,0.2-2.1,0.5-2.6,0.8c-0.3,0.2-0.5,0.4-0.5,0.5c0,0.2,0,0.4,0.2,0.5c0.4,0.3,1.2,0.6,2.2,0.7
					c0.5,0,1.1,0.1,1.6,0c0.6,0,1.2-0.1,1.7-0.2c0.1,0,0.2,0,0.3-0.1c0,0,0.3,0.2,1,0.7c0.2,0.1,0.3,0.2,0.5,0.4
					c0.1,0.1,0.2,0.1,0.3,0.2c0.1,0.1,0.2,0.2,0.4,0.2c0.5,0.3,1.1,0.7,1.8,1.1c0.7,0.4,1.6,0.9,2.6,1.4c0.2,0.1,0.5,0.3,0.8,0.4
					c0.3,0.1,0.5,0.3,0.8,0.4c0.6,0.3,1.2,0.5,1.8,0.8c0.7,0.3,1.4,0.6,2.1,0.9c0.4,0.1,0.7,0.3,1.1,0.5c0.4,0.2,0.8,0.3,1.2,0.4
					c0.8,0.3,1.7,0.6,2.6,0.9c0.9,0.3,1.9,0.6,2.9,0.9c0.2,0.1,0.5,0.2,0.7,0.2c0.2,0.1,0.5,0.2,0.8,0.2c0.5,0.2,1.1,0.3,1.6,0.5
					c1.1,0.3,2.2,0.7,3.5,1c1.2,0.3,2.5,0.6,3.8,1c1.3,0.3,2.7,0.6,4.1,0.9c5.8,1.2,12.3,2.4,19.5,3.3c7.3,1,15.4,1.7,23.8,2.2
					c8.5,0.5,17.3,0.7,26.1,0.6c8.8-0.1,17.6-0.5,25.9-1.2c8.2-0.7,16-1.6,23-2.7c0.9-0.1,1.7-0.3,2.6-0.4c0.4-0.1,0.9-0.1,1.3-0.2
					c0.4-0.1,0.8-0.1,1.2-0.2c1.6-0.3,3.2-0.6,4.8-0.9c1.5-0.3,3-0.6,4.5-1c0.7-0.2,1.4-0.3,2.1-0.5c0.7-0.2,1.4-0.3,2-0.5
					c1.4-0.3,2.6-0.7,3.8-1c0.6-0.2,1.2-0.3,1.8-0.5c0.6-0.2,1.1-0.3,1.7-0.5c0.6-0.2,1.1-0.3,1.6-0.5c0.5-0.2,1.1-0.3,1.6-0.5
					c1-0.3,2-0.7,2.9-1c7.1-2.6,11.5-5.1,14-6.8c0.3-0.2,0.6-0.4,0.9-0.6c0.2-0.2,0.5-0.4,0.7-0.5c0.4-0.3,0.8-0.6,1.1-0.8
					C276.1,46.6,276.3,46.4,276.3,46.4z"/>
			</g>
			<g>
				<path class="st16" d="M175.3,9.2L175.3,9.2c0,0,0.6,0.1,1.8,0.1c0.6,0,1.3,0,2.2,0c0.9,0,1.8,0,3,0.1c0.3,0,0.6,0,0.9,0
					c0.1,0,0.3,0,0.4,0c0.1,0,0.3,0,0.5,0c0.6,0,1.2,0,1.9,0.1c0.3,0,0.7,0,1,0c0.3,0,0.7,0,1.1,0c0.7,0,1.5,0.1,2.2,0.1
					c0.4,0,0.8,0,1.2,0c0.4,0,0.8,0,1.2,0.1c0.8,0,1.6,0.1,2.5,0.1c0.4,0,0.9,0,1.3,0.1c0.4,0,0.9,0.1,1.3,0.1
					c0.4,0,0.9,0.1,1.4,0.1c0.2,0,0.5,0,0.7,0c0.2,0,0.5,0,0.7,0c0.9,0.1,1.9,0.1,2.8,0.2c1,0.1,1.9,0.2,2.9,0.2
					c0.2,0,0.5,0,0.8,0.1c0.3,0,0.5,0,0.7,0.1c0.5,0,1,0.1,1.5,0.1c0.5,0,1,0.1,1.5,0.1c0.5,0.1,1,0.1,1.5,0.2
					c4.2,0.4,8.5,1,12.8,1.6c4.4,0.7,8.8,1.4,13,2.3c4.3,0.9,8.5,1.9,12.3,3c4,1.1,7.6,2.3,10.9,3.6c3.3,1.3,6.2,2.7,8.6,4.1
					c0.3,0.2,0.6,0.4,0.9,0.5c0.1,0.1,0.3,0.2,0.4,0.3l0.2,0.1l0.2,0.1c0.5,0.4,1.1,0.7,1.6,1.1c0.5,0.4,0.9,0.7,1.4,1.1
					c0.1,0.1,0.2,0.2,0.3,0.3c0.1,0.1,0.2,0.2,0.3,0.3c0.2,0.2,0.4,0.4,0.6,0.5c0.2,0.2,0.4,0.4,0.6,0.5c0.2,0.2,0.3,0.4,0.5,0.5
					c0.2,0.2,0.3,0.4,0.5,0.5c0.2,0.2,0.3,0.4,0.4,0.5c0.2,0.4,0.5,0.7,0.7,1.1c0.1,0.2,0.2,0.3,0.3,0.5c0.1,0.2,0.2,0.3,0.3,0.5
					c0.1,0.2,0.2,0.3,0.3,0.5c0.1,0.2,0.1,0.3,0.2,0.5c0.1,0.3,0.2,0.7,0.3,1c0.1,0.3,0.1,0.6,0.1,0.9c0,0.3,0.1,0.6,0.1,0.9
					c0,1.2-0.3,2.2-0.6,3c-0.2,0.4-0.4,0.8-0.5,1.1c-0.2,0.3-0.4,0.6-0.5,0.8c-0.3,0.5-0.5,0.7-0.5,0.7c-2-0.2-3.9,0.1-4.4,0.7
					c-0.2,0.2-0.1,0.3-0.1,0.5c0.1,0.2,0.2,0.3,0.5,0.5c0.5,0.3,1.4,0.6,2.5,0.8c1.1,0.2,2.3,0.2,3.3,0.1c0.5-0.1,0.9-0.1,1.3-0.3
					c0.4-0.1,0.6-0.3,0.7-0.4c0.3-0.4,0.1-0.7-0.5-1.1c-0.6-0.3-1.5-0.6-2.7-0.7c-0.1,0-0.2,0-0.3,0c0,0,0.2-0.2,0.5-0.7
					c0.1-0.2,0.3-0.5,0.5-0.8c0.1-0.3,0.3-0.7,0.5-1.1c0.3-0.8,0.6-1.9,0.6-3.1c0-0.1,0-0.1,0-0.2c0-0.1,0-0.1,0-0.2
					c0-0.2,0-0.3-0.1-0.5c0-0.3-0.1-0.6-0.1-0.9c-0.1-0.3-0.2-0.6-0.3-1c0-0.1-0.1-0.2-0.1-0.2c0-0.1-0.1-0.2-0.1-0.3
					c-0.1-0.2-0.2-0.3-0.3-0.5c-0.1-0.2-0.2-0.3-0.3-0.5c-0.1-0.2-0.2-0.3-0.3-0.5c-0.2-0.3-0.5-0.7-0.7-1.1
					c-0.1-0.2-0.3-0.4-0.4-0.5c-0.2-0.2-0.3-0.4-0.5-0.5c-0.2-0.2-0.3-0.4-0.5-0.5c-0.2-0.2-0.4-0.4-0.6-0.5
					c-0.2-0.2-0.4-0.4-0.6-0.5c-0.1-0.1-0.2-0.2-0.3-0.3c-0.1-0.1-0.2-0.2-0.3-0.3c-0.5-0.4-0.9-0.7-1.4-1.1
					c-0.5-0.4-1.1-0.7-1.6-1.1l-0.2-0.1l-0.2-0.1c-0.2-0.1-0.3-0.2-0.5-0.3c-0.3-0.2-0.6-0.4-0.9-0.5c-2.4-1.4-5.3-2.8-8.7-4.1
					c-3.3-1.3-6.9-2.5-10.9-3.6c-3.9-1.1-8.1-2.1-12.4-3c-4.2-0.9-8.6-1.6-13-2.3c-4.3-0.7-8.7-1.2-12.9-1.6c-0.5-0.1-1-0.1-1.5-0.2
					c-0.5,0-1-0.1-1.5-0.1c-0.5,0-1-0.1-1.5-0.1c-0.3,0-0.5,0-0.7-0.1c-0.3,0-0.5,0-0.8-0.1c-1-0.1-2-0.2-2.9-0.2
					c-1-0.1-1.9-0.1-2.9-0.2c-0.2,0-0.5,0-0.7,0l-0.3,0l-0.3,0c-0.5,0-0.9-0.1-1.4-0.1c-0.4,0-0.9-0.1-1.3-0.1
					c-0.4,0-0.9-0.1-1.3-0.1c-0.9,0-1.7-0.1-2.5-0.1c-0.4,0-0.8,0-1.2-0.1c-0.4,0-0.8,0-1.2,0c-0.8,0-1.5-0.1-2.2-0.1
					c-0.4,0-0.7,0-1.1,0c-0.3,0-0.7,0-1,0c-0.7,0-1.3,0-1.9-0.1c-0.2,0-0.3,0-0.4,0c-0.1,0-0.3,0-0.4,0c-0.3,0-0.6,0-0.9,0
					c-1.1,0-2.1,0-3-0.1c-0.9,0-1.6,0-2.2,0C176,9.2,175.3,9.2,175.3,9.2z"/>
			</g>
		</g>
	</g>
</g>
</svg>
