<?xml version="1.0" encoding="utf-8"?>
<!-- Generator: Adobe Illustrator 19.1.0, SVG Export Plug-In . SVG Version: 6.00 Build 0)  -->
<svg version="1.1" id="Layer_1" xmlns="http://www.w3.org/2000/svg" xmlns:xlink="http://www.w3.org/1999/xlink" x="0px" y="0px"
	 viewBox="0 0 587.8 139.3" style="enable-background:new 0 0 587.8 139.3;" xml:space="preserve">
<style type="text/css">
	.st0{fill:#2AAAE2;}
	.st1{fill:#24B574;}
	.st2{fill:#FFFFFF;}
	.st3{fill:#FAFAFA;}
	.st4{fill:#F7F7F7;}
	.st5{opacity:0.1;fill:#F2F2F2;}
	.st6{opacity:0.1;}
	.st7{fill:#F2F2F2;}
	.st8{fill:#F5F5F5;}
	.st9{fill:#F0F0F0;}
	.st10{opacity:0.1;fill:#F5F5F5;}
</style>
<g>
	<g>
		<g>
			<g>
				<path class="st2" d="M0,136.3c2.1,1.2,3.2,1.8,5.3,3c0.3-0.4,0.5-0.6,0.8-1.1c-2.1-1.2-3.2-1.8-5.3-3
					C0.5,135.7,0.3,135.9,0,136.3z"/>
				<path class="st2" d="M4.5,134.6c1.3,0.7,1.9,1.1,3.1,1.8c0.3-0.4,0.5-0.6,0.8-1.1c-1.2-0.7-1.9-1.1-3.1-1.8
					C5,134,4.8,134.2,4.5,134.6z"/>
				<path class="st2" d="M6.7,131.7c1.2,0.7,1.9,1.1,3.1,1.9c0.3-0.4,0.5-0.6,0.9-1.1c-1.2-0.8-1.9-1.1-3.1-1.9
					C7.3,131.1,7.1,131.3,6.7,131.7z"/>
				<path class="st2" d="M9.1,128.9c1.2,0.8,1.8,1.1,3.1,1.9c0.3-0.4,0.5-0.6,0.9-1.1c-1.2-0.8-1.8-1.1-3.1-1.9
					C9.6,128.2,9.4,128.4,9.1,128.9z"/>
				<path class="st2" d="M11.4,126c1.2,0.8,1.8,1.2,3,1.9c0.4-0.4,0.5-0.6,0.9-1c-1.2-0.8-1.8-1.2-3-1.9
					C12,125.4,11.8,125.6,11.4,126z"/>
				<path class="st2" d="M11.7,121.9c2.1,1.3,3.1,2,5.1,3.3c0.4-0.4,0.5-0.6,0.9-1c-2-1.4-3.1-2-5.1-3.4
					C12.2,121.3,12,121.5,11.7,121.9z"/>
				<path class="st2" d="M16.2,120.5c1.2,0.8,1.8,1.2,3,2c0.4-0.4,0.5-0.6,0.9-1c-1.2-0.8-1.8-1.2-3-2
					C16.8,119.8,16.6,120,16.2,120.5z"/>
				<path class="st2" d="M18.7,117.7c1.2,0.8,1.8,1.2,3,2c0.4-0.4,0.5-0.6,0.9-1c-1.2-0.8-1.8-1.2-3-2.1
					C19.2,117,19,117.3,18.7,117.7z"/>
				<path class="st2" d="M21.2,114.9c1.2,0.8,1.8,1.2,2.9,2.1c0.4-0.4,0.6-0.6,0.9-1c-1.2-0.8-1.8-1.3-2.9-2.1
					C21.7,114.3,21.5,114.5,21.2,114.9z"/>
				<path class="st2" d="M23.7,112.2c1.2,0.8,1.8,1.3,2.9,2.1c0.4-0.4,0.6-0.6,0.9-1c-1.2-0.9-1.7-1.3-2.9-2.1
					C24.2,111.6,24.1,111.8,23.7,112.2z"/>
				<path class="st2" d="M24.2,108c2,1.4,3,2.2,4.9,3.6c0.4-0.4,0.6-0.6,1-1c-1.9-1.5-2.9-2.2-4.9-3.7
					C24.7,107.4,24.5,107.6,24.2,108z"/>
				<path class="st2" d="M28.8,106.8c1.1,0.9,1.7,1.3,2.9,2.2c0.4-0.4,0.6-0.6,1-1c-1.1-0.9-1.7-1.3-2.9-2.2
					C29.3,106.2,29.1,106.4,28.8,106.8z"/>
				<path class="st2" d="M31.4,104.2c1.1,0.9,1.7,1.3,2.8,2.2c0.4-0.4,0.6-0.6,1-1c-1.1-0.9-1.7-1.3-2.8-2.2
					C32,103.6,31.8,103.8,31.4,104.2z"/>
				<path class="st2" d="M34,101.5c1.1,0.9,1.7,1.4,2.8,2.3c0.4-0.4,0.6-0.6,1-1c-1.1-0.9-1.7-1.4-2.8-2.3
					C34.6,100.9,34.4,101.1,34,101.5z"/>
				<path class="st2" d="M36.7,98.9c1.1,0.9,1.7,1.4,2.8,2.3c0.4-0.4,0.6-0.6,1-1c-1.1-0.9-1.7-1.4-2.8-2.3
					C37.3,98.3,37.1,98.5,36.7,98.9z"/>
				<path class="st2" d="M37.4,94.8c1.9,1.6,2.8,2.4,4.7,3.9c0.4-0.4,0.6-0.6,1-0.9c-1.9-1.6-2.8-2.4-4.7-4
					C38,94.2,37.8,94.4,37.4,94.8z"/>
				<path class="st2" d="M42.1,93.8c1.1,0.9,1.6,1.4,2.7,2.4c0.4-0.4,0.6-0.6,1-0.9c-1.1-1-1.6-1.4-2.7-2.4
					C42.7,93.3,42.5,93.5,42.1,93.8z"/>
				<path class="st2" d="M44.8,91.3c1.1,1,1.6,1.4,2.7,2.4c0.4-0.4,0.6-0.6,1-0.9c-1.1-1-1.6-1.4-2.7-2.4
					C45.4,90.7,45.2,90.9,44.8,91.3z"/>
				<path class="st2" d="M47.6,88.8c1.1,1,1.6,1.5,2.7,2.4c0.4-0.4,0.6-0.6,1-0.9c-1.1-1-1.6-1.5-2.6-2.4
					C48.2,88.2,48,88.4,47.6,88.8z"/>
				<path class="st2" d="M50.4,86.3c1.1,1,1.6,1.5,2.6,2.5c0.4-0.4,0.6-0.5,1-0.9c-1-1-1.6-1.5-2.6-2.5C51.1,85.8,50.9,86,50.4,86.3
					z"/>
				<path class="st2" d="M51.4,82.2c1.8,1.7,2.7,2.5,4.4,4.2c0.4-0.4,0.6-0.5,1.1-0.9c-1.7-1.7-2.6-2.6-4.4-4.2
					C52.1,81.7,51.8,81.8,51.4,82.2z"/>
				<path class="st2" d="M56.1,81.5c1,1,1.5,1.5,2.6,2.5c0.4-0.4,0.6-0.5,1.1-0.9c-1-1-1.5-1.5-2.6-2.5C56.7,81,56.5,81.2,56.1,81.5
					z"/>
				<path class="st2" d="M59,79.1c1,1,1.5,1.5,2.5,2.6c0.4-0.4,0.6-0.5,1.1-0.9c-1-1-1.5-1.5-2.5-2.6C59.7,78.6,59.4,78.8,59,79.1z"
					/>
				<path class="st2" d="M61.9,76.8c1,1,1.5,1.6,2.5,2.6c0.4-0.3,0.7-0.5,1.1-0.9c-1-1-1.5-1.6-2.5-2.6
					C62.6,76.2,62.4,76.4,61.9,76.8z"/>
				<path class="st2" d="M64.9,74.4c1,1,1.5,1.6,2.5,2.6c0.4-0.3,0.7-0.5,1.1-0.9c-1-1.1-1.5-1.6-2.5-2.6
					C65.6,73.9,65.3,74.1,64.9,74.4z"/>
				<path class="st2" d="M66.1,70.3c1.7,1.8,2.5,2.7,4.1,4.5c0.4-0.3,0.7-0.5,1.1-0.8c-1.6-1.8-2.5-2.7-4.1-4.5
					C66.8,69.8,66.6,70,66.1,70.3z"/>
				<path class="st2" d="M70.8,69.9c1,1.1,1.4,1.6,2.4,2.7c0.4-0.3,0.7-0.5,1.1-0.8c-1-1.1-1.4-1.6-2.4-2.7
					C71.5,69.4,71.3,69.6,70.8,69.9z"/>
				<path class="st2" d="M73.9,67.7c0.9,1.1,1.4,1.6,2.4,2.7c0.5-0.3,0.7-0.5,1.1-0.8c-0.9-1.1-1.4-1.6-2.4-2.7
					C74.5,67.2,74.3,67.3,73.9,67.7z"/>
				<path class="st2" d="M76.9,65.5c0.9,1.1,1.4,1.6,2.3,2.7c0.5-0.3,0.7-0.5,1.1-0.8c-0.9-1.1-1.4-1.7-2.3-2.8
					C77.6,65,77.4,65.1,76.9,65.5z"/>
				<path class="st2" d="M80,63.3c0.9,1.1,1.4,1.7,2.3,2.8c0.5-0.3,0.7-0.5,1.1-0.8c-0.9-1.1-1.4-1.7-2.3-2.8
					C80.7,62.8,80.5,63,80,63.3z"/>
				<path class="st2" d="M81.5,59.2c1.5,1.9,2.3,2.8,3.8,4.7c0.5-0.3,0.7-0.5,1.2-0.8c-1.5-1.9-2.3-2.9-3.8-4.8
					C82.2,58.8,82,58.9,81.5,59.2z"/>
				<path class="st2" d="M86.2,59.1c0.9,1.1,1.3,1.7,2.2,2.8c0.5-0.3,0.7-0.5,1.2-0.8c-0.9-1.1-1.3-1.7-2.2-2.8
					C86.9,58.6,86.7,58.7,86.2,59.1z"/>
				<path class="st2" d="M89.4,57c0.9,1.1,1.3,1.7,2.2,2.9c0.5-0.3,0.7-0.5,1.2-0.8c-0.9-1.2-1.3-1.7-2.2-2.9
					C90.1,56.5,89.8,56.7,89.4,57z"/>
				<path class="st2" d="M92.6,54.9c0.9,1.2,1.3,1.7,2.2,2.9c0.5-0.3,0.7-0.4,1.2-0.7c-0.9-1.2-1.3-1.7-2.1-2.9
					C93.3,54.5,93,54.6,92.6,54.9z"/>
				<path class="st2" d="M95.8,52.9c0.8,1.2,1.3,1.7,2.1,2.9c0.5-0.3,0.7-0.4,1.2-0.7c-0.8-1.2-1.3-1.8-2.1-2.9
					C96.5,52.5,96.2,52.6,95.8,52.9z"/>
				<path class="st2" d="M97.5,48.9c1.4,2,2.1,3,3.5,5c0.5-0.3,0.7-0.4,1.2-0.7c-1.4-2-2.1-3-3.5-5C98.2,48.5,98,48.6,97.5,48.9z"/>
				<path class="st2" d="M102.2,49c0.8,1.2,1.2,1.8,2,3c0.5-0.3,0.7-0.4,1.2-0.7c-0.8-1.2-1.2-1.8-2-3
					C102.9,48.6,102.7,48.7,102.2,49z"/>
				<path class="st2" d="M105.5,47.1c0.8,1.2,1.2,1.8,2,3c0.5-0.3,0.7-0.4,1.2-0.7c-0.8-1.2-1.2-1.8-2-3
					C106.2,46.7,106,46.8,105.5,47.1z"/>
				<path class="st2" d="M108.8,45.2c0.8,1.2,1.2,1.8,2,3c0.5-0.3,0.7-0.4,1.2-0.7c-0.8-1.2-1.2-1.8-1.9-3
					C109.5,44.8,109.3,44.9,108.8,45.2z"/>
				<path class="st2" d="M112.1,43.4c0.8,1.2,1.2,1.8,1.9,3c0.5-0.3,0.7-0.4,1.2-0.7c-0.8-1.2-1.1-1.8-1.9-3.1
					C112.8,43,112.6,43.1,112.1,43.4z"/>
				<path class="st2" d="M114.1,39.5c1.3,2.1,1.9,3.1,3.2,5.2c0.5-0.3,0.7-0.4,1.2-0.7c-1.3-2.1-1.9-3.1-3.2-5.2
					C114.8,39.1,114.6,39.2,114.1,39.5z"/>
				<path class="st2" d="M118.7,39.8c0.7,1.2,1.1,1.9,1.8,3.1c0.5-0.3,0.7-0.4,1.2-0.6c-0.7-1.2-1.1-1.9-1.8-3.1
					C119.5,39.4,119.2,39.6,118.7,39.8z"/>
				<path class="st2" d="M122.1,38.1c0.7,1.2,1.1,1.9,1.8,3.1c0.5-0.3,0.8-0.4,1.3-0.6c-0.7-1.3-1.1-1.9-1.8-3.1
					C122.9,37.7,122.6,37.8,122.1,38.1z"/>
				<path class="st2" d="M125.5,36.4c0.7,1.3,1.1,1.9,1.8,3.1c0.5-0.2,0.8-0.4,1.3-0.6c-0.7-1.3-1-1.9-1.8-3.2
					C126.3,36,126,36.1,125.5,36.4z"/>
				<path class="st2" d="M129,34.7c0.7,1.3,1,1.9,1.7,3.2c0.5-0.2,0.8-0.4,1.3-0.6c-0.7-1.3-1-1.9-1.7-3.2
					C129.7,34.3,129.5,34.5,129,34.7z"/>
				<path class="st2" d="M131.2,30.9c1.1,2.2,1.7,3.2,2.9,5.4c0.5-0.2,0.8-0.4,1.3-0.6c-1.1-2.2-1.7-3.3-2.8-5.4
					C131.9,30.5,131.7,30.7,131.2,30.9z"/>
				<path class="st2" d="M135.8,31.5c0.7,1.3,1,1.9,1.6,3.2c0.5-0.2,0.8-0.3,1.3-0.6c-0.6-1.3-1-1.9-1.6-3.2
					C136.6,31.2,136.3,31.3,135.8,31.5z"/>
				<path class="st2" d="M139.3,30c0.6,1.3,1,1.9,1.6,3.2c0.5-0.2,0.8-0.3,1.3-0.6c-0.6-1.3-1-1.9-1.6-3.2
					C140.1,29.6,139.8,29.7,139.3,30z"/>
				<path class="st2" d="M142.8,28.4c0.6,1.3,0.9,2,1.6,3.3c0.5-0.2,0.8-0.3,1.3-0.6c-0.6-1.3-0.9-2-1.5-3.3
					C143.6,28.1,143.3,28.2,142.8,28.4z"/>
				<path class="st2" d="M146.3,27c0.6,1.3,0.9,2,1.5,3.3c0.5-0.2,0.8-0.3,1.3-0.5c-0.6-1.3-0.9-2-1.5-3.3
					C147.1,26.6,146.8,26.7,146.3,27z"/>
				<path class="st2" d="M148.8,23.3c1,2.2,1.5,3.3,2.5,5.6c0.5-0.2,0.8-0.3,1.3-0.5c-1-2.2-1.5-3.4-2.5-5.6
					C149.6,22.9,149.3,23,148.8,23.3z"/>
				<path class="st2" d="M153.3,24.1c0.6,1.3,0.9,2,1.4,3.3c0.5-0.2,0.8-0.3,1.3-0.5c-0.6-1.3-0.8-2-1.4-3.3
					C154.1,23.8,153.9,23.9,153.3,24.1z"/>
				<path class="st2" d="M156.9,22.8c0.6,1.3,0.8,2,1.4,3.3c0.5-0.2,0.8-0.3,1.3-0.5c-0.5-1.3-0.8-2-1.4-3.3
					C157.7,22.5,157.4,22.6,156.9,22.8z"/>
				<path class="st2" d="M160.5,21.4c0.5,1.3,0.8,2,1.3,3.4c0.5-0.2,0.8-0.3,1.3-0.5c-0.5-1.3-0.8-2-1.3-3.4
					C161.3,21.1,161,21.2,160.5,21.4z"/>
				<path class="st2" d="M164.1,20.1c0.5,1.3,0.8,2,1.3,3.4c0.5-0.2,0.8-0.3,1.3-0.5c-0.5-1.4-0.8-2-1.3-3.4
					C164.9,19.9,164.6,20,164.1,20.1z"/>
				<path class="st2" d="M166.8,16.6c0.9,2.3,1.3,3.4,2.1,5.7c0.5-0.2,0.8-0.3,1.3-0.5c-0.8-2.3-1.3-3.4-2.1-5.7
					C167.6,16.3,167.3,16.4,166.8,16.6z"/>
			</g>
			<g>
				<path class="st2" d="M587.8,136.3c-2.1,1.2-3.2,1.8-5.3,3c-0.3-0.4-0.5-0.6-0.8-1.1c2.1-1.2,3.2-1.8,5.3-3
					C587.3,135.7,587.5,135.9,587.8,136.3z"/>
				<path class="st2" d="M583.4,134.6c-1.3,0.7-1.9,1.1-3.1,1.8c-0.3-0.4-0.5-0.6-0.8-1.1c1.2-0.7,1.9-1.1,3.1-1.8
					C582.9,134,583.1,134.2,583.4,134.6z"/>
				<path class="st2" d="M581.1,131.7c-1.2,0.7-1.9,1.1-3.1,1.9c-0.3-0.4-0.5-0.6-0.9-1.1c1.2-0.8,1.8-1.1,3.1-1.9
					C580.6,131.1,580.8,131.3,581.1,131.7z"/>
				<path class="st2" d="M578.8,128.9c-1.2,0.8-1.8,1.1-3.1,1.9c-0.3-0.4-0.5-0.6-0.9-1.1c1.2-0.8,1.8-1.1,3.1-1.9
					C578.2,128.2,578.4,128.4,578.8,128.9z"/>
				<path class="st2" d="M576.4,126c-1.2,0.8-1.8,1.2-3,1.9c-0.4-0.4-0.5-0.6-0.9-1c1.2-0.8,1.8-1.2,3-1.9
					C575.9,125.4,576.1,125.6,576.4,126z"/>
				<path class="st2" d="M576.2,121.9c-2.1,1.3-3.1,2-5.1,3.3c-0.4-0.4-0.5-0.6-0.9-1c2-1.4,3.1-2,5.1-3.4
					C575.6,121.3,575.8,121.5,576.2,121.9z"/>
				<path class="st2" d="M571.6,120.5c-1.2,0.8-1.8,1.2-3,2c-0.4-0.4-0.5-0.6-0.9-1c1.2-0.8,1.8-1.2,3-2
					C571.1,119.8,571.3,120,571.6,120.5z"/>
				<path class="st2" d="M569.2,117.7c-1.2,0.8-1.8,1.2-3,2c-0.4-0.4-0.5-0.6-0.9-1c1.2-0.8,1.8-1.2,3-2.1
					C568.6,117,568.8,117.3,569.2,117.7z"/>
				<path class="st2" d="M566.7,114.9c-1.2,0.8-1.8,1.2-2.9,2.1c-0.4-0.4-0.6-0.6-0.9-1c1.2-0.8,1.8-1.3,2.9-2.1
					C566.1,114.3,566.3,114.5,566.7,114.9z"/>
				<path class="st2" d="M564.2,112.2c-1.2,0.8-1.8,1.3-2.9,2.1c-0.4-0.4-0.6-0.6-0.9-1c1.2-0.9,1.7-1.3,2.9-2.1
					C563.6,111.6,563.8,111.8,564.2,112.2z"/>
				<path class="st2" d="M563.7,108c-2,1.4-3,2.2-4.9,3.6c-0.4-0.4-0.6-0.6-1-1c1.9-1.5,2.9-2.2,4.9-3.7
					C563.1,107.4,563.3,107.6,563.7,108z"/>
				<path class="st2" d="M559.1,106.8c-1.1,0.9-1.7,1.3-2.9,2.2c-0.4-0.4-0.6-0.6-1-1c1.1-0.9,1.7-1.3,2.9-2.2
					C558.5,106.2,558.7,106.4,559.1,106.8z"/>
				<path class="st2" d="M556.5,104.2c-1.1,0.9-1.7,1.3-2.8,2.2c-0.4-0.4-0.6-0.6-1-1c1.1-0.9,1.7-1.3,2.8-2.2
					C555.9,103.6,556.1,103.8,556.5,104.2z"/>
				<path class="st2" d="M553.8,101.5c-1.1,0.9-1.7,1.4-2.8,2.3c-0.4-0.4-0.6-0.6-1-1c1.1-0.9,1.7-1.4,2.8-2.3
					C553.2,100.9,553.4,101.1,553.8,101.5z"/>
				<path class="st2" d="M551.2,98.9c-1.1,0.9-1.7,1.4-2.8,2.3c-0.4-0.4-0.6-0.6-1-1c1.1-0.9,1.7-1.4,2.8-2.3
					C550.6,98.3,550.8,98.5,551.2,98.9z"/>
				<path class="st2" d="M550.4,94.8c-1.9,1.6-2.8,2.4-4.7,3.9c-0.4-0.4-0.6-0.6-1-0.9c1.9-1.6,2.8-2.4,4.7-4
					C549.8,94.2,550,94.4,550.4,94.8z"/>
				<path class="st2" d="M545.8,93.8c-1.1,0.9-1.6,1.4-2.7,2.4c-0.4-0.4-0.6-0.6-1-0.9c1.1-1,1.6-1.4,2.7-2.4
					C545.2,93.3,545.4,93.5,545.8,93.8z"/>
				<path class="st2" d="M543,91.3c-1.1,1-1.6,1.4-2.7,2.4c-0.4-0.4-0.6-0.6-1-0.9c1.1-1,1.6-1.4,2.7-2.4
					C542.4,90.7,542.6,90.9,543,91.3z"/>
				<path class="st2" d="M540.2,88.8c-1.1,1-1.6,1.5-2.7,2.4c-0.4-0.4-0.6-0.6-1-0.9c1.1-1,1.6-1.5,2.6-2.4
					C539.6,88.2,539.8,88.4,540.2,88.8z"/>
				<path class="st2" d="M537.4,86.3c-1.1,1-1.6,1.5-2.6,2.5c-0.4-0.4-0.6-0.5-1-0.9c1-1,1.6-1.5,2.6-2.5
					C536.8,85.8,537,86,537.4,86.3z"/>
				<path class="st2" d="M536.4,82.2c-1.8,1.7-2.7,2.5-4.4,4.2c-0.4-0.4-0.6-0.5-1.1-0.9c1.7-1.7,2.6-2.6,4.4-4.2
					C535.8,81.7,536,81.8,536.4,82.2z"/>
				<path class="st2" d="M531.7,81.5c-1,1-1.5,1.5-2.6,2.5c-0.4-0.4-0.6-0.5-1.1-0.9c1-1,1.5-1.5,2.6-2.5
					C531.1,81,531.3,81.2,531.7,81.5z"/>
				<path class="st2" d="M528.8,79.1c-1,1-1.5,1.5-2.5,2.6c-0.4-0.4-0.6-0.5-1.1-0.9c1-1,1.5-1.5,2.5-2.6
					C528.2,78.6,528.4,78.8,528.8,79.1z"/>
				<path class="st2" d="M525.9,76.8c-1,1-1.5,1.6-2.5,2.6c-0.4-0.3-0.7-0.5-1.1-0.9c1-1,1.5-1.6,2.5-2.6
					C525.3,76.2,525.5,76.4,525.9,76.8z"/>
				<path class="st2" d="M523,74.4c-1,1-1.5,1.6-2.5,2.6c-0.4-0.3-0.7-0.5-1.1-0.9c1-1.1,1.5-1.6,2.5-2.6
					C522.3,73.9,522.5,74.1,523,74.4z"/>
				<path class="st2" d="M521.7,70.3c-1.7,1.8-2.5,2.7-4.1,4.5c-0.4-0.3-0.7-0.5-1.1-0.8c1.6-1.8,2.5-2.7,4.1-4.5
					C521.1,69.8,521.3,70,521.7,70.3z"/>
				<path class="st2" d="M517,69.9c-1,1.1-1.4,1.6-2.4,2.7c-0.4-0.3-0.7-0.5-1.1-0.8c1-1.1,1.4-1.6,2.4-2.7
					C516.3,69.4,516.6,69.6,517,69.9z"/>
				<path class="st2" d="M514,67.7c-0.9,1.1-1.4,1.6-2.4,2.7c-0.5-0.3-0.7-0.5-1.1-0.8c0.9-1.1,1.4-1.6,2.4-2.7
					C513.3,67.2,513.5,67.3,514,67.7z"/>
				<path class="st2" d="M510.9,65.5c-0.9,1.1-1.4,1.6-2.3,2.7c-0.5-0.3-0.7-0.5-1.1-0.8c0.9-1.1,1.4-1.7,2.3-2.8
					C510.2,65,510.5,65.1,510.9,65.5z"/>
				<path class="st2" d="M507.8,63.3c-0.9,1.1-1.4,1.7-2.3,2.8c-0.5-0.3-0.7-0.5-1.1-0.8c0.9-1.1,1.4-1.7,2.3-2.8
					C507.1,62.8,507.4,63,507.8,63.3z"/>
				<path class="st2" d="M506.4,59.2c-1.5,1.9-2.3,2.8-3.8,4.7c-0.5-0.3-0.7-0.5-1.2-0.8c1.5-1.9,2.3-2.9,3.8-4.8
					C505.7,58.8,505.9,58.9,506.4,59.2z"/>
				<path class="st2" d="M501.6,59.1c-0.9,1.1-1.3,1.7-2.2,2.8c-0.5-0.3-0.7-0.5-1.2-0.8c0.9-1.1,1.3-1.7,2.2-2.8
					C500.9,58.6,501.2,58.7,501.6,59.1z"/>
				<path class="st2" d="M498.5,57c-0.9,1.1-1.3,1.7-2.2,2.9c-0.5-0.3-0.7-0.5-1.2-0.8c0.9-1.2,1.3-1.7,2.2-2.9
					C497.8,56.5,498,56.7,498.5,57z"/>
				<path class="st2" d="M495.3,54.9c-0.9,1.2-1.3,1.7-2.2,2.9c-0.5-0.3-0.7-0.4-1.2-0.7c0.9-1.2,1.3-1.7,2.1-2.9
					C494.6,54.5,494.8,54.6,495.3,54.9z"/>
				<path class="st2" d="M492.1,52.9c-0.8,1.2-1.3,1.7-2.1,2.9c-0.5-0.3-0.7-0.4-1.2-0.7c0.8-1.2,1.3-1.8,2.1-2.9
					C491.4,52.5,491.6,52.6,492.1,52.9z"/>
				<path class="st2" d="M490.4,48.9c-1.4,2-2.1,3-3.5,5c-0.5-0.3-0.7-0.4-1.2-0.7c1.4-2,2.1-3,3.5-5
					C489.6,48.5,489.9,48.6,490.4,48.9z"/>
				<path class="st2" d="M485.7,49c-0.8,1.2-1.2,1.8-2,3c-0.5-0.3-0.7-0.4-1.2-0.7c0.8-1.2,1.2-1.8,2-3
					C484.9,48.6,485.2,48.7,485.7,49z"/>
				<path class="st2" d="M482.4,47.1c-0.8,1.2-1.2,1.8-2,3c-0.5-0.3-0.7-0.4-1.2-0.7c0.8-1.2,1.2-1.8,2-3
					C481.6,46.7,481.9,46.8,482.4,47.1z"/>
				<path class="st2" d="M479.1,45.2c-0.8,1.2-1.2,1.8-2,3c-0.5-0.3-0.7-0.4-1.2-0.7c0.8-1.2,1.2-1.8,1.9-3
					C478.3,44.8,478.6,44.9,479.1,45.2z"/>
				<path class="st2" d="M475.8,43.4c-0.8,1.2-1.2,1.8-1.9,3c-0.5-0.3-0.7-0.4-1.2-0.7c0.8-1.2,1.1-1.8,1.9-3.1
					C475,43,475.3,43.1,475.8,43.4z"/>
				<path class="st2" d="M473.8,39.5c-1.3,2.1-1.9,3.1-3.2,5.2c-0.5-0.3-0.7-0.4-1.2-0.7c1.3-2.1,1.9-3.1,3.2-5.2
					C473,39.1,473.3,39.2,473.8,39.5z"/>
				<path class="st2" d="M469.1,39.8c-0.7,1.2-1.1,1.9-1.8,3.1c-0.5-0.3-0.7-0.4-1.2-0.6c0.7-1.2,1.1-1.9,1.8-3.1
					C468.4,39.4,468.6,39.6,469.1,39.8z"/>
				<path class="st2" d="M465.7,38.1c-0.7,1.2-1.1,1.9-1.8,3.1c-0.5-0.3-0.8-0.4-1.3-0.6c0.7-1.3,1.1-1.9,1.8-3.1
					C465,37.7,465.2,37.8,465.7,38.1z"/>
				<path class="st2" d="M462.3,36.4c-0.7,1.3-1.1,1.9-1.8,3.1c-0.5-0.2-0.8-0.4-1.3-0.6c0.7-1.3,1-1.9,1.8-3.2
					C461.5,36,461.8,36.1,462.3,36.4z"/>
				<path class="st2" d="M458.9,34.7c-0.7,1.3-1,1.9-1.7,3.2c-0.5-0.2-0.8-0.4-1.3-0.6c0.7-1.3,1-1.9,1.7-3.2
					C458.1,34.3,458.4,34.5,458.9,34.7z"/>
				<path class="st2" d="M456.7,30.9c-1.1,2.2-1.7,3.2-2.9,5.4c-0.5-0.2-0.8-0.4-1.3-0.6c1.1-2.2,1.7-3.3,2.8-5.4
					C455.9,30.5,456.2,30.7,456.7,30.9z"/>
				<path class="st2" d="M452,31.5c-0.7,1.3-1,1.9-1.6,3.2c-0.5-0.2-0.8-0.3-1.3-0.6c0.6-1.3,1-1.9,1.6-3.2
					C451.3,31.2,451.5,31.3,452,31.5z"/>
				<path class="st2" d="M448.6,30c-0.6,1.3-1,1.9-1.6,3.2c-0.5-0.2-0.8-0.3-1.3-0.6c0.6-1.3,1-1.9,1.6-3.2
					C447.8,29.6,448,29.7,448.6,30z"/>
				<path class="st2" d="M445.1,28.4c-0.6,1.3-0.9,2-1.6,3.3c-0.5-0.2-0.8-0.3-1.3-0.6c0.6-1.3,0.9-2,1.5-3.3
					C444.3,28.1,444.5,28.2,445.1,28.4z"/>
				<path class="st2" d="M441.5,27c-0.6,1.3-0.9,2-1.5,3.3c-0.5-0.2-0.8-0.3-1.3-0.5c0.6-1.3,0.9-2,1.5-3.3
					C440.7,26.6,441,26.7,441.5,27z"/>
				<path class="st2" d="M439.1,23.3c-1,2.2-1.5,3.3-2.5,5.6c-0.5-0.2-0.8-0.3-1.3-0.5c1-2.2,1.5-3.4,2.5-5.6
					C438.3,22.9,438.6,23,439.1,23.3z"/>
				<path class="st2" d="M434.5,24.1c-0.6,1.3-0.9,2-1.4,3.3c-0.5-0.2-0.8-0.3-1.3-0.5c0.6-1.3,0.8-2,1.4-3.3
					C433.7,23.8,434,23.9,434.5,24.1z"/>
				<path class="st2" d="M430.9,22.8c-0.6,1.3-0.8,2-1.4,3.3c-0.5-0.2-0.8-0.3-1.3-0.5c0.5-1.3,0.8-2,1.4-3.3
					C430.1,22.5,430.4,22.6,430.9,22.8z"/>
				<path class="st2" d="M427.3,21.4c-0.5,1.3-0.8,2-1.3,3.4c-0.5-0.2-0.8-0.3-1.3-0.5c0.5-1.3,0.8-2,1.3-3.4
					C426.5,21.1,426.8,21.2,427.3,21.4z"/>
				<path class="st2" d="M423.7,20.1c-0.5,1.3-0.8,2-1.3,3.4c-0.5-0.2-0.8-0.3-1.3-0.5c0.5-1.4,0.8-2,1.3-3.4
					C422.9,19.9,423.2,20,423.7,20.1z"/>
				<path class="st2" d="M421.1,16.6c-0.9,2.3-1.3,3.4-2.1,5.7c-0.5-0.2-0.8-0.3-1.3-0.5c0.8-2.3,1.3-3.4,2.1-5.7
					C420.3,16.3,420.5,16.4,421.1,16.6z"/>
			</g>
		</g>
		<g>
			<g>
				<g>
					<path class="st2" d="M187.1,21.2L187.1,21.2c-3.3,1.1-6.8-0.2-8.3-3.1c-1.6-3.1,0-7.2,3.8-8.9c11.1-4.4,22-7.3,33.8-9.1
						c4.3-0.5,7.9,2.2,8.1,5.8c0.2,3.6-2.8,6.6-6.6,7c-10.4,1.2-20.6,3.9-30.2,8.1C187.5,21.1,187.3,21.1,187.1,21.2z M217.2,0.8
						c-0.2,0-0.5,0-0.7,0.1c-11.6,1.8-22.8,4.4-33.6,9.1c-3.3,1.4-4.7,5-3.3,7.8c1.3,2.5,4.4,3.7,7.3,2.8l0,0
						c0.2-0.1,0.4-0.1,0.6-0.2c9.7-4.2,20-6.9,30.4-8.1c3.3-0.4,5.9-3.1,5.7-6.2C223.4,3,220.6,0.7,217.2,0.8z"/>
				</g>
			</g>
			<g>
				<g>
					<g>
						<path class="st2" d="M181.5,17c-1.1-2.2-0.1-5,2.2-6.1s5.1-0.3,6.2,2c1.1,2.2,0.1,5-2.3,6.1C185.4,20.1,182.6,19.3,181.5,17z"
							/>
					</g>
					<g>
						<path class="st2" d="M189,13.3c-0.8-1.7-3-2.4-4.8-1.5c-1.8,0.9-2.6,3-1.7,4.8c0.9,1.7,3,2.4,4.8,1.5
							C189.1,17.2,189.8,15.1,189,13.3z M182.7,16.4c-0.8-1.6-0.1-3.5,1.6-4.4c1.7-0.8,3.7-0.2,4.4,1.4c0.8,1.6,0,3.5-1.6,4.4
							C185.5,18.6,183.5,18,182.7,16.4z"/>
					</g>
				</g>
				<g>
					<g>
						<path class="st2" d="M187.7,14c-0.5-1.1-1.8-1.5-2.9-0.9s-1.6,1.9-1.1,2.9c0.5,1.1,1.8,1.5,2.9,0.9
							C187.8,16.3,188.2,15,187.7,14z M186.6,16.7c-1,0.5-2.2,0.1-2.7-0.8c-0.5-1,0-2.1,1-2.6c1-0.5,2.2-0.1,2.7,0.8
							C188,15,187.6,16.2,186.6,16.7z"/>
						<g>
							<path class="st2" d="M187.6,14c0,0-0.1,0.1,0,0.1c0.4,1-0.1,2.2-1.1,2.6c-0.9,0.4-2,0.1-2.5-0.8c-0.5-0.9-0.2-2.2,0.8-2.7
								c0,0,0.1-0.1,0-0.1c0,0-0.1-0.1-0.1,0c-1,0.6-1.4,1.9-0.9,2.9c0.5,1,1.7,1.4,2.8,0.9c1.1-0.5,1.7-1.8,1.2-2.8
								C187.7,14,187.7,14,187.6,14z"/>
						</g>
					</g>
				</g>
				<g>
					<g>
						<path class="st2" d="M188.5,15.9c0.6-1.5-0.1-3.2-1.6-3.8c-1.5-0.6-3.3,0.2-3.9,1.8c-0.6,1.5,0.1,3.2,1.7,3.7
							C186.1,18.2,187.9,17.5,188.5,15.9z M184.7,17.4c-1.4-0.5-2.1-2-1.5-3.4c0.6-1.4,2.2-2.1,3.6-1.6c1.4,0.5,2,2,1.5,3.4
							C187.7,17.2,186.1,17.9,184.7,17.4z"/>
						<g>
							<path class="st2" d="M188.4,15.9c-0.1,0-0.1,0-0.1,0.1c-0.6,1.4-2.3,2-3.7,1.4c-1.3-0.5-1.9-1.9-1.4-3.2
								c0.5-1.4,2.1-2.2,3.5-1.8c0.1,0,0.1,0,0.1-0.1c0-0.1,0-0.1-0.1-0.1c-1.5-0.4-3.2,0.4-3.7,1.9c-0.5,1.4,0.1,3,1.5,3.6
								c1.5,0.6,3.3-0.1,4-1.6C188.4,16,188.4,15.9,188.4,15.9z"/>
						</g>
					</g>
				</g>
				<g>
					<g>
						<path class="st2" d="M183.7,18c1.7,1,3.9,0.4,5.1-1.2c1.1-1.7,0.6-3.9-1.1-4.9c-1.7-1-4-0.5-5.1,1.2
							C181.5,14.8,182,17,183.7,18z M182.9,13.3c1-1.5,3.1-2,4.6-1.1c1.5,0.9,2,2.9,1,4.4s-3,2-4.6,1.1
							C182.4,16.8,181.9,14.8,182.9,13.3z"/>
						<g>
							<path class="st2" d="M183.8,17.9c0-0.1,0-0.1,0-0.2c-1.5-1-1.9-3-0.8-4.6c1-1.4,2.9-1.8,4.4-1.1c1.6,0.8,2.2,2.8,1.2,4.4
								c0,0.1,0,0.1,0,0.2c0.1,0,0.1,0,0.2-0.1c1-1.7,0.4-3.8-1.3-4.7c-1.6-0.9-3.7-0.4-4.8,1.1c-1.2,1.7-0.8,3.9,0.8,4.9
								C183.7,17.9,183.8,17.9,183.8,17.9z"/>
						</g>
					</g>
				</g>
			</g>
			<g>
				<g>
					<g>
						<g>
							<g>
								<path class="st2" d="M191.9,10.8c0.3,0.6,0.4,0.9,0.7,1.6c0.2,0.1,0.2,0.1,0.4,0.1c0.1-0.1,0.1-0.2,0.2-0.4
									c-0.3-0.6-0.4-0.9-0.7-1.6c-0.2-0.1-0.2-0.1-0.4-0.1C192,10.6,191.9,10.7,191.9,10.8z"/>
								<path class="st2" d="M194,9.3c-0.7,0.3-1.1,0.4-1.8,0.7c-0.1,0.1-0.1,0.2-0.2,0.4c0.2,0.1,0.2,0.1,0.4,0.1
									c0.7-0.3,1-0.4,1.8-0.7c0.1-0.1,0.1-0.2,0.2-0.4C194.2,9.4,194.2,9.4,194,9.3z"/>
								<path class="st2" d="M195,12c-0.7,0.3-1,0.4-1.7,0.7c-0.2-0.1-0.2-0.1-0.4-0.1c0.1-0.1,0.1-0.2,0.2-0.4
									c0.7-0.3,1-0.4,1.7-0.7c0.2,0.1,0.2,0.1,0.4,0.1C195.1,11.7,195.1,11.8,195,12z"/>
								<path class="st2" d="M193.4,14.5c-0.3-0.6-0.4-0.9-0.7-1.6c0.1-0.1,0.1-0.2,0.2-0.4c0.2,0.1,0.2,0.1,0.4,0.1
									c0.3,0.6,0.4,0.9,0.6,1.6c-0.1,0.1-0.1,0.2-0.2,0.4C193.7,14.5,193.6,14.5,193.4,14.5z"/>
								<path class="st2" d="M195.7,13.6c-0.2-0.6-0.4-0.9-0.6-1.6c0.1-0.1,0.1-0.2,0.2-0.4c0.1,0.1,0.2,0.1,0.4,0.2
									c0.2,0.6,0.4,0.9,0.6,1.6c-0.1,0.1-0.1,0.2-0.2,0.4C195.9,13.7,195.8,13.6,195.7,13.6z"/>
								<g>
									<path class="st2" d="M195.9,14.1c-0.7,0.3-1,0.4-1.6,0.7c-0.1-0.1-0.2-0.1-0.4-0.1c0.1-0.1,0.1-0.2,0.2-0.4
										c0.7-0.3,1-0.4,1.7-0.7c0.1,0.1,0.2,0.1,0.4,0.2C196,13.9,195.9,14,195.9,14.1z"/>
								</g>
							</g>
							<g>
								<path class="st2" d="M198.1,8.5c0.2,0.6,0.3,1,0.5,1.6c0.1,0.1,0.2,0.1,0.4,0.2c0.1-0.1,0.1-0.2,0.2-0.4
									c-0.2-0.6-0.3-1-0.5-1.6c-0.2-0.1-0.2-0.1-0.4-0.2C198.2,8.3,198.1,8.4,198.1,8.5z"/>
								<path class="st2" d="M197.9,8c-0.7,0.2-1.1,0.4-1.8,0.6c-0.1,0.1-0.1,0.2-0.2,0.4c0.2,0.1,0.2,0.1,0.4,0.2
									c0.7-0.3,1.1-0.4,1.8-0.6c0.1-0.1,0.1-0.2,0.2-0.4C198.1,8.1,198,8,197.9,8z"/>
								<path class="st2" d="M198.7,10.7c-0.7,0.2-1,0.3-1.7,0.6c-0.1-0.1-0.2-0.1-0.4-0.2c0.1-0.1,0.1-0.2,0.2-0.4
									c0.7-0.2,1-0.4,1.8-0.6c0.1,0.1,0.2,0.1,0.4,0.2C198.9,10.4,198.8,10.5,198.7,10.7z"/>
								<path class="st2" d="M197,13.1c-0.2-0.6-0.3-1-0.6-1.6c0.1-0.1,0.1-0.2,0.2-0.4c0.1,0.1,0.2,0.1,0.4,0.2
									c0.2,0.6,0.3,1,0.6,1.6c-0.1,0.1-0.1,0.2-0.2,0.4C197.2,13.2,197.1,13.1,197,13.1z"/>
								<g>
									<path class="st2" d="M199.4,12.8c-0.7,0.2-1,0.3-1.7,0.6c-0.1-0.1-0.2-0.1-0.4-0.2c0.1-0.1,0.1-0.2,0.2-0.4
										c0.7-0.2,1-0.4,1.7-0.6c0.1,0.1,0.2,0.1,0.4,0.2C199.5,12.6,199.5,12.7,199.4,12.8z"/>
								</g>
							</g>
							<g>
								<path class="st2" d="M200.9,11.3c-0.2,0.1-0.3,0.1-0.5,0.2c-0.1-0.2-0.1-0.3-0.1-0.5c0.2-0.1,0.3-0.1,0.5-0.2
									C200.8,11,200.9,11.1,200.9,11.3z"/>
								<path class="st2" d="M200.2,8.9c-0.2,0.1-0.3,0.1-0.5,0.2c-0.1-0.2-0.1-0.3-0.1-0.5c0.2-0.1,0.3-0.1,0.5-0.2
									C200.1,8.6,200.2,8.7,200.2,8.9z"/>
							</g>
							<g>
								<path class="st2" d="M203.2,7c0.2,0.7,0.2,1,0.4,1.6c0.1,0.1,0.2,0.1,0.4,0.2c0.1-0.1,0.1-0.2,0.2-0.3
									c-0.2-0.7-0.2-1-0.4-1.6c-0.1-0.1-0.2-0.1-0.4-0.2C203.4,6.8,203.3,6.9,203.2,7z"/>
								<path class="st2" d="M203.1,6.5c-0.7,0.2-1.1,0.3-1.9,0.5c-0.1,0.1-0.1,0.2-0.2,0.3c0.1,0.1,0.2,0.1,0.4,0.2
									c0.7-0.2,1.1-0.3,1.8-0.5c0.1-0.1,0.1-0.2,0.2-0.3C203.3,6.6,203.2,6.6,203.1,6.5z"/>
								<path class="st2" d="M203.7,9.3c-0.7,0.2-1.1,0.3-1.8,0.5c-0.1-0.1-0.2-0.1-0.4-0.2c0.1-0.1,0.1-0.2,0.2-0.3
									c0.7-0.2,1.1-0.3,1.8-0.5c0.1,0.1,0.2,0.1,0.4,0.2C203.9,9.1,203.8,9.1,203.7,9.3z"/>
								<path class="st2" d="M204.2,10.9c-0.2-0.7-0.2-1-0.4-1.6c0.1-0.1,0.1-0.2,0.2-0.3c0.1,0.1,0.2,0.1,0.4,0.2
									c0.2,0.7,0.2,1,0.4,1.6c-0.1,0.1-0.1,0.2-0.2,0.3C204.4,11,204.3,11,204.2,10.9z"/>
								<g>
									<path class="st2" d="M204.3,11.5c-0.7,0.2-1,0.3-1.7,0.5c-0.1-0.1-0.2-0.1-0.3-0.2c0.1-0.1,0.1-0.2,0.2-0.3
										c0.7-0.2,1-0.3,1.7-0.5c0.1,0.1,0.2,0.1,0.3,0.2C204.4,11.3,204.4,11.4,204.3,11.5z"/>
								</g>
							</g>
							<g>
								<path class="st2" d="M204.7,6.7c0.1,0.7,0.2,1,0.4,1.7c0.1,0.1,0.2,0.1,0.4,0.2c0.1-0.1,0.1-0.2,0.2-0.3
									c-0.1-0.7-0.2-1-0.4-1.7c-0.1-0.1-0.2-0.1-0.4-0.2C204.8,6.5,204.8,6.6,204.7,6.7z"/>
								<path class="st2" d="M207.2,6.2c0.1,0.7,0.2,1,0.3,1.7c0.1,0.1,0.2,0.1,0.3,0.2c0.1-0.1,0.1-0.2,0.2-0.3
									c-0.1-0.7-0.2-1-0.3-1.7c-0.1-0.1-0.2-0.1-0.4-0.2C207.4,6,207.3,6,207.2,6.2z"/>
								<path class="st2" d="M207.1,5.6c-0.8,0.1-1.1,0.2-1.9,0.4c-0.1,0.1-0.1,0.2-0.2,0.3c0.1,0.1,0.2,0.1,0.4,0.2
									c0.7-0.2,1.1-0.2,1.9-0.4c0.1-0.1,0.2-0.2,0.3-0.3C207.3,5.7,207.2,5.7,207.1,5.6z"/>
								<path class="st2" d="M207.6,8.4c-0.7,0.1-1.1,0.2-1.8,0.4c-0.1-0.1-0.2-0.1-0.3-0.2c0.1-0.1,0.1-0.2,0.2-0.3
									c0.7-0.2,1.1-0.2,1.8-0.4c0.1,0.1,0.2,0.1,0.3,0.2C207.7,8.2,207.7,8.3,207.6,8.4z"/>
								<path class="st2" d="M205.5,10.6c-0.1-0.7-0.2-1-0.4-1.7c0.1-0.1,0.1-0.2,0.2-0.3c0.1,0.1,0.2,0.1,0.3,0.2
									c0.1,0.7,0.2,1,0.3,1.7c-0.1,0.1-0.1,0.2-0.2,0.3C205.7,10.7,205.7,10.7,205.5,10.6z"/>
								<path class="st2" d="M207.9,10.1c-0.1-0.7-0.2-1-0.3-1.7c0.1-0.1,0.1-0.2,0.2-0.3c0.1,0.1,0.2,0.1,0.3,0.2
									c0.1,0.7,0.2,1,0.3,1.7c-0.1,0.1-0.1,0.2-0.2,0.3C208.1,10.2,208.1,10.2,207.9,10.1z"/>
								<g>
									<path class="st2" d="M208,10.7c-0.7,0.1-1.1,0.2-1.8,0.4c-0.1-0.1-0.2-0.1-0.3-0.2c0.1-0.1,0.1-0.2,0.2-0.3
										c0.7-0.2,1.1-0.2,1.8-0.4c0.1,0.1,0.2,0.1,0.3,0.2C208.1,10.5,208.1,10.5,208,10.7z"/>
								</g>
							</g>
							<g>
								<path class="st2" d="M212.5,5.3c0.1,0.7,0.1,1,0.2,1.7c0.1,0.1,0.2,0.1,0.3,0.2c0.1-0.1,0.2-0.2,0.3-0.3
									c-0.1-0.7-0.1-1-0.2-1.7c-0.1-0.1-0.2-0.1-0.3-0.2C212.6,5.2,212.6,5.2,212.5,5.3z"/>
								<path class="st2" d="M212.4,4.8c-0.8,0.1-1.2,0.1-1.9,0.3c-0.1,0.1-0.2,0.2-0.3,0.3c0.1,0.1,0.2,0.1,0.3,0.2
									c0.8-0.1,1.1-0.2,1.9-0.3c0.1-0.1,0.2-0.2,0.3-0.3C212.6,4.9,212.5,4.9,212.4,4.8z"/>
								<path class="st2" d="M212.7,7.6c-0.7,0.1-1.1,0.1-1.8,0.2c-0.1-0.1-0.2-0.1-0.3-0.2c0.1-0.1,0.2-0.2,0.3-0.3
									c0.7-0.1,1.1-0.2,1.9-0.2c0.1,0.1,0.2,0.1,0.3,0.2C212.9,7.4,212.8,7.5,212.7,7.6z"/>
								<path class="st2" d="M212.9,9.3c-0.1-0.7-0.1-1-0.2-1.7c0.1-0.1,0.2-0.2,0.3-0.3c0.1,0.1,0.2,0.1,0.3,0.2
									c0.1,0.7,0.1,1,0.2,1.7c-0.1,0.1-0.2,0.2-0.3,0.3C213.1,9.5,213,9.4,212.9,9.3z"/>
								<g>
									<path class="st2" d="M212.9,9.9c-0.7,0.1-1.1,0.1-1.8,0.2C211,10,211,10,210.8,9.9c0.1-0.1,0.2-0.2,0.3-0.3
										c0.7-0.1,1.1-0.2,1.8-0.2c0.1,0.1,0.2,0.1,0.3,0.2C213.1,9.7,213,9.8,212.9,9.9z"/>
								</g>
							</g>
							<g>
								<path class="st2" d="M214,5.2c0.1,0.7,0.1,1,0.2,1.7c0.1,0.1,0.2,0.1,0.3,0.2c0.1-0.1,0.2-0.2,0.3-0.3
									c-0.1-0.7-0.1-1-0.1-1.7c-0.1-0.1-0.2-0.1-0.3-0.2C214.1,5,214.1,5.1,214,5.2z"/>
								<path class="st2" d="M216.6,5c0,0.7,0.1,1,0.1,1.7c0.1,0.1,0.2,0.2,0.3,0.3c0.1-0.1,0.2-0.2,0.3-0.3c0-0.7,0-1-0.1-1.7
									c-0.1-0.1-0.2-0.2-0.3-0.3C216.7,4.8,216.7,4.8,216.6,5z"/>
								<path class="st2" d="M216.5,4.4c-0.8,0.1-1.2,0.1-1.9,0.2c-0.1,0.1-0.2,0.2-0.3,0.3c0.1,0.1,0.2,0.1,0.3,0.2
									c0.8-0.1,1.2-0.1,1.9-0.2c0.1-0.1,0.2-0.2,0.3-0.3C216.7,4.5,216.6,4.5,216.5,4.4z"/>
								<path class="st2" d="M216.7,7.2c-0.7,0.1-1.1,0.1-1.9,0.1c-0.1-0.1-0.2-0.1-0.3-0.2c0.1-0.1,0.2-0.2,0.3-0.3
									c0.7-0.1,1.1-0.1,1.9-0.1c0.1,0.1,0.2,0.2,0.3,0.3C216.8,7.1,216.8,7.1,216.7,7.2z"/>
								<path class="st2" d="M216.8,9c0-0.7-0.1-1-0.1-1.7c0.1-0.1,0.2-0.2,0.3-0.3c0.1,0.1,0.2,0.2,0.3,0.3c0,0.7,0,1,0.1,1.7
									c-0.1,0.1-0.2,0.2-0.3,0.3C217,9.1,216.9,9.1,216.8,9z"/>
								<g>
									<path class="st2" d="M216.8,9.5c-0.7,0-1.1,0.1-1.8,0.1c-0.1-0.1-0.2-0.1-0.3-0.2c0.1-0.1,0.2-0.2,0.3-0.3
										c0.7-0.1,1.1-0.1,1.8-0.1c0.1,0.1,0.2,0.2,0.3,0.3C216.9,9.4,216.9,9.4,216.8,9.5z"/>
								</g>
							</g>
							<g>
								<path class="st2" d="M209.7,9.3c-0.2,0-0.3,0.1-0.5,0.1c0-0.2,0-0.3-0.1-0.5c0.2,0,0.3-0.1,0.5-0.1
									C209.7,9,209.7,9.1,209.7,9.3z"/>
								<path class="st2" d="M209.3,6.8c-0.2,0-0.3,0.1-0.5,0.1c0-0.2,0-0.3-0.1-0.5c0.2,0,0.3-0.1,0.5-0.1
									C209.3,6.5,209.3,6.6,209.3,6.8z"/>
							</g>
						</g>
					</g>
				</g>
			</g>
		</g>
		<path class="st2" d="M188.1,21.9c-0.2,0.1-0.5,0.2-0.7,0.3c-0.4,0.1-0.7,0.2-1.1,0.3c-3.5,0.7-6.9-0.9-8.5-3.9
			c-0.9-1.7-1-3.7-0.3-5.7c0.8-2,2.5-3.8,4.6-4.7c0.2-0.1,0.3-0.1,0.5-0.2c-0.2-0.4-0.3-0.6-0.5-1c-0.1,0.1-0.3,0.1-0.4,0.2
			c-2.4,1-4.3,3-5.2,5.3c-0.8,2.2-0.7,4.5,0.3,6.5c1.8,3.4,5.7,5.2,9.7,4.5c0.4-0.1,0.8-0.2,1.2-0.3c0.3-0.1,0.6-0.2,0.8-0.3
			c0.3-0.1,0.5-0.2,0.8-0.3c-0.2-0.4-0.3-0.6-0.4-1C188.6,21.7,188.4,21.8,188.1,21.9z"/>
		<g>
			<g>
				<g>
					<path class="st2" d="M400.5,21c-9.6-4.1-19.8-6.9-30.2-8.1c-3.8-0.4-6.8-3.5-6.6-7.1c0.2-3.5,3.8-6.3,8.1-5.8
						c11.8,1.8,22.7,4.7,33.8,9.2c3.8,1.6,5.4,5.7,3.8,8.9c-1.5,2.9-5,4.2-8.3,3.1l0,0C401,21.2,400.7,21.1,400.5,21z M364.7,6
						c-0.2,3.1,2.4,5.8,5.7,6.2c10.4,1.2,20.7,4,30.4,8.1c0.2,0.1,0.4,0.2,0.6,0.2l0,0c2.8,0.9,6-0.2,7.3-2.8c1.4-2.8,0-6.3-3.3-7.8
						c-10.8-4.7-22-7.3-33.6-9.1c-0.2,0-0.5,0-0.7-0.1C367.7,0.8,364.8,3.1,364.7,6z"/>
				</g>
			</g>
			<g>
				<g>
					<g>
						<path class="st2" d="M400.6,19.1c-2.3-1.1-3.3-3.9-2.3-6.1c1.1-2.2,3.9-3.1,6.2-2c2.3,1.2,3.3,3.9,2.2,6.1
							C405.7,19.4,402.9,20.2,400.6,19.1z"/>
					</g>
					<g>
						<path class="st2" d="M401,18.2c1.8,0.9,4,0.2,4.8-1.5c0.9-1.7,0.1-3.9-1.7-4.8c-1.8-0.9-4-0.2-4.8,1.5
							C398.4,15.1,399.2,17.3,401,18.2z M401.1,17.9c-1.7-0.8-2.4-2.8-1.6-4.4c0.8-1.6,2.8-2.2,4.4-1.4c1.7,0.8,2.4,2.8,1.6,4.4
							C404.8,18.1,402.8,18.7,401.1,17.9z"/>
					</g>
				</g>
				<g>
					<g>
						<path class="st2" d="M401.6,16.9c1.1,0.5,2.4,0.1,2.9-0.9c0.5-1.1,0-2.4-1.1-2.9c-1.1-0.5-2.4-0.1-2.9,0.9
							C400,15.1,400.5,16.4,401.6,16.9z M400.7,14.1c0.5-1,1.7-1.3,2.7-0.8c1,0.5,1.4,1.7,1,2.6c-0.5,1-1.7,1.3-2.7,0.8
							C400.7,16.3,400.3,15.1,400.7,14.1z"/>
						<g>
							<path class="st2" d="M400.6,14.1c0,0,0.1,0.1,0,0.1c-0.4,1,0.1,2.2,1.1,2.6c0.9,0.4,2,0.1,2.5-0.8c0.5-0.9,0.2-2.2-0.8-2.7
								c0,0-0.1-0.1,0-0.1c0,0,0.1-0.1,0.1,0c1,0.6,1.4,1.9,0.9,2.9c-0.5,1-1.7,1.4-2.8,0.9c-1.1-0.5-1.7-1.8-1.2-2.8
								C400.5,14.1,400.6,14.1,400.6,14.1z"/>
						</g>
					</g>
				</g>
				<g>
					<g>
						<path class="st2" d="M403.7,17.8c1.5-0.5,2.3-2.2,1.7-3.7c-0.6-1.5-2.4-2.3-3.9-1.8c-1.5,0.6-2.3,2.2-1.6,3.8
							C400.4,17.5,402.1,18.3,403.7,17.8z M400,15.9c-0.6-1.4,0.1-2.9,1.5-3.4c1.4-0.5,3,0.2,3.6,1.6c0.6,1.4-0.1,2.9-1.5,3.4
							C402.2,18,400.6,17.3,400,15.9z"/>
						<g>
							<path class="st2" d="M399.9,16c0.1,0,0.1,0,0.1,0.1c0.6,1.4,2.3,2,3.7,1.4c1.3-0.5,1.9-1.9,1.4-3.2c-0.5-1.4-2.1-2.2-3.5-1.8
								c-0.1,0-0.1,0-0.1-0.1c0-0.1,0-0.1,0.1-0.1c1.5-0.4,3.2,0.4,3.7,1.9c0.5,1.4-0.1,3-1.5,3.6c-1.5,0.6-3.3-0.1-4-1.6
								C399.8,16.1,399.9,16,399.9,16z"/>
						</g>
					</g>
				</g>
				<g>
					<g>
						<path class="st2" d="M405.6,13.2c-1.1-1.7-3.4-2.3-5.1-1.3c-1.7,1-2.2,3.2-1.1,4.9c1.1,1.7,3.4,2.2,5.1,1.2
							C406.2,17.1,406.7,14.9,405.6,13.2z M404.3,17.8c-1.5,0.9-3.6,0.4-4.6-1.1c-1-1.5-0.6-3.5,1-4.4c1.5-0.9,3.6-0.4,4.6,1.1
							C406.3,14.9,405.9,16.9,404.3,17.8z"/>
						<g>
							<path class="st2" d="M404.5,17.9c0-0.1,0-0.1,0-0.2c1.5-1,1.9-3,0.8-4.6c-1-1.4-2.9-1.8-4.4-1.1c-1.6,0.8-2.2,2.8-1.2,4.4
								c0,0.1,0,0.1,0,0.2c-0.1,0-0.1,0-0.2-0.1c-1-1.7-0.4-3.8,1.3-4.7c1.6-0.9,3.7-0.4,4.8,1.1c1.2,1.7,0.8,3.9-0.8,4.9
								C404.6,18,404.5,18,404.5,17.9z"/>
						</g>
					</g>
				</g>
			</g>
			<g>
				<g>
					<g>
						<g>
							<g>
								<path class="st2" d="M371.4,4.9c0,0.7,0,1-0.1,1.7c0.1,0.1,0.2,0.2,0.3,0.3c0.1-0.1,0.2-0.2,0.3-0.3c0-0.7,0-1,0.1-1.7
									c-0.1-0.1-0.2-0.2-0.3-0.3C371.6,4.7,371.6,4.8,371.4,4.9z"/>
								<path class="st2" d="M374,4.5c-0.8-0.1-1.1-0.1-1.9-0.2c-0.1,0.1-0.2,0.2-0.3,0.3c0.1,0.1,0.2,0.2,0.3,0.3
									c0.8,0.1,1.1,0.1,1.9,0.2c0.1-0.1,0.2-0.1,0.3-0.2C374.2,4.7,374.1,4.6,374,4.5z"/>
								<path class="st2" d="M373.8,7.3c-0.7-0.1-1.1-0.1-1.8-0.2c-0.1-0.1-0.2-0.2-0.3-0.3c0.1-0.1,0.2-0.2,0.3-0.3
									c0.7,0.1,1.1,0.1,1.8,0.2c0.1,0.1,0.2,0.2,0.3,0.3C374,7.2,373.9,7.2,373.8,7.3z"/>
								<path class="st2" d="M371.3,8.9c0-0.7,0-1,0.1-1.7c0.1-0.1,0.2-0.2,0.3-0.3c0.1,0.1,0.2,0.2,0.3,0.3c0,0.7,0,1-0.1,1.7
									c-0.1,0.1-0.2,0.2-0.3,0.3C371.4,9,371.4,9,371.3,8.9z"/>
								<path class="st2" d="M373.7,9.1c0.1-0.7,0.1-1,0.1-1.7c0.1-0.1,0.2-0.1,0.3-0.2c0.1,0.1,0.2,0.2,0.3,0.3
									c-0.1,0.7-0.1,1-0.1,1.7c-0.1,0.1-0.2,0.1-0.3,0.2C373.8,9.3,373.8,9.2,373.7,9.1z"/>
								<g>
									<path class="st2" d="M373.6,9.6c-0.7-0.1-1.1-0.1-1.8-0.2c-0.1-0.1-0.2-0.2-0.3-0.3c0.1-0.1,0.2-0.2,0.3-0.3
										c0.7,0.1,1.1,0.1,1.8,0.2c0.1,0.1,0.2,0.2,0.3,0.3C373.8,9.5,373.7,9.5,373.6,9.6z"/>
								</g>
							</g>
							<g>
								<path class="st2" d="M378,5.6c-0.1,0.7-0.1,1-0.2,1.7c0.1,0.1,0.2,0.2,0.3,0.3c0.1-0.1,0.2-0.1,0.3-0.2
									c0.1-0.7,0.1-1,0.2-1.7c-0.1-0.1-0.2-0.2-0.3-0.3C378.2,5.5,378.1,5.5,378,5.6z"/>
								<path class="st2" d="M378,5c-0.8-0.1-1.1-0.2-1.9-0.3c-0.1,0.1-0.2,0.1-0.3,0.2c0.1,0.1,0.2,0.2,0.3,0.3
									c0.7,0.1,1.1,0.2,1.9,0.3c0.1-0.1,0.2-0.1,0.3-0.2C378.2,5.2,378.1,5.2,378,5z"/>
								<path class="st2" d="M377.7,7.9c-0.7-0.1-1.1-0.2-1.8-0.3c-0.1-0.1-0.2-0.2-0.3-0.3c0.1-0.1,0.2-0.1,0.3-0.2
									c0.7,0.1,1.1,0.2,1.8,0.3c0.1,0.1,0.2,0.2,0.3,0.3C377.9,7.7,377.8,7.8,377.7,7.9z"/>
								<path class="st2" d="M375.1,9.2c0.1-0.7,0.1-1,0.2-1.7c0.1-0.1,0.2-0.1,0.3-0.2c0.1,0.1,0.2,0.2,0.3,0.3
									c-0.1,0.7-0.1,1-0.2,1.7c-0.1,0.1-0.2,0.1-0.3,0.2C375.2,9.4,375.2,9.4,375.1,9.2z"/>
								<g>
									<path class="st2" d="M377.4,10.1c-0.7-0.1-1.1-0.2-1.8-0.3c-0.1-0.1-0.2-0.2-0.3-0.3c0.1-0.1,0.2-0.1,0.3-0.2
										c0.7,0.1,1.1,0.1,1.8,0.3c0.1,0.1,0.1,0.2,0.2,0.3C377.5,10,377.5,10,377.4,10.1z"/>
								</g>
							</g>
							<g>
								<path class="st2" d="M379.4,9.4c-0.2,0-0.3-0.1-0.5-0.1c0-0.2,0-0.3,0.1-0.5c0.2,0,0.3,0.1,0.5,0.1
									C379.4,9.1,379.4,9.2,379.4,9.4z"/>
								<path class="st2" d="M379.8,6.9c-0.2,0-0.3-0.1-0.5-0.1c0-0.2,0-0.3,0.1-0.5c0.2,0,0.3,0.1,0.5,0.1
									C379.8,6.6,379.8,6.7,379.8,6.9z"/>
							</g>
							<g>
								<path class="st2" d="M383.2,6.7c-0.1,0.7-0.2,1-0.3,1.7c0.1,0.1,0.1,0.2,0.2,0.3c0.1-0.1,0.2-0.1,0.3-0.2
									c0.1-0.7,0.2-1,0.4-1.7c-0.1-0.1-0.1-0.2-0.2-0.3C383.4,6.5,383.4,6.6,383.2,6.7z"/>
								<path class="st2" d="M383.3,6.1c-0.7-0.2-1.1-0.3-1.9-0.4c-0.1,0.1-0.2,0.1-0.3,0.2c0.1,0.1,0.2,0.2,0.3,0.3
									c0.7,0.2,1.1,0.2,1.9,0.4c0.1-0.1,0.2-0.1,0.4-0.2C383.5,6.3,383.4,6.2,383.3,6.1z"/>
								<path class="st2" d="M382.7,8.9c-0.7-0.2-1.1-0.2-1.8-0.4c-0.1-0.1-0.1-0.2-0.2-0.3c0.1-0.1,0.2-0.1,0.3-0.2
									c0.7,0.1,1.1,0.2,1.8,0.4c0.1,0.1,0.1,0.2,0.2,0.3C383,8.8,382.9,8.8,382.7,8.9z"/>
								<path class="st2" d="M382.4,10.6c0.1-0.7,0.2-1,0.3-1.7c0.1-0.1,0.2-0.1,0.3-0.2c0.1,0.1,0.1,0.2,0.2,0.3
									c-0.1,0.7-0.2,1-0.4,1.7c-0.1,0.1-0.2,0.1-0.3,0.2C382.6,10.8,382.5,10.7,382.4,10.6z"/>
								<g>
									<path class="st2" d="M382.3,11.1c-0.7-0.2-1-0.2-1.7-0.4c-0.1-0.1-0.1-0.2-0.2-0.3c0.1-0.1,0.2-0.1,0.3-0.2
										c0.7,0.1,1.1,0.2,1.8,0.4c0.1,0.1,0.1,0.2,0.2,0.3C382.5,11,382.4,11,382.3,11.1z"/>
								</g>
							</g>
							<g>
								<path class="st2" d="M384.7,7c-0.1,0.7-0.2,1-0.4,1.7c0.1,0.1,0.1,0.2,0.2,0.3c0.1-0.1,0.2-0.1,0.4-0.2
									c0.2-0.7,0.2-1,0.4-1.6C385.2,7,385.1,7,385,6.8C384.9,6.9,384.8,6.9,384.7,7z"/>
								<path class="st2" d="M387.2,7.7c-0.2,0.7-0.3,1-0.4,1.6c0.1,0.1,0.1,0.2,0.2,0.3c0.1-0.1,0.2-0.1,0.4-0.2
									c0.2-0.7,0.3-1,0.4-1.6c-0.1-0.1-0.1-0.2-0.2-0.4C387.4,7.6,387.3,7.6,387.2,7.7z"/>
								<path class="st2" d="M387.3,7.1c-0.7-0.2-1.1-0.3-1.9-0.5c-0.1,0.1-0.2,0.1-0.4,0.2c0.1,0.1,0.1,0.2,0.2,0.3
									c0.7,0.2,1.1,0.3,1.8,0.5c0.1-0.1,0.2-0.1,0.4-0.2C387.4,7.3,387.4,7.3,387.3,7.1z"/>
								<path class="st2" d="M386.6,9.9c-0.7-0.2-1.1-0.3-1.8-0.5c-0.1-0.1-0.1-0.2-0.2-0.3c0.1-0.1,0.2-0.1,0.4-0.2
									c0.7,0.2,1.1,0.3,1.8,0.5c0.1,0.1,0.1,0.2,0.2,0.3C386.8,9.8,386.7,9.8,386.6,9.9z"/>
								<path class="st2" d="M383.8,10.9c0.2-0.7,0.2-1,0.4-1.6c0.1-0.1,0.2-0.1,0.4-0.2c0.1,0.1,0.1,0.2,0.2,0.3
									c-0.2,0.7-0.2,1-0.4,1.6c-0.1,0.1-0.2,0.1-0.3,0.2C383.9,11.1,383.9,11,383.8,10.9z"/>
								<path class="st2" d="M386.1,11.5c0.2-0.7,0.3-1,0.4-1.6c0.1-0.1,0.2-0.1,0.4-0.2c0.1,0.1,0.1,0.2,0.2,0.3
									c-0.2,0.7-0.3,1-0.4,1.6c-0.1,0.1-0.2,0.1-0.4,0.2C386.3,11.8,386.2,11.7,386.1,11.5z"/>
								<g>
									<path class="st2" d="M386,12.1c-0.7-0.2-1-0.3-1.7-0.5c-0.1-0.1-0.1-0.2-0.2-0.3c0.1-0.1,0.2-0.1,0.3-0.2
										c0.7,0.2,1,0.3,1.7,0.5c0.1,0.1,0.1,0.2,0.2,0.3C386.2,12,386.1,12,386,12.1z"/>
								</g>
							</g>
							<g>
								<path class="st2" d="M392.2,9.4c-0.2,0.6-0.3,1-0.5,1.6c0.1,0.1,0.1,0.2,0.2,0.4c0.1-0.1,0.2-0.1,0.4-0.2
									c0.2-0.6,0.3-1,0.6-1.6c-0.1-0.1-0.1-0.2-0.2-0.4C392.5,9.3,392.4,9.3,392.2,9.4z"/>
								<path class="st2" d="M392.4,8.8c-0.7-0.3-1.1-0.4-1.8-0.6c-0.2,0.1-0.2,0.1-0.4,0.2c0.1,0.1,0.1,0.2,0.2,0.4
									c0.7,0.2,1.1,0.4,1.8,0.6c0.2-0.1,0.2-0.1,0.4-0.2C392.5,9,392.5,8.9,392.4,8.8z"/>
								<path class="st2" d="M391.5,11.5c-0.7-0.3-1.1-0.4-1.8-0.6c-0.1-0.1-0.1-0.2-0.2-0.4c0.1-0.1,0.2-0.1,0.4-0.2
									c0.7,0.2,1.1,0.4,1.8,0.6c0.1,0.1,0.1,0.2,0.2,0.4C391.7,11.4,391.6,11.4,391.5,11.5z"/>
								<path class="st2" d="M391,13.1c0.2-0.6,0.3-1,0.6-1.6c0.1-0.1,0.2-0.1,0.4-0.2c0.1,0.1,0.1,0.2,0.2,0.4
									c-0.2,0.6-0.3,1-0.6,1.6c-0.1,0.1-0.2,0.1-0.4,0.2C391.1,13.3,391,13.3,391,13.1z"/>
								<g>
									<path class="st2" d="M390.7,13.7c-0.7-0.2-1-0.4-1.7-0.6c-0.1-0.1-0.1-0.2-0.2-0.4c0.1-0.1,0.2-0.1,0.4-0.2
										c0.7,0.2,1,0.4,1.7,0.6c0.1,0.1,0.1,0.2,0.2,0.4C391,13.6,390.9,13.6,390.7,13.7z"/>
								</g>
							</g>
							<g>
								<path class="st2" d="M393.7,9.9c-0.2,0.6-0.3,1-0.6,1.6c0.1,0.1,0.1,0.2,0.2,0.4c0.2-0.1,0.2-0.1,0.4-0.1
									c0.2-0.6,0.4-0.9,0.6-1.6c-0.1-0.1-0.1-0.2-0.2-0.4C393.9,9.8,393.8,9.8,393.7,9.9z"/>
								<path class="st2" d="M396.1,10.9c-0.3,0.6-0.4,0.9-0.6,1.6c0.1,0.1,0.1,0.2,0.2,0.4c0.2-0.1,0.2-0.1,0.4-0.1
									c0.3-0.6,0.4-0.9,0.6-1.6c-0.1-0.2-0.1-0.2-0.2-0.4C396.3,10.8,396.2,10.8,396.1,10.9z"/>
								<path class="st2" d="M396.3,10.3c-0.7-0.3-1.1-0.5-1.8-0.7c-0.2,0.1-0.2,0.1-0.4,0.1c0.1,0.1,0.1,0.2,0.2,0.4
									c0.7,0.3,1.1,0.4,1.8,0.7c0.2-0.1,0.2-0.1,0.4-0.1C396.4,10.6,396.3,10.5,396.3,10.3z"/>
								<path class="st2" d="M395.2,13c-0.7-0.3-1-0.4-1.7-0.7c-0.1-0.1-0.1-0.2-0.2-0.4c0.2-0.1,0.2-0.1,0.4-0.1
									c0.7,0.3,1.1,0.4,1.7,0.7c0.1,0.1,0.1,0.2,0.2,0.4C395.4,12.9,395.4,12.9,395.2,13z"/>
								<path class="st2" d="M394.6,14.6c0.3-0.6,0.4-0.9,0.6-1.6c0.2-0.1,0.2-0.1,0.4-0.1c0.1,0.1,0.1,0.2,0.2,0.4
									c-0.3,0.6-0.4,0.9-0.7,1.6c-0.2,0.1-0.2,0.1-0.4,0.1C394.7,14.8,394.6,14.7,394.6,14.6z"/>
								<g>
									<path class="st2" d="M394.3,15.1c-0.7-0.3-1-0.4-1.7-0.7c-0.1-0.1-0.1-0.2-0.2-0.4c0.1-0.1,0.2-0.1,0.4-0.1
										c0.7,0.3,1,0.4,1.7,0.7c0.1,0.1,0.1,0.2,0.2,0.4C394.6,15,394.5,15,394.3,15.1z"/>
								</g>
							</g>
							<g>
								<path class="st2" d="M388.1,11.6c-0.2-0.1-0.3-0.1-0.5-0.2c0.1-0.2,0.1-0.3,0.1-0.5c0.2,0.1,0.3,0.1,0.5,0.2
									C388.2,11.3,388.2,11.4,388.1,11.6z"/>
								<path class="st2" d="M388.8,9.2c-0.2-0.1-0.3-0.1-0.5-0.2c0.1-0.2,0.1-0.3,0.1-0.5c0.2,0.1,0.3,0.1,0.5,0.2
									C388.9,8.9,388.9,9,388.8,9.2z"/>
							</g>
						</g>
					</g>
				</g>
			</g>
		</g>
		<path class="st2" d="M400.1,22c0.2,0.1,0.5,0.2,0.7,0.3c0.4,0.1,0.7,0.2,1.1,0.3c3.5,0.7,6.9-0.9,8.5-3.9c0.9-1.7,1-3.7,0.3-5.7
			c-0.8-2-2.5-3.8-4.6-4.7c-0.2-0.1-0.3-0.1-0.5-0.2c0.2-0.4,0.3-0.6,0.5-1c0.1,0.1,0.3,0.1,0.4,0.2c2.4,1,4.3,3,5.2,5.3
			c0.8,2.2,0.7,4.5-0.3,6.5c-1.8,3.4-5.7,5.2-9.7,4.4c-0.4-0.1-0.8-0.2-1.2-0.3c-0.3-0.1-0.6-0.2-0.8-0.3c-0.3-0.1-0.5-0.2-0.8-0.3
			c0.2-0.4,0.3-0.6,0.4-1C399.6,21.8,399.9,21.9,400.1,22z"/>
	</g>
</g>
</svg>
