<?xml version="1.0" encoding="utf-8"?>
<!-- Generator: Adobe Illustrator 19.1.0, SVG Export Plug-In . SVG Version: 6.00 Build 0)  -->
<svg version="1.1" id="Layer_1" xmlns="http://www.w3.org/2000/svg" xmlns:xlink="http://www.w3.org/1999/xlink" x="0px" y="0px"
	 viewBox="0 0 113.8 114.1" style="enable-background:new 0 0 113.8 114.1;" xml:space="preserve">
<style type="text/css">
	.st0{fill:#2AAAE2;}
	.st1{fill:#24B574;}
	.st2{fill:#FFFFFF;}
</style>
<g>
	<g>
		<g>
			<path class="st2" d="M83.8,57.1c0,5.7-1.8,11.1-4.9,15.4l9.3,9.3c5.4-6.8,8.6-15.4,8.6-24.8c0-9.3-3.2-17.9-8.6-24.8l-9.3,9.3
				C81.9,46,83.8,51.3,83.8,57.1z"/>
		</g>
		<g>
			<path class="st2" d="M57,30.3c5.7,0,11,1.8,15.4,4.9l9.3-9.3c-6.8-5.4-15.4-8.6-24.7-8.6c-9.4,0-18,3.2-24.8,8.6l9.3,9.3
				C45.9,32.1,51.2,30.3,57,30.3z"/>
		</g>
		<g>
			<path class="st2" d="M30.2,57.1c0-5.7,1.8-11,4.9-15.4l-9.3-9.3c-5.4,6.8-8.6,15.4-8.6,24.8c0,9.4,3.2,18,8.6,24.8l9.3-9.3
				C32,68.1,30.2,62.8,30.2,57.1z"/>
		</g>
		<g>
			<path class="st2" d="M57,83.9c-5.7,0-11.1-1.8-15.4-4.9l-9.3,9.3c6.8,5.4,15.4,8.6,24.8,8.6c9.3,0,17.9-3.2,24.7-8.6l-9.3-9.3
				C68,82,62.7,83.9,57,83.9z"/>
		</g>
	</g>
	<g>
		<g>
			<path class="st2" d="M57.8,104.4v9.7c0.3,0,0.6,0,0.9,0v-9.7C58.4,104.4,58.1,104.4,57.8,104.4z"/>
		</g>
		<g>
			<path class="st2" d="M58.7,9.8V0c-0.3,0-0.6,0-0.9,0v9.7C58.1,9.8,58.4,9.8,58.7,9.8z"/>
		</g>
		<g>
			<path class="st2" d="M69.5,102.7l2.7,9.4c0.3-0.1,0.6-0.2,0.9-0.3l-2.7-9.4C70.1,102.5,69.8,102.6,69.5,102.7z"/>
		</g>
		<g>
			<path class="st2" d="M44,11.5l-2.7-9.4c-0.3,0.1-0.6,0.2-0.9,0.2l2.7,9.4C43.4,11.7,43.7,11.6,44,11.5z"/>
		</g>
		<g>
			<path class="st2" d="M30.6,17.7l-5.2-8.2c-0.3,0.2-0.5,0.3-0.8,0.5l5.2,8.2C30.1,18,30.4,17.9,30.6,17.7z"/>
		</g>
		<g>
			<path class="st2" d="M80.5,98.1l5.2,8.2c0.3-0.2,0.5-0.3,0.8-0.5l-5.2-8.2C81,97.8,80.7,98,80.5,98.1z"/>
		</g>
		<g>
			<path class="st2" d="M19.9,27.5L12.6,21c-0.2,0.2-0.4,0.5-0.6,0.7l7.3,6.5C19.6,28,19.7,27.7,19.9,27.5z"/>
		</g>
		<g>
			<path class="st2" d="M90.1,90.8l7.3,6.5c0.2-0.2,0.4-0.5,0.6-0.7l-7.3-6.5C90.6,90.3,90.3,90.6,90.1,90.8z"/>
		</g>
		<g>
			<path class="st2" d="M12.8,39.7L4,35.6c-0.1,0.3-0.2,0.6-0.3,0.9l8.8,4.2C12.6,40.3,12.7,40,12.8,39.7z"/>
		</g>
		<g>
			<path class="st2" d="M97.8,80.9l8.8,4.2c0.2-0.3,0.3-0.5,0.5-0.8l-8.8-4.2C98.1,80.4,97.9,80.7,97.8,80.9z"/>
		</g>
		<g>
			<path class="st2" d="M9.7,53.2l-9.7-1.6C0,51.9,0,52.2,0,52.5l9.6,1.6C9.7,53.8,9.7,53.5,9.7,53.2z"/>
		</g>
		<g>
			<path class="st2" d="M102.9,68.1c-0.1,0.3-0.1,0.6-0.2,0.9l9.7,1.6c0.1-0.3,0.1-0.6,0.2-0.9L102.9,68.1z"/>
		</g>
		<g>
			<path class="st2" d="M104.2,55.9l9.7-1.2c0-0.3,0-0.6,0-0.9l-9.7,1.2C104.2,55.2,104.2,55.6,104.2,55.9z"/>
		</g>
		<g>
			<path class="st2" d="M10.5,66.5l-9.7,1.2C0.9,68,0.9,68.3,1,68.6l9.7-1.2C10.6,67.1,10.6,66.8,10.5,66.5z"/>
		</g>
		<g>
			<path class="st2" d="M101.9,42.3l9-3.8c-0.1-0.3-0.2-0.6-0.3-0.9l-9,3.8C101.7,41.7,101.8,42,101.9,42.3z"/>
		</g>
		<g>
			<path class="st2" d="M14.8,78.7l-9,3.8c0.1,0.3,0.3,0.6,0.4,0.8l9-3.8C15.1,79.2,14.9,78.9,14.8,78.7z"/>
		</g>
		<g>
			<path class="st2" d="M95.5,29.7l7.6-6.2c-0.2-0.3-0.4-0.5-0.5-0.8L95,29C95.2,29.2,95.3,29.5,95.5,29.7z"/>
		</g>
		<g>
			<path class="st2" d="M21.9,88.9l-7.5,6.2c0.2,0.2,0.4,0.5,0.6,0.7l7.6-6.2C22.3,89.4,22.1,89.2,21.9,88.9z"/>
		</g>
		<g>
			<path class="st2" d="M31.2,96.8l-5.5,8c0.3,0.2,0.5,0.3,0.8,0.5l5.5-8C31.7,97.1,31.4,97,31.2,96.8z"/>
		</g>
		<g>
			<path class="st2" d="M85.5,19.3l5.5-8c-0.2-0.2-0.5-0.4-0.8-0.5l-5.5,8C85,19,85.2,19.1,85.5,19.3z"/>
		</g>
		<g>
			<path class="st2" d="M41.9,102l-3.1,9.3c0.3,0.1,0.6,0.2,0.9,0.3l3.1-9.3C42.5,102.2,42.2,102.1,41.9,102z"/>
		</g>
		<g>
			<path class="st2" d="M72.5,12.4l3.1-9.3C75.3,3,75,2.9,74.7,2.8l-3.1,9.3C71.9,12.2,72.2,12.3,72.5,12.4z"/>
		</g>
	</g>
	<g>
		<path class="st2" d="M66.4,57.5c0,5-4.1,9.1-9.1,9.1c-5,0-9.1-4.1-9.1-9.1c0-5,4.1-9.1,9.1-9.1C62.3,48.4,66.4,52.5,66.4,57.5z"/>
	</g>
</g>
</svg>
