<?xml version="1.0" encoding="utf-8"?>
<!-- Generator: Adobe Illustrator 19.1.0, SVG Export Plug-In . SVG Version: 6.00 Build 0)  -->
<svg version="1.1" id="Layer_1" xmlns="http://www.w3.org/2000/svg" xmlns:xlink="http://www.w3.org/1999/xlink" x="0px" y="0px"
	 viewBox="0 0 666 666" style="enable-background:new 0 0 666 666;" xml:space="preserve">
<style type="text/css">
	.st0{fill:#FFFFFF;}
	.st1{fill:#2AAAE2;}
	.st2{fill:#24B574;}
	.st3{fill:#F2F2F2;}
	.st4{opacity:0.1;}
	.st5{fill:#E6E6E6;}
</style>
<path class="st0" d="M53.7,328.2l19.2,0.3c-0.5,29.6,4,59.5,13.5,87.7c9.5,28.2,23.9,54.8,42.2,78.1c18.4,23.4,40.7,43.6,65.8,59.5
	c25.1,15.9,53,27.5,82,34.1c29.1,6.6,59.1,8.1,88.6,4.6c29.5-3.4,58.5-12,85.2-25.3c26.7-13.2,51-31,71.7-52.3
	c20.7-21.3,37.8-46.2,50.2-73.2l-18.5-8.5c13.7-29.8,21.1-62.4,21.8-95.2c0.7-32.7-5.3-65.7-17.6-96c-12.3-30.4-31-58.1-54.4-81.1
	c-23.3-23-51.4-41.2-82-53l14.3-36.9c-32.3-12.6-67-18.9-101.4-18.9v63.4c37-0.1,73.9,9.5,106.1,27.6c32.2,18,59.8,44.5,79.1,75.9
	c19.4,31.4,30.5,67.9,32,104.9c1.6,36.9-6.4,74.2-23.2,107.1c-16.7,33-42,61.5-72.6,82.2c-30.6,20.7-66.6,33.3-103.4,36.3
	c-36.9,3-74.4-3.4-108-18.8c-33.6-15.3-63.2-39.4-85.1-69.2l-12.3,9.1c-16-21.7-28.1-46.1-35.7-71.9c-7.6-25.8-10.6-52.9-9-79.8
	c1.6-26.8,7.8-53.4,18.5-78.1c10.6-24.7,25.6-47.5,44-67.1l11.2,10.5c20.3-21.6,45-39.1,72.1-50.8c27.2-11.8,56.8-17.9,86.4-17.9
	V52.1c-36.2,0-72.7,7-106.4,20.9c-33.7,13.8-64.6,34.2-90.5,59.7c-25.9,25.4-46.8,56-61.2,89.4C62,255.6,54.3,291.9,53.7,328.2z"/>
<path class="st0" d="M635.9,470.9l-57.6-26.4c-11.4,24.9-26.7,48.1-45.1,68.3l14,12.7c-22.9,25.2-50.2,46.4-80.5,62.2
	c-30.3,15.8-63.5,26.1-97.3,30.2c-33.8,4.1-68.2,2.3-101.5-5.6c-33.3-7.9-65.1-21.8-93.4-40.8c-28.3-19-53.2-43-73.1-70.7
	c-20-27.6-35-58.9-44-91.9c-9.1-33-12-67.4-9.1-101.3c2.9-34,12.1-67.5,26.8-98.3l17.1,8.2c21.7-45.5,56.4-84.5,99-111.4
	c21.3-13.5,44.5-23.9,68.7-30.9c24.2-7,49.4-10.5,74.5-10.5V1.3c-29.4,0-59.1,3.9-87.7,11.7c-28.6,7.8-56.2,19.6-81.6,34.7
	c-50.9,30.2-93.3,74.1-121.7,126.1c-14.2,26-25,53.9-31.8,82.8C4.8,285.5,2,315.2,3,344.5c1,29.4,6,59,14.8,87.3
	c8.8,28.3,21.5,55.4,37.5,80.3c32,49.8,77.3,90.6,130.3,117.2c26.5,13.3,54.8,23,83.9,28.8c29.1,5.8,58.7,7.6,88.1,5.5
	c29.5-2,58.8-8.1,86.8-17.9c28-9.8,54.6-23.5,78.9-40.4C572,571.6,611.3,524.9,635.9,470.9z"/>
<path class="st0" d="M460.5,23.6C422.4,8.8,381.3,1.3,340.7,1.3v63.4c32.9,0,66.1,6.1,96.9,18.1L460.5,23.6z"/>
<path class="st0" d="M584.7,108.3c-27.6-30-60.8-54.9-97.5-72.9L452.9,105c28.1,13.8,53.5,32.9,74.7,55.9L584.7,108.3z"/>
<path class="st0" d="M656.8,233.9c-8.5-35.5-23-69.5-42.6-100.2C594.6,103,570,75.6,541.7,52.9l-48.5,60.6
	c21.7,17.4,40.6,38.4,55.6,61.9c15,23.5,26.1,49.5,32.6,76.7L656.8,233.9z"/>
</svg>
