<?xml version="1.0" encoding="utf-8"?>
<!-- Generator: Adobe Illustrator 19.1.0, SVG Export Plug-In . SVG Version: 6.00 Build 0)  -->
<svg version="1.1" id="Layer_1" xmlns="http://www.w3.org/2000/svg" xmlns:xlink="http://www.w3.org/1999/xlink" x="0px" y="0px"
	 viewBox="0 0 666 666" style="enable-background:new 0 0 666 666;" xml:space="preserve">
<style type="text/css">
	.st0{fill:#FFFFFF;}
	.st1{fill:#2AAAE2;}
	.st2{fill:#24B574;}
	.st3{fill:#F2F2F2;}
	.st4{opacity:0.1;}
	.st5{fill:#E6E6E6;}
</style>
<path class="st0" d="M210.1,226.3c-23.4,27.1-37.4,61.8-39.2,97.5c-2,36,7.9,71.8,28.2,101.3l36.7-25.1
	c-14.8-21.6-21.9-47.3-20.5-73.9c0.7-13.1,3.5-25.8,8.4-37.8c4.8-12,11.7-23.3,20.2-33.2L210.1,226.3z"/>
<path class="st3" d="M565.4,438.6l-11.6-5.3c13.7-29.8,21.1-62.4,21.8-95.2c0.7-32.7-5.3-65.7-17.6-96c-12.3-30.4-31-58.1-54.4-81.1
	c-23.3-23-51.4-41.2-82-53l4.6-11.9c-29.2-11.3-60.5-17.1-91.7-17.1V109c38.1-0.1,76.1,9.8,109.3,28.4
	c33.2,18.6,61.6,45.8,81.5,78.2c20,32.4,31.5,70,32.9,108c1.6,38-6.6,76.4-23.9,110.4c-17.2,34-43.2,63.4-74.8,84.6
	C427.9,540,390.8,553,352.9,556c-37.9,3.1-76.7-3.5-111.3-19.3c-34.6-15.8-65.1-40.6-87.6-71.2l-7.1,5.2
	c-16-21.7-28.1-46.1-35.7-71.9c-7.6-25.8-10.6-52.9-9-79.8c1.6-26.8,7.8-53.4,18.5-78.1c10.6-24.7,25.6-47.5,44-67.1l6.4,6
	c20.9-22.3,46.3-40.2,74.3-52.4c28-12.2,58.5-18.4,89-18.4V78.9c-22.6,0-45.3,3-67.2,9c-21.9,6-42.9,14.9-62.4,26.5
	c-39,23.1-71.6,56.8-93.3,96.6c-21.9,39.7-32.6,85.6-30.9,130.8c1.5,45.3,15.5,90.2,40.1,128.3c24.5,38.2,59.3,69.5,99.9,89.8
	c40.5,20.5,86.7,29.5,131.8,26.3c45.2-3.1,89.6-18.7,126.8-44.6C516.4,515.8,546.5,479.9,565.4,438.6z"/>
<path class="st0" d="M584.7,108.3c-27.6-30-60.8-54.9-97.5-72.9L452.9,105c28.1,13.8,53.5,32.9,74.7,55.9L584.7,108.3z"/>
<path class="st3" d="M647.6,441.9c24.9-71.5,24.5-150.3-1.3-221.5c-12.8-35.5-31.7-68.7-55.6-97.7c-23.8-29.1-52.6-54-84.8-73.5
	l-20.1,33.2c28.4,17.2,53.9,39.3,74.9,64.9c21.1,25.7,37.8,55,49.1,86.3c22.7,62.8,23.1,132.6,1.1,195.6L647.6,441.9z"/>
<path class="st0" d="M149.4,352.2c3.1,30.5,13.9,60.1,31.3,85.5l36.7-25.1c-13.2-19.3-21.4-41.7-23.8-64.9L149.4,352.2z"/>
<g>
	<path class="st3" d="M257.6,149.2l3.6,8.7c23.1-9.7,48.1-14.7,73.2-14.6v-9.4C308,133.8,281.8,139,257.6,149.2z"/>
	<path class="st3" d="M174,450.7c22.6,30.8,54.3,55,90.1,68.4c35.6,13.6,75.5,16.4,112.8,8.3c37.3-8,72.2-27.3,99-54.5
		c27-27.2,45.8-62.2,53.5-99.6l-9.2-1.9c-7.3,35.6-25.2,69-50.9,94.9c-25.6,26-58.8,44.3-94.4,52c-17.8,3.9-36.2,5.1-54.4,3.8
		c-18.2-1.3-36.1-5.2-53.1-11.7c-34-12.8-64.3-35.8-85.8-65.2L174,450.7z"/>
	<path class="st3" d="M403.4,146.1c-22-8.1-45.4-12.3-69-12.3v9.4c22.5,0,44.8,3.9,65.7,11.7L403.4,146.1z"/>
</g>
<path class="st0" d="M166.8,330l4.8,0.1c-0.3,18.5,2.5,37.1,8.4,54.7c5.9,17.6,14.8,34.1,26.3,48.7c22.8,29.2,55.9,50.2,92.1,58.3
	c36.1,8.2,75,3.7,108.2-12.9c33.3-16.4,60.5-44.5,75.9-78.2l-4.6-2.1c18-39,19-85.4,2.7-125.1c-8.1-19.9-20.3-38-35.6-53.1
	c-15.3-15-33.6-27-53.6-34.7l3.6-9.2c-19.3-7.5-40-11.3-60.6-11.3V181c25.8,0,51.6,6.6,74.1,19.3c22.5,12.6,41.8,31,55.3,53
	c13.6,22,21.3,47.4,22.3,73.2c1.1,25.8-4.5,51.8-16.2,74.9c-11.7,23-29.3,43-50.7,57.4c-21.4,14.5-46.5,23.3-72.3,25.3
	c-25.7,2.1-52-2.4-75.5-13.1c-23.5-10.7-44.2-27.5-59.4-48.3L209,425c-10.7-14.5-18.8-30.8-23.9-48.1c-5.1-17.3-7.1-35.4-6-53.4
	c1.1-18,5.2-35.7,12.4-52.3c7.1-16.5,17.1-31.8,29.5-44.9l2.8,2.6c14.2-15.1,31.4-27.3,50.4-35.5c19-8.3,39.7-12.5,60.4-12.5v-15.8
	c-21.7,0-43.4,4.2-63.5,12.5c-20.1,8.2-38.6,20.4-54,35.7c-15.5,15.2-28,33.4-36.6,53.4C171.7,286.7,167.1,308.4,166.8,330z"/>
<path class="st5" d="M405.9,164.6c-20.7-8.1-43-12.2-65.2-12.1v15.8c20.2,0,40.5,3.7,59.5,11.1L405.9,164.6z"/>
<path class="st3" d="M504.8,392.2c13.5-38.8,13.3-81.9-0.7-120.5c-13.9-38.6-41.3-72-76.4-93.2l-5,8.3c33.2,20,59.2,51.6,72.3,88.2
	c13.2,36.5,13.5,77.4,0.6,114L504.8,392.2z"/>
<path class="st0" d="M498.5,408l-14.4-6.6c-7,15.3-16.4,29.5-27.7,41.9l3.5,3.2c-13.5,14.9-29.6,27.4-47.5,36.7
	c-17.8,9.3-37.4,15.3-57.4,17.8c-20,2.4-40.3,1.3-59.9-3.3c-19.6-4.6-38.3-12.8-55-24.1c-33.5-22.3-58.5-56.9-69.1-95.8
	c-5.3-19.4-7.1-39.7-5.4-59.7c1.7-20,7.1-39.8,15.8-57.9l4.3,2c13.3-27.9,34.6-51.9,60.7-68.4c26.1-16.6,57-25.5,87.8-25.4v-15.8
	c-32.1-0.1-64.4,8.7-92.1,25.2c-27.7,16.4-50.8,40.4-66.3,68.6c-15.5,28.2-23.2,60.8-22,92.9c1,32.1,11,64.1,28.5,91.1
	c17.4,27.1,42.1,49.4,70.9,63.8c28.8,14.5,61.6,21,93.6,18.7c32.1-2.2,63.7-13.3,90.1-31.7C463.7,462.8,485.1,437.3,498.5,408z"/>
<path class="st3" d="M189.4,225.6c-14.6,19.6-25.1,42.3-30.6,66.1c-5.6,23.9-6.2,48.7-2,72.8c4.2,24.1,13.5,47.3,27,67.7
	c13.5,20.4,31.1,38,51.5,51.4c20.4,13.5,43.6,22.7,67.7,26.9c24.1,4.2,48.9,3.6,72.8-2c23.8-5.6,46.5-16.1,66.1-30.7
	c19.6-14.5,36.3-33.1,48.6-54.2l-4.2-2.4c-12,20.6-28.2,38.6-47.3,52.8c-19.1,14.2-41.1,24.4-64.3,29.9c-23.2,5.4-47.4,6.1-70.8,2
	c-23.4-4.1-46-13.1-65.9-26.2c-19.9-13.1-37-30.2-50.1-50.1c-13.1-19.8-22.1-42.4-26.3-65.9c-4.1-23.4-3.5-47.6,1.9-70.8
	c5.4-23.2,15.6-45.2,29.8-64.3L189.4,225.6z"/>
<g>
	<path class="st5" d="M277.6,197l0.9,2.2c17.7-7.4,36.8-11.2,55.9-11.2v-2.3C314.9,185.6,295.5,189.5,277.6,197z"/>
	<path class="st5" d="M215.7,420.1c16.7,22.8,40.2,40.6,66.6,50.6c26.4,10,55.8,12.1,83.5,6.1c27.6-6,53.4-20.2,73.3-40.3
		c19.9-20.1,33.9-46,39.5-73.7l-2.3-0.5c-5.6,27.3-19.3,52.8-38.9,72.5c-19.6,19.8-44.9,33.8-72.1,39.7c-27.2,5.9-56.1,3.9-82.1-6
		c-26-9.8-49.1-27.4-65.6-49.8L215.7,420.1z"/>
	<path class="st5" d="M385.5,194.7c-16.3-6-33.6-9.1-51-9.1v2.3c17.1,0,34.2,3,50.2,8.9L385.5,194.7z"/>
</g>
<g>
	<path class="st4" d="M508.7,161.2c-10.7-10.5-22.4-19.9-34.8-28.2l-1.5,2.3c12.3,8.2,23.8,17.6,34.4,27.9L508.7,161.2z"/>
	<path class="st4" d="M495.5,139.7l-0.8,0.9c-25-20.1-53.9-35.2-84.6-44.2l-0.4,1.2c-18.3-5.4-37.2-8.5-56.2-9.5l0.1-2.5
		c-4.3-0.2-8.7-0.3-13.1-0.3v4c23.7,0,47.3,3.4,70,10.2c22.7,6.8,44.3,16.9,64,30l0.5-0.8c13.5,8.9,26.1,19.1,37.5,30.5l-0.7,0.7
		c6.7,6.7,13.1,13.7,19,21.2l3.1-2.5C522.8,164.2,509.8,151.2,495.5,139.7z"/>
	<path class="st4" d="M443.6,110.5l-1.5,3.3c-29.8-13.8-62.4-21.4-95.2-22.2l0.1-3.6c-2.1,0-4.1-0.1-6.2-0.1v6.4
		c23.2,0,46.4,3.3,68.6,10c22.2,6.6,43.4,16.6,62.8,29.4l3.2-4.9c13.5,8.9,26.1,19.1,37.5,30.5l-4.1,4.2
		c6.6,6.5,12.8,13.5,18.6,20.7l5-4C508.6,150.5,478,126.4,443.6,110.5z"/>
	<path class="st4" d="M410,97l-0.2,0.8c-18.3-5.4-37.2-8.5-56.2-9.5l0-0.8c-4.3-0.2-8.6-0.3-13-0.3v1.9c23.7,0,47.4,3.4,70.1,10.2
		c22.7,6.8,44.4,16.9,64.2,30l0.3-0.5c13.5,8.9,26.1,19.1,37.5,30.5l-0.4,0.4c6.7,6.7,13.1,13.8,19,21.2l1.5-1.2
		C501.7,140.4,458.2,111,410,97z"/>
	<path class="st4" d="M354,82.5c-4.4-0.2-8.8-0.3-13.2-0.3v4c4.3,0,8.7,0.1,13,0.3L354,82.5z"/>
	<path class="st4" d="M370.3,83.9c-4.4-0.5-8.8-0.9-13.2-1.2l-0.3,4.8c4.3,0.3,8.6,0.7,12.9,1.2L370.3,83.9z"/>
	<path class="st4" d="M408.2,91.4c-15.7-4.4-31.8-7.2-48-8.4l-0.2,2.4c16.1,1.2,32,4,47.5,8.4L408.2,91.4z"/>
	<path class="st4" d="M514.2,151.9c-28-26.9-62.3-47.2-99.4-58.6l-0.4,1.2c36.9,11.4,71.1,31.6,99,58.3L514.2,151.9z"/>
	<path class="st4" d="M388.2,86.7c-7.7-1.5-15.5-2.6-23.3-3.3l-0.5,4.8c7.7,0.7,15.3,1.8,22.9,3.3L388.2,86.7z"/>
	<path class="st4" d="M411.4,92.3l-1.1,3.8c3.5,1,6.9,2.1,10.3,3.3l0.4-1.1c31.9,10.9,61.4,28.4,86.3,51l-0.8,0.9
		c9.8,8.9,18.9,18.6,27.1,28.9l3.1-2.5C504.9,136.6,460.6,106.6,411.4,92.3z"/>
	<path class="st4" d="M488.6,141.8c-4.5-3.5-9.1-6.8-13.9-10l-1.5,2.3c4.7,3.1,9.3,6.4,13.7,9.9L488.6,141.8z"/>
	<path class="st4" d="M511.2,158.7c-10.9-10.6-22.7-20.2-35.3-28.7l-0.8,1.2c5.1,3.4,10.1,7,14.9,10.8l-0.5,0.6
		c7,5.5,13.7,11.4,20.1,17.6L511.2,158.7z"/>
	<path class="st4" d="M499.1,152.3c-6.3-5.5-12.9-10.8-19.7-15.6l-1.6,2.3c6.8,4.8,13.3,9.9,19.5,15.4L499.1,152.3z"/>
	<path class="st4" d="M507.3,162.7c-9-8.8-18.8-17-29.1-24.3l-0.4,0.6c10.3,7.3,20,15.4,29,24.2L507.3,162.7z"/>
	<g class="st4">
		<path d="M521.4,171.3l-0.4,0.4c3,3.4,6,6.9,8.8,10.5l0.5-0.4C527.4,178.2,524.5,174.7,521.4,171.3z"/>
		<path d="M474.1,130.5c-22.2-14.7-46.8-25.6-72.6-32.3l-0.1,0.6c25.7,6.6,50.3,17.6,72.4,32.2L474.1,130.5z"/>
		<path d="M353,90.8c-4.1-0.2-8.2-0.3-12.2-0.3v0.6c4.1,0,8.2,0.1,12.2,0.3L353,90.8z"/>
	</g>
</g>
<g>
	<path class="st4" d="M573.4,357.2c1.5-14.9,1.6-29.9,0.3-44.8l-2.8,0.2c1.3,14.7,1.1,29.6-0.3,44.3L573.4,357.2z"/>
	<path class="st4" d="M581.9,333.5l-1.2,0c0.1-32-6.1-64-18.2-93.7l-1.2,0.5c-7.2-17.6-16.5-34.4-27.5-49.8l2-1.4
		c-2.5-3.5-5.2-7-7.9-10.4l-3.1,2.5c29.6,36.9,48,82.7,52.1,129.8l1-0.1c1.4,16.1,1.3,32.3-0.4,48.4l-1-0.1c-1,9.4-2.6,18.8-4.7,28
		l3.9,0.9C579.8,370.1,581.9,351.8,581.9,333.5z"/>
	<path class="st4" d="M572.4,274.6l-3.5,0.9c-7.8-31.9-22.2-62.1-42-88.3l2.9-2.2c-1.2-1.6-2.5-3.3-3.8-4.9l-5,4
		c29,36.2,47.1,81,51.1,127.2l5.8-0.5c1.4,16.1,1.3,32.3-0.4,48.4l-5.8-0.6c-1,9.2-2.5,18.4-4.6,27.5l6.2,1.4
		C581.7,350.4,581.4,311.5,572.4,274.6z"/>
	<path class="st4" d="M562.1,240l-0.7,0.3c-7.2-17.6-16.5-34.4-27.5-49.8l0.7-0.5c-2.5-3.5-5.1-7-7.8-10.4l-1.5,1.2
		c29.7,37,48.1,82.8,52.2,130l0.5,0c1.4,16.1,1.3,32.3-0.4,48.4l-0.5-0.1c-1,9.4-2.6,18.8-4.7,28.1l1.8,0.4
		C585.3,338.7,581.1,286.4,562.1,240z"/>
	<path class="st4" d="M538.4,187.1c-2.6-3.6-5.2-7.1-8-10.6l-3.1,2.5c2.7,3.4,5.3,6.9,7.9,10.4L538.4,187.1z"/>
	<path class="st4" d="M547.5,200.7c-2.3-3.7-4.8-7.4-7.3-11l-4,2.8c2.5,3.6,4.9,7.2,7.1,10.8L547.5,200.7z"/>
	<path class="st4" d="M565.3,235c-6.4-15-14.2-29.3-23.3-42.8l-2,1.4c9,13.3,16.8,27.5,23.1,42.4L565.3,235z"/>
	<path class="st4" d="M584.1,355.7c3.5-38.6-2-78.1-16.2-114.3l-1.1,0.4c14.2,36,19.6,75.3,16.1,113.7L584.1,355.7z"/>
	<path class="st4" d="M556.5,216.5c-3.7-7-7.6-13.8-11.9-20.3l-4.1,2.6c4.2,6.5,8.1,13.1,11.7,19.9L556.5,216.5z"/>
	<path class="st4" d="M566.6,238.1l-3.7,1.5c1.4,3.3,2.6,6.7,3.9,10.1l1.1-0.4c11.4,31.7,16.1,65.7,13.9,99.3l-1.2-0.1
		c-0.8,13.2-2.7,26.3-5.6,39.2l3.9,0.9C590.2,338.8,586,285.5,566.6,238.1z"/>
	<path class="st4" d="M576,329.3c-0.1-5.7-0.4-11.4-0.8-17.1l-2.8,0.2c0.5,5.6,0.7,11.2,0.8,16.9L576,329.3z"/>
	<path class="st4" d="M576.9,357.5c1.5-15.1,1.6-30.3,0.4-45.5l-1.4,0.1c0.5,6.1,0.8,12.3,0.9,18.4l-0.7,0
		c0.1,8.9-0.3,17.9-1.2,26.7L576.9,357.5z"/>
	<path class="st4" d="M574.3,344.2c0.4-8.4,0.3-16.8-0.1-25.2l-2.8,0.2c0.5,8.3,0.5,16.6,0.1,24.9L574.3,344.2z"/>
	<path class="st4" d="M571.3,357c1.3-12.6,1.5-25.2,0.8-37.9l-0.7,0c0.7,12.6,0.4,25.2-0.8,37.7L571.3,357z"/>
	<g class="st4">
		<path d="M573.4,373.4l-0.6-0.1c-0.8,4.5-1.6,9-2.7,13.4l0.6,0.1C571.8,382.4,572.7,377.9,573.4,373.4z"/>
		<path d="M575.8,311c-2.4-26.5-9.1-52.6-20-76.9l-0.5,0.2c10.8,24.2,17.6,50.2,20,76.7L575.8,311z"/>
		<path d="M531.3,191.5c-2.4-3.3-4.9-6.6-7.4-9.8l-0.5,0.4c2.5,3.2,5,6.4,7.4,9.7L531.3,191.5z"/>
	</g>
</g>
<g>
	<path class="st4" d="M114.8,414.7c5.1,14.1,11.5,27.6,19.1,40.5l2.4-1.4c-7.5-12.7-13.9-26.1-18.9-40L114.8,414.7z"/>
	<path class="st4" d="M117.4,439.7l1.1-0.5c13.8,28.9,33.4,55,57.1,76.4l0.9-0.9c14.1,12.8,29.7,23.9,46.4,33l-1.2,2.2
		c3.8,2.1,7.7,4.1,11.6,6l1.7-3.6c-42.7-20.5-79-53.8-103.3-94.4l-0.8,0.5c-8.3-13.9-15.2-28.5-20.6-43.7l0.9-0.3
		c-3.2-8.9-5.8-18.1-7.9-27.3l-3.9,0.9C103.4,405.8,109.5,423.2,117.4,439.7z"/>
	<path class="st4" d="M151.6,488.6l2.8-2.3c20.9,25.3,46.9,46.4,76.1,61.4l-1.7,3.2c1.8,0.9,3.7,1.9,5.5,2.8l2.8-5.7
		c-41.8-20.1-77.4-52.7-101.2-92.5l-5,3c-8.3-13.9-15.2-28.5-20.6-43.7l5.5-2c-3.1-8.8-5.7-17.7-7.8-26.8l-6.2,1.4
		C110.2,424.4,127.5,459.4,151.6,488.6z"/>
	<path class="st4" d="M176,515.3l0.5-0.6c14.1,12.8,29.7,23.9,46.4,33l-0.4,0.7c3.8,2.1,7.6,4.1,11.5,5.9l0.8-1.7
		c-42.7-20.5-79.2-53.9-103.5-94.6l-0.5,0.3c-8.3-13.9-15.2-28.5-20.6-43.7l0.5-0.2c-3.2-8.9-5.8-18.1-7.9-27.3l-1.8,0.4
		C112,436.6,138.7,481.8,176,515.3z"/>
	<path class="st4" d="M220.2,552.7c3.9,2.1,7.8,4.1,11.8,6.1l1.7-3.6c-3.9-1.9-7.8-3.9-11.6-6L220.2,552.7z"/>
	<path class="st4" d="M206.1,544.4c3.7,2.4,7.5,4.6,11.3,6.8l2.4-4.2c-3.8-2.1-7.5-4.4-11.1-6.7L206.1,544.4z"/>
	<path class="st4" d="M175.2,521.2c12.2,10.7,25.5,20.3,39.5,28.5l1.2-2.1c-13.9-8.1-27-17.6-39.1-28.2L175.2,521.2z"/>
	<path class="st4" d="M105.9,420.7c13.6,36.4,35.8,69.5,64.3,95.9l0.8-0.9c-28.3-26.3-50.5-59.2-64-95.4L105.9,420.7z"/>
	<path class="st4" d="M191.2,534.1c6.3,4.7,12.8,9.1,19.6,13.2l2.5-4.1c-6.6-4-13-8.3-19.2-12.9L191.2,534.1z"/>
	<path class="st4" d="M172.7,518.9l2.7-2.9c-2.7-2.4-5.3-4.9-7.9-7.4l-0.8,0.8c-24-23.6-43.1-52.1-55.7-83.3l1.1-0.4
		c-5-12.3-9-24.9-11.9-37.8l-3.9,0.9C107.5,438.6,134.7,484.7,172.7,518.9z"/>
	<path class="st4" d="M124.6,440.9c2.5,5.1,5.3,10.1,8.2,15l2.4-1.4c-2.9-4.8-5.6-9.8-8.1-14.8L124.6,440.9z"/>
	<path class="st4" d="M111.5,415.9c5.2,14.3,11.7,28.1,19.4,41.1l1.2-0.7c-3.1-5.3-6.1-10.7-8.8-16.2l0.7-0.3
		c-3.9-8-7.5-16.2-10.5-24.6L111.5,415.9z"/>
	<path class="st4" d="M119.6,426.8c3.3,7.7,7,15.3,11.1,22.6l2.4-1.4c-4-7.2-7.7-14.7-10.9-22.3L119.6,426.8z"/>
	<path class="st4" d="M116.8,414c4.3,11.9,9.6,23.4,15.7,34.4l0.6-0.3c-6.1-11-11.4-22.5-15.6-34.3L116.8,414z"/>
	<g class="st4">
		<path d="M107.8,400.1l0.6-0.2c-1.3-4.4-2.4-8.8-3.4-13.3l-0.6,0.1C105.4,391.3,106.5,395.7,107.8,400.1z"/>
		<path d="M132.7,457.4c13.7,22.8,31.1,43.4,51.4,60.5l0.4-0.5c-20.3-17.1-37.7-37.6-51.3-60.4L132.7,457.4z"/>
		<path d="M224.6,545.7c3.6,2,7.2,3.8,10.9,5.6l0.3-0.5c-3.7-1.8-7.3-3.6-10.9-5.6L224.6,545.7z"/>
	</g>
</g>
</svg>
