<?xml version="1.0" encoding="utf-8"?>
<!-- Generator: Adobe Illustrator 19.1.0, SVG Export Plug-In . SVG Version: 6.00 Build 0)  -->
<svg version="1.1" id="Layer_1" xmlns="http://www.w3.org/2000/svg" xmlns:xlink="http://www.w3.org/1999/xlink" x="0px" y="0px"
	 viewBox="0 0 666 666" style="enable-background:new 0 0 666 666;" xml:space="preserve">
<style type="text/css">
	.st0{fill:#FFFFFF;}
	.st1{fill:#2AAAE2;}
	.st2{fill:#24B574;}
	.st3{fill:#F2F2F2;}
	.st4{opacity:0.1;}
	.st5{fill:#E6E6E6;}
</style>
<path class="st0" d="M210.1,226.3c-23.4,27.1-37.4,61.8-39.2,97.5c-2,36,7.9,71.8,28.2,101.3l36.7-25.1
	c-14.8-21.6-21.9-47.3-20.5-73.9c0.7-13.1,3.5-25.8,8.4-37.8c4.8-12,11.7-23.3,20.2-33.2L210.1,226.3z"/>
<path class="st0" d="M149.4,352.2c3.1,30.5,13.9,60.1,31.3,85.5l36.7-25.1c-13.2-19.3-21.4-41.7-23.8-64.9L149.4,352.2z"/>
<path class="st3" d="M235.4,248c-15.9,18.5-26.3,41.1-29.9,65c-1.8,11.9-2,24.4-0.5,36.4c1.5,12,4.7,23.7,9.4,34.8l10.2-4.4
	c-4.3-10.1-7.2-20.8-8.6-31.8c-1.4-11-1.2-22.5,0.4-33.4c3.3-21.8,12.8-42.5,27.4-59.4L235.4,248z"/>
<g>
	<path class="st4" d="M633.6,267.4c-7.1-32.6-19.6-64-36.9-92.6l-4.7,2.9c17,28,29.2,58.9,36.2,90.9L633.6,267.4z"/>
	<path class="st4" d="M631.4,211.3l-2.2,0.9c-13.7-33.5-33.3-64.6-57.4-91.6c-24.1-27-52.9-49.9-84.7-67.2l-1.2,2.2
		c-37.6-20.7-79.6-33.4-122.3-37.3l0.5-4.9c-9.8-0.9-19.7-1.3-29.6-1.4v7.9c53.2-0.1,106.4,13.7,152.7,39.8
		c46.4,26,86,64,113.9,109.3l1.6-1c19.1,31,32.8,65.3,40.1,101l-1.9,0.4c4.3,20.9,6.5,42.2,6.5,63.5h7.9
		C655.3,291.3,647.2,249.8,631.4,211.3z"/>
	<path class="st4" d="M551.5,103.5l-5,5.2c-26.7-25.3-57.8-45.7-91.6-60.1c-33.8-14.4-70.2-22.5-106.9-24.1l0.3-7.2
		c-4.6-0.2-9.3-0.3-14-0.3v12.7c51.6-0.1,103,13.2,147.9,38.5c45,25.2,83.4,62,110.3,105.9l10-6.2c19.1,31,32.8,65.3,40.1,101
		l-11.5,2.4c4.2,20.2,6.3,40.9,6.2,61.5h12.7c0-42.8-8.7-85.6-25.7-124.9C607.7,168.7,582.6,132.9,551.5,103.5z"/>
	<path class="st4" d="M486.7,54.2l-0.8,1.4c-37.6-20.7-79.6-33.4-122.3-37.3l0.1-1.6c-9.7-0.9-19.5-1.3-29.3-1.3v3.8
		C387.8,19,441.1,32.8,487.6,59c46.6,26,86.3,64.1,114.2,109.6l0.9-0.6c19.1,31,32.8,65.3,40.1,101l-1.1,0.2
		c4.3,20.9,6.5,42.3,6.5,63.7h3.8c0-28.3-3.7-56.7-11.2-84c-7.5-27.3-18.7-53.6-33.2-78C578.6,122.1,536.4,81.4,486.7,54.2z"/>
	<path class="st4" d="M364.6,7c-10-0.9-20.1-1.4-30.2-1.4v7.9c9.8,0,19.7,0.5,29.5,1.3L364.6,7z"/>
	<path class="st4" d="M401.6,12.6c-9.9-2.1-19.8-3.7-29.8-4.8l-1.1,9.6c9.7,1.1,19.4,2.7,29,4.7L401.6,12.6z"/>
	<path class="st4" d="M484.5,42c-33-17.1-69-28.4-105.8-33.4l-0.7,4.8c36.3,4.9,71.7,16.1,104.2,32.9L484.5,42z"/>
	<path class="st4" d="M652.8,257.2c-10.2-43.2-29.4-84.2-55.9-119.7c-26.5-35.6-60.2-65.7-98.6-87.9l-1.2,2.1
		c38.1,22.1,71.6,51.9,97.9,87.2c26.3,35.3,45.4,75.9,55.5,118.8L652.8,257.2z"/>
	<path class="st4" d="M441.5,23.6c-17-5.9-34.4-10.3-52.2-13.3l-1.6,9.6c17.2,2.9,34.1,7.2,50.6,12.9L441.5,23.6z"/>
	<path class="st4" d="M491.3,45.7l-3.8,6.9c7.2,3.9,14.2,8.1,21,12.6l1.3-2c32,20.8,60.3,47.4,83,78.1
		c22.8,30.7,40.1,65.4,50.6,102.2l-2.3,0.7c8.3,28.8,12.5,58.8,12.5,88.7h7.9c0-29.2-3.9-58.4-11.6-86.6
		c-7.7-28.2-19.2-55.3-34.2-80.4C586.1,115.7,542.6,73.7,491.3,45.7z"/>
	<path class="st4" d="M616.8,207.2c-5.2-11.6-11.1-23-17.7-33.9l-4.8,2.9c6.5,10.7,12.3,21.8,17.4,33.3L616.8,207.2z"/>
	<path class="st4" d="M640.5,265.9c-7.3-33.4-20.1-65.5-37.7-94.7l-2.4,1.4c7.1,11.8,13.4,24.1,18.9,36.7l-1.3,0.6
		c8,18.3,14.1,37.4,18.4,56.9L640.5,265.9z"/>
	<path class="st4" d="M626.1,239.3c-5.7-17.8-13.1-35.1-22-51.6l-4.9,2.6c8.7,16.2,16,33.2,21.6,50.6L626.1,239.3z"/>
	<path class="st4" d="M629.6,268.3c-6-27.4-15.8-53.9-29.1-78.6l-1.2,0.7c13.3,24.6,23,51,29,78.2L629.6,268.3z"/>
	<g class="st4">
		<path d="M643.6,302.1l-1.2,0.1c1,10.2,1.5,20.4,1.5,30.6h1.2C645.1,322.6,644.6,312.4,643.6,302.1z"/>
		<path d="M599.1,170.2c-31.2-50.8-77.4-92.4-131.3-118l-0.5,1.1C521,78.8,567,120.2,598.1,170.8L599.1,170.2z"/>
		<path d="M361.9,23.4c-9.1-0.8-18.3-1.2-27.5-1.2v1.2c9.1,0,18.3,0.4,27.3,1.2L361.9,23.4z"/>
	</g>
</g>
<path class="st0" d="M166.8,330l4.8,0.1c-0.3,18.5,2.5,37.1,8.4,54.7c5.9,17.6,14.8,34.1,26.3,48.7c22.8,29.2,55.9,50.2,92.1,58.3
	c36.1,8.2,75,3.7,108.2-12.9c33.3-16.4,60.5-44.5,75.9-78.2l-4.6-2.1c18-39,19-85.4,2.7-125.1c-8.1-19.9-20.3-38-35.6-53.1
	c-15.3-15-33.6-27-53.6-34.7l3.6-9.2c-19.3-7.5-40-11.3-60.6-11.3V181c25.8,0,51.6,6.6,74.1,19.3c22.5,12.6,41.8,31,55.3,53
	c13.6,22,21.3,47.4,22.3,73.2c1.1,25.8-4.5,51.8-16.2,74.9c-11.7,23-29.3,43-50.7,57.4c-21.4,14.5-46.5,23.3-72.3,25.3
	c-25.7,2.1-52-2.4-75.5-13.1c-23.5-10.7-44.2-27.5-59.4-48.3L209,425c-10.7-14.5-18.8-30.8-23.9-48.1c-5.1-17.3-7.1-35.4-6-53.4
	c1.1-18,5.2-35.7,12.4-52.3c7.1-16.5,17.1-31.8,29.5-44.9l2.8,2.6c14.2-15.1,31.4-27.3,50.4-35.5c19-8.3,39.7-12.5,60.4-12.5v-15.8
	c-21.7,0-43.4,4.2-63.5,12.5c-20.1,8.2-38.6,20.4-54,35.7c-15.5,15.2-28,33.4-36.6,53.4C171.7,286.7,167.1,308.4,166.8,330z"/>
<path class="st5" d="M229.4,242.7c-19.8,22.9-31.6,52.3-33.2,82.5c-1.7,30.2,6.7,60.8,23.8,85.7l9.2-6.3
	c-15.8-22.9-23.5-50.9-21.9-78.8c1.4-27.8,12.3-54.8,30.5-75.8L229.4,242.7z"/>
<path class="st3" d="M480.8,399.9l-2.9-1.3c18-39,19-85.4,2.7-125.1c-8.1-19.9-20.3-38-35.6-53.1c-15.3-15-33.6-27-53.6-34.7l1.2-3
	c-18.5-7.2-38.3-10.8-58.2-10.8v7.5c26.1,0,52.2,6.7,74.9,19.5c22.8,12.7,42.2,31.4,55.9,53.6c13.7,22.2,21.6,48,22.6,74
	c1.1,26.1-4.5,52.4-16.4,75.7c-11.8,23.3-29.6,43.4-51.3,58c-21.6,14.6-47,23.5-73,25.6c-26,2.2-52.5-2.4-76.3-13.3
	c-23.7-10.8-44.6-27.8-60.1-48.8L209,425c-10.7-14.5-18.8-30.8-23.9-48.1c-5.1-17.3-7.1-35.4-6-53.4c1.1-18,5.2-35.7,12.4-52.3
	c7.1-16.5,17.1-31.8,29.5-44.9l1.6,1.5c14.3-15.3,31.7-27.6,50.9-35.9c19.2-8.3,40.1-12.6,61-12.6v-7.5
	c-28.7-0.1-57.5,7.8-82.1,22.5c-24.7,14.7-45.4,36.1-59.2,61.3c-13.9,25.2-20.6,54.2-19.6,82.9c0.9,28.7,9.8,57.2,25.4,81.3
	c15.5,24.2,37.6,44.1,63.3,57c25.7,13,54.9,18.7,83.5,16.6c28.7-1.9,56.8-11.8,80.4-28.3C449.8,448.8,468.9,426,480.8,399.9z"/>
<path class="st0" d="M498.5,408l-14.4-6.6c-7,15.3-16.4,29.5-27.7,41.9l3.5,3.2c-13.5,14.9-29.6,27.4-47.5,36.7
	c-17.8,9.3-37.4,15.3-57.4,17.8c-20,2.4-40.3,1.3-59.9-3.3c-19.6-4.6-38.3-12.8-55-24.1c-33.5-22.3-58.5-56.9-69.1-95.8
	c-5.3-19.4-7.1-39.7-5.4-59.7c1.7-20,7.1-39.8,15.8-57.9l4.3,2c13.3-27.9,34.6-51.9,60.7-68.4c26.1-16.6,57-25.5,87.8-25.4v-15.8
	c-32.1-0.1-64.4,8.7-92.1,25.2c-27.7,16.4-50.8,40.4-66.3,68.6c-15.5,28.2-23.2,60.8-22,92.9c1,32.1,11,64.1,28.5,91.1
	c17.4,27.1,42.1,49.4,70.9,63.8c28.8,14.5,61.6,21,93.6,18.7c32.1-2.2,63.7-13.3,90.1-31.7C463.7,462.8,485.1,437.3,498.5,408z"/>
<path class="st3" d="M191.2,347.8c2.4,23.6,10.8,46.6,24.2,66.2l9.2-6.3c-12.4-18.1-20.2-39.3-22.4-61.1L191.2,347.8z"/>
<path class="st5" d="M218.7,233.5c-21.8,25.2-34.9,57.7-36.5,90.9c-0.9,16.6,0.9,33.4,5.3,49.4c4.4,16,11.6,31.3,20.9,45l4.6-3.1
	c-14.8-21.5-23.6-47-25.2-73.1l2.9-0.2c-1.2-18.6,1.1-37.4,7-55.1c5.9-17.7,15.2-34.1,27.4-48.3L218.7,233.5z"/>
<path class="st5" d="M203.4,288.1c-11,32-9.7,68.2,3.7,99.2l10.2-4.4c-6.1-14.3-9.6-29.7-10.1-45.3c-0.6-15.6,1.7-31.3,6.7-46
	L203.4,288.1z"/>
<path class="st5" d="M235.7,248.1c-15.8,18.3-26.3,41.1-29.9,64.9c-3.7,23.9-0.6,48.9,9,71l2.5-1.1c-9.3-21.6-12.3-46.1-8.8-69.5
	c3.5-23.4,13.8-45.6,29.2-63.6L235.7,248.1z"/>
<g>
	<path class="st4" d="M41.5,398.3c7.1,32.6,19.6,64,36.9,92.6l4.8-2.9c-17-28-29.2-58.9-36.2-90.9L41.5,398.3z"/>
	<path class="st4" d="M43.7,454.4l2.2-0.9c13.7,33.5,33.3,64.6,57.4,91.6c24.1,27,52.9,49.9,84.7,67.2l1.2-2.2
		c37.6,20.7,79.6,33.4,122.3,37.3l-0.4,4.9c9.8,0.9,19.7,1.3,29.6,1.4v-7.9c-53.2,0.1-106.4-13.7-152.7-39.8
		c-46.4-26-86-64-113.9-109.3l-1.6,1c-19.1-31-32.8-65.3-40.1-101l1.9-0.4c-4.3-20.9-6.5-42.2-6.5-63.5h-7.9
		C19.9,374.4,27.9,416,43.7,454.4z"/>
	<path class="st4" d="M123.6,562.3l5-5.2c26.7,25.3,57.8,45.7,91.6,60.1c33.8,14.4,70.2,22.5,106.9,24.1l-0.3,7.2
		c4.7,0.2,9.3,0.3,14,0.3V636c-51.6,0.1-103-13.2-147.9-38.5c-45-25.2-83.4-62-110.3-105.9l-10,6.2c-19.1-31-32.8-65.3-40.1-101
		l11.5-2.4c-4.2-20.2-6.3-40.9-6.3-61.5H24.9c0,42.8,8.7,85.6,25.7,124.9C67.5,497.1,92.6,532.8,123.6,562.3z"/>
	<path class="st4" d="M188.5,611.6l0.8-1.4c37.6,20.7,79.6,33.4,122.3,37.3l-0.1,1.6c9.7,0.9,19.5,1.3,29.3,1.3v-3.8
		c-53.3,0.1-106.6-13.7-153.1-39.9c-46.5-26-86.3-64.1-114.2-109.6l-0.9,0.6c-19.1-31-32.8-65.3-40.1-101l1.1-0.2
		c-4.3-20.9-6.5-42.3-6.5-63.7h-3.8c0,28.3,3.7,56.7,11.2,84c7.5,27.3,18.7,53.7,33.2,78C96.5,543.6,138.7,584.4,188.5,611.6z"/>
	<path class="st4" d="M310.6,658.7c10,0.9,20.1,1.4,30.2,1.4v-7.9c-9.8,0-19.7-0.5-29.5-1.3L310.6,658.7z"/>
	<path class="st4" d="M273.6,653.2c9.9,2.1,19.8,3.7,29.8,4.8l1.1-9.6c-9.7-1.1-19.4-2.7-29-4.7L273.6,653.2z"/>
	<path class="st4" d="M190.6,623.7c33,17.1,69,28.4,105.8,33.4l0.6-4.8c-36.3-4.9-71.7-16.1-104.2-32.9L190.6,623.7z"/>
	<path class="st4" d="M22.3,408.6c10.2,43.2,29.4,84.2,55.9,119.7c26.5,35.6,60.2,65.7,98.6,87.9l1.2-2.1
		c-38.1-22.1-71.6-51.9-97.9-87.2c-26.3-35.3-45.4-76-55.5-118.8L22.3,408.6z"/>
	<path class="st4" d="M233.6,642.2c17,5.9,34.4,10.3,52.2,13.3l1.6-9.6c-17.2-2.9-34.1-7.2-50.6-12.9L233.6,642.2z"/>
	<path class="st4" d="M183.8,620.1l3.8-6.9c-7.2-3.9-14.2-8.1-21-12.6l-1.3,2c-32-20.8-60.3-47.4-83-78.1
		C59.5,493.8,42.2,459,31.7,422.3l2.3-0.7c-8.3-28.8-12.5-58.8-12.5-88.7h-7.9c0,29.2,3.9,58.4,11.6,86.6
		c7.7,28.2,19.2,55.3,34.2,80.4C89.1,550.1,132.6,592.1,183.8,620.1z"/>
	<path class="st4" d="M58.3,458.5c5.2,11.6,11.1,23,17.7,33.9l4.8-2.9c-6.5-10.7-12.3-21.8-17.4-33.3L58.3,458.5z"/>
	<path class="st4" d="M34.6,399.8c7.3,33.4,20.1,65.5,37.7,94.7l2.4-1.4c-7.1-11.8-13.4-24.1-18.9-36.7l1.4-0.6
		c-8-18.3-14.1-37.4-18.4-56.9L34.6,399.8z"/>
	<path class="st4" d="M49.1,426.5c5.7,17.8,13.1,35.1,22,51.6l4.9-2.6c-8.7-16.2-16-33.2-21.6-50.6L49.1,426.5z"/>
	<path class="st4" d="M45.6,397.5c6,27.4,15.8,53.9,29.1,78.6l1.2-0.7c-13.3-24.6-23-51-29-78.2L45.6,397.5z"/>
	<g class="st4">
		<path d="M31.6,363.6l1.2-0.1c-1-10.2-1.5-20.4-1.5-30.6h-1.2C30.1,343.1,30.6,353.4,31.6,363.6z"/>
		<path d="M76,495.5c31.2,50.8,77.4,92.4,131.3,118l0.5-1.1C154.2,587,108.2,545.6,77,494.9L76,495.5z"/>
		<path d="M313.3,642.3c9.1,0.8,18.3,1.2,27.4,1.2v-1.2c-9.1,0-18.3-0.4-27.3-1.2L313.3,642.3z"/>
	</g>
</g>
</svg>
