<?xml version="1.0" encoding="utf-8"?>
<!-- Generator: Adobe Illustrator 19.1.0, SVG Export Plug-In . SVG Version: 6.00 Build 0)  -->
<svg version="1.1" id="Layer_1" xmlns="http://www.w3.org/2000/svg" xmlns:xlink="http://www.w3.org/1999/xlink" x="0px" y="0px"
	 viewBox="0 0 666 666" style="enable-background:new 0 0 666 666;" xml:space="preserve">
<style type="text/css">
	.st0{fill:#FFFFFF;}
	.st1{fill:#2AAAE2;}
	.st2{fill:#24B574;}
	.st3{fill:#F2F2F2;}
	.st4{opacity:0.1;}
	.st5{fill:#E6E6E6;}
</style>
<path class="st5" d="M67.5,135.6c-26.7,36-46.1,77.7-56.3,121.6c-5.1,21.9-8,44.3-8.6,66.7c-0.6,22.3,1,44.8,4.9,66.9
	c7.8,44.3,24.9,87.1,49.6,124.5c24.7,37.5,57,69.8,94.6,94.5c37.5,24.7,80.2,41.8,124.6,49.6c22.2,3.9,44.6,5.5,66.9,4.9
	c22.3-0.6,44.8-3.5,66.7-8.6c43.9-10.3,85.6-29.7,121.6-56.4c36-26.7,66.6-60.7,89.2-99.6l-16.8-9.8c-21.3,36.6-50,68.6-84,93.8
	c-33.9,25.2-73.1,43.5-114.4,53.1c-20.6,4.8-41.7,7.5-62.8,8.1c-21,0.6-42.2-0.9-63-4.6c-41.7-7.3-82-23.4-117.3-46.7
	c-35.3-23.3-65.7-53.7-89-89C50.1,469.4,34,429.2,26.7,387.5c-3.7-20.9-5.2-42-4.7-63c0.6-21,3.2-42.2,8.1-62.8
	c9.6-41.3,27.9-80.5,53-114.5L67.5,135.6z"/>
<path class="st3" d="M167.4,189.6c-15.6,18.2-28.3,38.9-37.2,61.2c-9,22.2-14.2,46-15.5,69.9c-1.3,24,1.2,48.1,7.7,71.2
	c6.4,23.1,16.7,45.1,30.2,64.9l18.4-12.6c-19.9-29-31.7-63.2-33.9-98.3l11.8-0.8c-1.6-24.1,1.5-48.4,9.1-71.1
	c7.6-22.8,19.7-44.1,35.4-62.3L167.4,189.6z"/>
<g>
	<path class="st4" d="M399.9,632.1c32.6-7.1,64-19.6,92.6-36.9l-2.9-4.8c-28,17-58.9,29.2-90.9,36.2L399.9,632.1z"/>
	<path class="st4" d="M456,629.9l-0.9-2.2c33.5-13.7,64.6-33.3,91.6-57.4c27-24.1,49.9-52.9,67.2-84.7l-2.2-1.2
		c20.7-37.6,33.4-79.6,37.3-122.3l4.9,0.5c0.9-9.8,1.3-19.7,1.4-29.6h-7.9c0.1,53.2-13.7,106.4-39.8,152.7
		c-26,46.4-64,86-109.3,113.9l1,1.6c-31,19.1-65.3,32.8-101,40.1l-0.4-1.9c-20.9,4.3-42.2,6.5-63.5,6.5v7.9
		C375.9,653.8,417.5,645.7,456,629.9z"/>
	<path class="st4" d="M563.8,550l-5.2-5c25.3-26.7,45.7-57.8,60.1-91.6c14.4-33.8,22.5-70.2,24.1-106.9l7.2,0.3
		c0.2-4.7,0.3-9.3,0.3-14h-12.7c0.1,51.6-13.2,103-38.5,147.9c-25.2,45-62,83.4-105.9,110.3l6.2,10c-31,19.1-65.3,32.8-101,40.1
		l-2.4-11.5c-20.2,4.2-40.9,6.3-61.5,6.3v12.7c42.8,0,85.6-8.7,124.9-25.7C498.6,606.1,534.4,581.1,563.8,550z"/>
	<path class="st4" d="M613.1,485.1l-1.4-0.8c20.7-37.6,33.4-79.6,37.3-122.3l1.6,0.1c0.9-9.7,1.3-19.5,1.3-29.3h-3.8
		c0.1,53.3-13.7,106.6-39.9,153.1c-26,46.6-64.1,86.3-109.6,114.2l0.6,0.9c-31,19.1-65.3,32.8-101,40.1l-0.2-1.1
		c-20.9,4.3-42.3,6.5-63.7,6.5v3.8c28.3,0,56.7-3.7,84-11.2c27.3-7.5,53.6-18.7,78-33.2C545.2,577.1,585.9,534.9,613.1,485.1z"/>
	<path class="st4" d="M660.3,363.1c0.9-10,1.4-20.1,1.4-30.2h-7.9c0,9.8-0.5,19.7-1.3,29.5L660.3,363.1z"/>
	<path class="st4" d="M654.7,400c2.1-9.9,3.7-19.8,4.8-29.8l-9.6-1.1c-1.1,9.7-2.7,19.4-4.7,29L654.7,400z"/>
	<path class="st4" d="M625.2,483c17.1-33,28.4-69,33.4-105.8l-4.8-0.7c-4.9,36.3-16.1,71.7-32.9,104.2L625.2,483z"/>
	<path class="st4" d="M410.1,651.3c43.2-10.2,84.2-29.4,119.7-55.9c35.6-26.5,65.7-60.2,87.9-98.6l-2.1-1.2
		c-22.1,38.1-51.9,71.6-87.2,97.9c-35.3,26.3-75.9,45.4-118.8,55.5L410.1,651.3z"/>
	<path class="st4" d="M643.7,440c5.9-17,10.3-34.4,13.3-52.2l-9.6-1.6c-2.9,17.2-7.2,34.1-12.9,50.6L643.7,440z"/>
	<path class="st4" d="M621.6,489.8l-6.9-3.8c-3.9,7.2-8.1,14.2-12.6,21l2,1.3c-20.8,32-47.4,60.3-78.1,83
		c-30.7,22.8-65.4,40.1-102.2,50.7l-0.7-2.3c-28.8,8.3-58.8,12.5-88.7,12.5v7.9c29.2,0,58.4-3.9,86.6-11.6
		c28.2-7.7,55.3-19.2,80.4-34.2C551.6,584.5,593.6,541.1,621.6,489.8z"/>
	<path class="st4" d="M460,615.3c11.6-5.2,23-11.1,33.9-17.7l-2.9-4.8c-10.7,6.5-21.8,12.3-33.3,17.4L460,615.3z"/>
	<path class="st4" d="M401.4,639c33.4-7.3,65.5-20.1,94.7-37.7l-1.4-2.4c-11.8,7.1-24.1,13.5-36.7,18.9l-0.6-1.4
		c-18.3,8-37.4,14.1-56.9,18.4L401.4,639z"/>
	<path class="st4" d="M428,624.5c17.8-5.7,35.1-13.1,51.6-22l-2.6-4.9c-16.2,8.7-33.2,16-50.6,21.6L428,624.5z"/>
	<path class="st4" d="M399,628c27.4-6,53.9-15.8,78.6-29.1l-0.7-1.2c-24.6,13.3-51,23-78.2,29L399,628z"/>
	<g class="st4">
		<path d="M365.1,642l-0.1-1.2c-10.2,1-20.4,1.5-30.6,1.5v1.2C344.7,643.5,354.9,643,365.1,642z"/>
		<path d="M497.1,597.6c50.8-31.2,92.4-77.4,118-131.3l-1.1-0.5c-25.5,53.7-66.9,99.7-117.5,130.8L497.1,597.6z"/>
		<path d="M643.9,360.3c0.8-9.1,1.2-18.3,1.2-27.5h-1.2c0,9.1-0.4,18.3-1.2,27.3L643.9,360.3z"/>
	</g>
</g>
<g>
	<path class="st4" d="M275.3,33.7c-32.6,7.1-64,19.6-92.6,36.9l2.9,4.8c28-17,58.9-29.2,90.9-36.2L275.3,33.7z"/>
	<path class="st4" d="M219.2,35.8l0.9,2.2c-33.5,13.7-64.6,33.3-91.6,57.4c-27,24.1-49.9,52.9-67.2,84.7l2.2,1.2
		C42.8,219,30,261,26.2,303.7l-4.9-0.5c-0.9,9.8-1.3,19.7-1.4,29.6h7.9c-0.1-53.2,13.7-106.4,39.8-152.7c26-46.4,64-86,109.3-113.9
		l-1-1.6c31-19.1,65.3-32.7,101-40.1l0.4,1.9c20.9-4.3,42.2-6.5,63.5-6.5V12C299.2,12,257.6,20.1,219.2,35.8z"/>
	<path class="st4" d="M111.4,115.8l5.2,5c-25.3,26.6-45.7,57.8-60.1,91.6C42.2,246.1,34,282.5,32.4,319.2l-7.2-0.3
		c-0.2,4.7-0.3,9.3-0.3,14h12.7c-0.1-51.6,13.2-103,38.5-147.9c25.2-45,62-83.4,105.9-110.3l-6.2-10c31-19.1,65.3-32.7,101-40.1
		l2.4,11.5c20.2-4.2,40.9-6.3,61.5-6.3V17c-42.8,0-85.6,8.7-124.9,25.7C176.5,59.6,140.8,84.7,111.4,115.8z"/>
	<path class="st4" d="M62,180.6l1.4,0.8C42.8,219,30,261,26.2,303.7l-1.6-0.1c-0.9,9.7-1.3,19.5-1.3,29.3H27
		c-0.1-53.3,13.7-106.6,39.9-153.1c26-46.6,64.1-86.3,109.6-114.2l-0.6-0.9c31-19.1,65.3-32.7,101-40.1l0.2,1.1
		c20.9-4.3,42.3-6.5,63.7-6.5v-3.8c-28.3,0-56.7,3.7-84,11.2c-27.3,7.5-53.6,18.7-78,33.2C130,88.7,89.2,130.9,62,180.6z"/>
	<path class="st4" d="M14.9,302.7c-0.9,10-1.4,20.1-1.4,30.2h7.9c0-9.8,0.5-19.7,1.3-29.5L14.9,302.7z"/>
	<path class="st4" d="M20.4,265.7c-2.1,9.9-3.7,19.8-4.8,29.8l9.6,1.1c1.1-9.7,2.7-19.4,4.7-29L20.4,265.7z"/>
	<path class="st4" d="M49.9,182.8c-17.1,33-28.4,69-33.4,105.8l4.8,0.7c4.9-36.3,16.1-71.7,32.9-104.2L49.9,182.8z"/>
	<path class="st4" d="M265,14.5c-43.2,10.2-84.2,29.4-119.7,55.9c-35.5,26.5-65.7,60.2-87.9,98.6l2.1,1.2
		c22.1-38.1,51.9-71.6,87.2-97.9c35.3-26.3,76-45.4,118.8-55.5L265,14.5z"/>
	<path class="st4" d="M31.5,225.8c-5.9,17-10.3,34.4-13.3,52.2l9.6,1.6c2.9-17.2,7.2-34.1,12.9-50.6L31.5,225.8z"/>
	<path class="st4" d="M53.5,176l6.9,3.8c3.9-7.2,8.1-14.2,12.6-21l-2-1.3c20.8-32,47.4-60.3,78.1-83c30.7-22.8,65.4-40.1,102.2-50.6
		l0.7,2.3c28.8-8.3,58.8-12.5,88.7-12.5V5.7c-29.2,0-58.4,3.9-86.6,11.6c-28.2,7.7-55.3,19.2-80.4,34.2
		C123.5,81.2,81.5,124.7,53.5,176z"/>
	<path class="st4" d="M215.1,50.5c-11.6,5.2-23,11.1-33.9,17.7l2.9,4.8c10.7-6.5,21.8-12.3,33.3-17.4L215.1,50.5z"/>
	<path class="st4" d="M273.8,26.8C240.4,34,208.3,46.8,179,64.5l1.4,2.4c11.8-7.1,24.1-13.4,36.7-18.9l0.6,1.4
		c18.3-8,37.4-14.1,56.9-18.4L273.8,26.8z"/>
	<path class="st4" d="M247.2,41.2c-17.8,5.7-35.1,13.1-51.6,22l2.6,4.9c16.2-8.7,33.2-16,50.6-21.6L247.2,41.2z"/>
	<path class="st4" d="M276.2,37.7c-27.4,6-53.9,15.8-78.6,29.1l0.7,1.2c24.6-13.3,51-23,78.2-29L276.2,37.7z"/>
	<g class="st4">
		<path d="M310,23.7l0.1,1.2c10.2-1,20.4-1.5,30.6-1.5v-1.2C330.5,22.2,320.2,22.7,310,23.7z"/>
		<path d="M178.1,68.2c-50.8,31.2-92.4,77.4-118,131.3l1.1,0.5c25.5-53.7,66.9-99.7,117.5-130.8L178.1,68.2z"/>
		<path d="M31.3,305.4c-0.8,9.1-1.2,18.3-1.2,27.4h1.2c0-9.1,0.4-18.3,1.2-27.3L31.3,305.4z"/>
	</g>
</g>
<g>
	<path class="st4" d="M464.4,534.9c12.6-8.1,24.4-17.4,35.2-27.7l-1.9-2c-10.7,10.2-22.4,19.4-34.8,27.4L464.4,534.9z"/>
	<path class="st4" d="M488.3,526.8l-0.7-0.9c25.1-19.9,46.2-44.7,61.9-72.7l-1.1-0.6c9.3-16.6,16.7-34.3,21.9-52.6l2.4,0.7
		c1.2-4.2,2.3-8.4,3.2-12.7l-3.9-0.9c-10.4,46.2-34.8,89-69.1,121.7l0.7,0.7c-11.7,11.2-24.4,21.2-38.1,29.9l-0.5-0.8
		c-8,5.1-16.3,9.7-24.8,13.8l1.7,3.6C458.3,548,473.9,538.2,488.3,526.8z"/>
	<path class="st4" d="M528.3,482.6l-2.8-2.2c20.1-25.9,34.8-56,42.9-87.9l3.5,0.9c0.5-2,1-4,1.4-6l-6.2-1.4
		c-10.2,45.2-34.1,87.2-67.7,119.2l4.1,4.2c-11.7,11.2-24.4,21.2-38.1,29.9l-3.1-5c-7.8,5-16,9.5-24.3,13.6l2.8,5.7
		C474.9,537.2,505.1,512.6,528.3,482.6z"/>
	<path class="st4" d="M549,452.9l-0.7-0.4c9.3-16.6,16.7-34.3,21.9-52.6l0.8,0.2c1.2-4.2,2.2-8.4,3.2-12.6l-1.8-0.4
		c-10.4,46.3-34.9,89.2-69.2,121.9l0.4,0.4c-11.7,11.2-24.4,21.2-38.1,29.9l-0.3-0.5c-8,5.1-16.3,9.7-24.9,13.9l0.8,1.7
		C486.3,532.7,524.5,496.7,549,452.9z"/>
	<path class="st4" d="M575.6,401.5c1.2-4.2,2.3-8.5,3.3-12.8l-3.9-0.9c-1,4.2-2,8.4-3.2,12.6L575.6,401.5z"/>
	<path class="st4" d="M570.6,417.1c1.5-4.2,2.9-8.4,4.1-12.6l-4.7-1.4c-1.2,4.1-2.6,8.3-4,12.3L570.6,417.1z"/>
	<path class="st4" d="M554.8,452.3c7.8-14.3,14.1-29.3,19-44.9l-2.3-0.7c-4.8,15.4-11.1,30.3-18.8,44.4L554.8,452.3z"/>
	<path class="st4" d="M472.3,542.3c32.4-21.4,59.8-50.3,79.2-83.9l-1-0.6c-19.3,33.4-46.6,62.3-78.8,83.5L472.3,542.3z"/>
	<path class="st4" d="M563.9,434c3.2-7.2,6-14.5,8.5-22l-4.6-1.5c-2.4,7.3-5.2,14.5-8.3,21.6L563.9,434z"/>
	<path class="st4" d="M553.2,455.3l-3.5-1.9c-1.8,3.1-3.6,6.2-5.5,9.3l1,0.6c-17.7,28.6-41.3,53.6-68.9,72.8l-0.7-1
		c-10.8,7.6-22.3,14.3-34.2,20.1l1.7,3.6C489.3,536.6,528.3,500,553.2,455.3z"/>
	<path class="st4" d="M487.8,519.5c4.4-3.6,8.7-7.4,12.8-11.3l-1.9-2c-4.1,3.9-8.3,7.6-12.7,11.2L487.8,519.5z"/>
	<path class="st4" d="M466.3,537.8c12.8-8.2,24.7-17.6,35.8-28.1l-1-1c-4.5,4.2-9.1,8.3-13.8,12.2l-0.5-0.6
		c-6.9,5.6-14.2,10.9-21.7,15.7L466.3,537.8z"/>
	<path class="st4" d="M475.2,527.5c6.8-4.9,13.3-10.2,19.6-15.8l-1.9-2.1c-6.2,5.5-12.6,10.8-19.4,15.6L475.2,527.5z"/>
	<path class="st4" d="M463.3,533.1c10.6-6.8,20.7-14.5,30.1-23l-0.5-0.5c-9.4,8.4-19.4,16.1-30,22.9L463.3,533.1z"/>
	<g class="st4">
		<path d="M451.8,545l-0.3-0.5c-4,2.2-8,4.3-12.2,6.3l0.3,0.5C443.7,549.3,447.8,547.2,451.8,545z"/>
		<path d="M502,508c19.2-18.4,35.4-40,47.6-63.6l-0.5-0.3c-12.2,23.6-28.4,45.1-47.5,63.4L502,508z"/>
		<path d="M567.8,398.7c1.1-3.9,2.1-7.9,3-11.9l-0.6-0.1c-0.9,4-1.9,7.9-3,11.8L567.8,398.7z"/>
	</g>
</g>
<g>
	<path class="st4" d="M263.8,560.5c14.2,4.8,28.8,8.2,43.6,10.3l0.4-2.7c-14.6-2-29.1-5.4-43.1-10.2L263.8,560.5z"/>
	<path class="st4" d="M285.1,574.1l0.3-1.2c31.2,7.2,63.8,8.2,95.4,3l-0.2-1.3c18.8-3.1,37.2-8.3,54.7-15.7l1,2.3
		c4-1.7,8-3.5,11.9-5.4l-1.7-3.6c-42.6,20.7-91.3,28.2-138.2,21.9l-0.1,1c-16-2.1-31.8-5.9-47.1-11.1l0.3-0.9
		c-9-3.1-17.7-6.7-26.3-10.8l-1.7,3.6C249.8,563.9,267.2,570,285.1,574.1z"/>
	<path class="st4" d="M344.6,577.8l-0.1-3.6c32.8-0.5,65.5-7.7,95.4-21.2l1.5,3.3c1.9-0.9,3.7-1.7,5.6-2.6l-2.8-5.7
		c-41.7,20.3-89.5,27.7-135.4,21.5l-0.8,5.8c-16-2.1-31.8-5.9-47.1-11.1l1.9-5.5c-8.8-3-17.4-6.6-25.8-10.6l-2.8,5.7
		C268.6,570.2,306.6,578.5,344.6,577.8z"/>
	<path class="st4" d="M380.7,575.5l-0.1-0.8c18.8-3.1,37.2-8.3,54.7-15.7l0.3,0.7c4-1.7,7.9-3.4,11.8-5.3l-0.8-1.7
		c-42.7,20.7-91.5,28.3-138.4,21.9l-0.1,0.5c-16-2.1-31.8-5.9-47.1-11.1l0.2-0.5c-9-3.1-17.8-6.7-26.3-10.8l-0.8,1.7
		c22.6,10.9,46.9,18.3,71.7,21.8C330.6,579.8,355.9,579.5,380.7,575.5z"/>
	<path class="st4" d="M437.5,564.2c4.1-1.7,8.1-3.5,12.1-5.4l-1.7-3.6c-3.9,1.9-7.9,3.7-11.9,5.3L437.5,564.2z"/>
	<path class="st4" d="M422.1,570c4.2-1.4,8.3-3,12.4-4.6l-1.8-4.5c-4,1.6-8.1,3.1-12.2,4.5L422.1,570z"/>
	<path class="st4" d="M384.8,579.7c16-2.8,31.8-7.3,46.9-13.2l-0.9-2.3c-15,5.8-30.6,10.2-46.4,13L384.8,579.7z"/>
	<path class="st4" d="M263,571.3c36.9,12.1,76.6,15.3,115,9.6l-0.2-1.2c-38.2,5.7-77.7,2.5-114.5-9.5L263,571.3z"/>
	<path class="st4" d="M404.8,575.3c7.6-2,15.1-4.4,22.5-7.1l-1.7-4.5c-7.2,2.7-14.6,5-22.1,6.9L404.8,575.3z"/>
	<path class="st4" d="M381.4,580.3l-0.6-3.9c-3.6,0.6-7.1,1.1-10.7,1.5l0.1,1.2c-33.4,4-67.6,1.2-99.9-8.4l0.3-1.1
		c-12.7-3.7-25.1-8.5-37-14.3l-1.7,3.6c23,11.1,47.8,18.7,73.1,22.3C330.4,584.6,356.2,584.4,381.4,580.3z"/>
	<path class="st4" d="M290.5,569.2c5.6,1.2,11.2,2.2,16.8,2.9l0.4-2.8c-5.6-0.8-11.1-1.7-16.6-2.9L290.5,569.2z"/>
	<path class="st4" d="M262.7,563.8c14.4,4.9,29.2,8.3,44.3,10.4l0.2-1.4c-6.1-0.8-12.1-1.9-18.1-3.2l0.2-0.7
		c-8.7-1.9-17.3-4.3-25.8-7.1L262.7,563.8z"/>
	<path class="st4" d="M276.3,564.3c8.1,2.2,16.3,4.1,24.6,5.4l0.5-2.7c-8.2-1.4-16.3-3.2-24.3-5.4L276.3,564.3z"/>
	<path class="st4" d="M264.5,558.5c12,4,24.3,7.1,36.7,9.2l0.1-0.7c-12.4-2.1-24.7-5.1-36.6-9.2L264.5,558.5z"/>
	<g class="st4">
		<path d="M248.1,556.9l0.2-0.5c-4.2-1.7-8.4-3.6-12.5-5.6l-0.3,0.5C239.7,553.3,243.8,555.2,248.1,556.9z"/>
		<path d="M308.4,573.1c26.4,3.5,53.3,2.7,79.4-2.4l-0.1-0.6c-26,5.1-52.9,5.9-79.2,2.4L308.4,573.1z"/>
		<path d="M434.8,556.4c3.8-1.6,7.5-3.3,11.2-5l-0.3-0.5c-3.7,1.8-7.4,3.4-11.1,5L434.8,556.4z"/>
	</g>
</g>
<g>
	<path class="st4" d="M136,207.3c-7.8,12.7-14.5,26.2-19.8,40.2l2.6,1c5.3-13.8,11.8-27.1,19.6-39.7L136,207.3z"/>
	<path class="st4" d="M118,224.9l1.1,0.5c-14,28.8-22.2,60.4-24.1,92.3l1.3,0.1c-1.1,19-0.1,38.1,3.1,56.9l-2.4,0.4
		c0.7,4.3,1.6,8.6,2.6,12.8l3.9-0.9c-10.5-46.1-7.3-95.3,9.4-139.6l-0.9-0.3c5.7-15.1,12.8-29.7,21.4-43.4l0.8,0.5
		c5-8,10.5-15.8,16.4-23.2l-3.1-2.5C135.8,192.9,126,208.4,118,224.9z"/>
	<path class="st4" d="M101,282.1l3.5,0.7c-6.8,32.1-6.9,65.6-0.5,97.8l-3.5,0.7c0.4,2,0.8,4,1.3,6.1l6.2-1.4
		c-10.3-45.2-7.2-93.4,9.2-136.8l-5.5-2.1c5.7-15.1,12.8-29.7,21.4-43.4l5,3.1c4.9-7.9,10.3-15.5,16.1-22.7l-5-4
		C125.5,209.7,108.8,245,101,282.1z"/>
	<path class="st4" d="M95.4,317.8l0.8,0c-1.1,19-0.1,38.1,3.1,56.9l-0.8,0.1c0.7,4.3,1.6,8.5,2.5,12.7l1.8-0.4
		c-10.5-46.2-7.3-95.5,9.4-139.9l-0.5-0.2c5.7-15.1,12.8-29.7,21.4-43.4l0.5,0.3c5-8.1,10.5-15.8,16.4-23.3l-1.5-1.2
		c-15.7,19.6-28.3,41.6-37.3,65C102.2,268,96.9,292.8,95.4,317.8z"/>
	<path class="st4" d="M93.7,375.7c0.7,4.3,1.6,8.7,2.6,13l3.9-0.9c-1-4.2-1.8-8.5-2.5-12.8L93.7,375.7z"/>
	<path class="st4" d="M91.5,359.5c0.5,4.4,1,8.8,1.7,13.1l4.8-0.8c-0.7-4.3-1.2-8.6-1.7-12.9L91.5,359.5z"/>
	<path class="st4" d="M90.3,320.9c-0.8,16.2,0,32.5,2.4,48.6l2.4-0.4c-2.3-15.9-3.1-32.1-2.4-48.2L90.3,320.9z"/>
	<path class="st4" d="M125.7,204c-20,33.3-32.1,71.3-34.9,110l1.2,0.1c2.8-38.5,14.8-76.4,34.7-109.5L125.7,204z"/>
	<path class="st4" d="M90.2,341.4c0.3,7.9,0.9,15.7,1.9,23.5l4.8-0.6c-1-7.7-1.6-15.3-1.8-23.1L90.2,341.4z"/>
	<path class="st4" d="M90.5,317.5l4,0.2c0.2-3.6,0.5-7.2,0.9-10.8l-1.2-0.1c3.5-33.5,13.9-66.2,30.4-95.5l1,0.6
		c6.5-11.5,13.9-22.5,22.2-32.9l-3.1-2.5c-16,20-28.8,42.4-38,66.3C97.5,266.7,92.1,292,90.5,317.5z"/>
	<path class="st4" d="M121.5,231.3c-2.4,5.2-4.6,10.4-6.6,15.7l2.6,1c2-5.3,4.2-10.5,6.6-15.6L121.5,231.3z"/>
	<path class="st4" d="M133,205.4c-7.9,12.9-14.7,26.6-20.1,40.8l1.3,0.5c2.2-5.7,4.6-11.4,7.2-17l0.7,0.3c3.8-8.1,8-15.9,12.7-23.5
		L133,205.4z"/>
	<path class="st4" d="M129.4,218.6c-4,7.4-7.6,15-10.8,22.7l2.6,1.1c3.2-7.7,6.7-15.2,10.7-22.5L129.4,218.6z"/>
	<path class="st4" d="M137.7,208.4c-6.6,10.8-12.4,22-17.2,33.7l0.6,0.3c4.8-11.6,10.5-22.9,17.1-33.6L137.7,208.4z"/>
	<g class="st4">
		<path d="M143,192.7l0.5,0.3c2.6-3.7,5.4-7.4,8.2-10.9l-0.5-0.4C148.4,185.3,145.6,189,143,192.7z"/>
		<path d="M113.7,247.8c-9.4,24.9-14.5,51.4-15.2,78l0.6,0c0.7-26.5,5.9-52.9,15.2-77.8L113.7,247.8z"/>
		<path d="M102,374.8c0.7,4,1.5,8,2.4,12l0.6-0.1c-0.9-4-1.7-8-2.4-12L102,374.8z"/>
	</g>
</g>
<g>
	<path class="st4" d="M311.2,94.5c-14.8,1.8-29.5,5-43.8,9.6l0.8,2.6c14.1-4.5,28.6-7.7,43.3-9.5L311.2,94.5z"/>
	<path class="st4" d="M286.2,91.4l0.3,1.2c-31.2,7-61.1,20.2-87.2,38.7l0.7,1c-15.6,10.9-29.9,23.7-42.5,37.9l-1.9-1.6
		c-2.9,3.3-5.7,6.6-8.4,10l3.1,2.5c29.5-37,69.9-65.2,115-79.8l-0.3-0.9c15.4-5,31.2-8.5,47.3-10.3l0.1,1c9.4-1.1,18.9-1.6,28.4-1.6
		v-4C322.4,85.4,304.1,87.4,286.2,91.4z"/>
	<path class="st4" d="M231,113.8l1.6,3.2c-29.3,14.7-55.6,35.5-76.7,60.6l-2.8-2.3c-1.3,1.6-2.6,3.2-3.9,4.8l5,4
		c28.9-36.3,68.5-63.9,112.6-78.2l-1.8-5.6c15.4-5,31.2-8.5,47.3-10.3l0.7,5.8c9.2-1.1,18.5-1.6,27.8-1.6v-6.4
		C302.8,87.8,264.9,96.7,231,113.8z"/>
	<path class="st4" d="M199.5,131.6l0.5,0.7c-15.6,10.9-29.9,23.7-42.5,37.9l-0.6-0.5c-2.9,3.2-5.7,6.5-8.4,9.9l1.5,1.2
		c29.5-37.1,70-65.3,115.2-79.9l-0.2-0.5c15.4-5,31.2-8.5,47.3-10.3l0.1,0.5c9.4-1.1,18.9-1.6,28.4-1.6V87
		c-25.1,0-50.2,3.8-74.1,11.4C242.8,105.9,220,117.2,199.5,131.6z"/>
	<path class="st4" d="M153.3,166.5c-2.9,3.3-5.8,6.7-8.5,10.1l3.1,2.5c2.7-3.4,5.5-6.7,8.4-10L153.3,166.5z"/>
	<path class="st4" d="M164.5,154.6c-3.1,3.1-6.2,6.3-9.2,9.5l3.6,3.3c2.9-3.2,5.9-6.3,9-9.4L164.5,154.6z"/>
	<path class="st4" d="M194,129.6c-13.2,9.5-25.4,20.3-36.5,32.2l1.8,1.7c11-11.8,23.1-22.5,36.2-31.9L194,129.6z"/>
	<path class="st4" d="M307.4,84.4c-38.5,5.1-75.7,19.4-107.8,41.3l0.7,1c31.9-21.8,68.9-36,107.3-41.1L307.4,84.4z"/>
	<path class="st4" d="M177.9,142.3c-6,5.1-11.7,10.5-17.2,16.1l3.5,3.4c5.4-5.5,11-10.8,16.9-15.8L177.9,142.3z"/>
	<path class="st4" d="M196.7,127.7l2.3,3.2c2.9-2.1,5.9-4.1,9-6l-0.6-1c28.3-18.2,60.4-30.4,93.7-35.7l0.2,1.2
		c13.1-2.1,26.3-3.2,39.5-3.2v-4c-25.6,0-51.1,3.9-75.5,11.6C240.8,101.5,217.6,112.9,196.7,127.7z"/>
	<path class="st4" d="M283.5,98.1c-5.5,1.4-11,2.9-16.4,4.6l0.8,2.6c5.4-1.7,10.8-3.2,16.2-4.6L283.5,98.1z"/>
	<path class="st4" d="M310.8,91c-15.1,1.8-30,5.1-44.4,9.7l0.4,1.3c5.9-1.9,11.8-3.5,17.7-4.9l0.2,0.7c8.7-2.1,17.5-3.6,26.3-4.7
		L310.8,91z"/>
	<path class="st4" d="M298.3,96.4c-8.3,1.5-16.4,3.4-24.5,5.7l0.8,2.7c8-2.3,16-4.2,24.2-5.6L298.3,96.4z"/>
	<path class="st4" d="M311.5,96.5c-12.5,1.5-24.9,4.1-37.1,7.6l0.2,0.7c12.1-3.5,24.5-6,37-7.6L311.5,96.5z"/>
	<g class="st4">
		<path d="M327,90.9l0,0.6c4.6-0.3,9.1-0.4,13.7-0.4v-0.6C336.2,90.5,331.6,90.6,327,90.9z"/>
		<path d="M265.6,102.3c-25.3,8.2-49.2,20.7-70.4,36.7l0.4,0.5c21.2-16,45-28.4,70.3-36.6L265.6,102.3z"/>
		<path d="M159.1,172.4c-2.7,3.1-5.3,6.2-7.9,9.4l0.5,0.4c2.5-3.2,5.2-6.3,7.9-9.4L159.1,172.4z"/>
	</g>
</g>
</svg>
