<?xml version="1.0" encoding="utf-8"?>
<!-- Generator: Adobe Illustrator 19.1.0, SVG Export Plug-In . SVG Version: 6.00 Build 0)  -->
<svg version="1.1" id="Layer_1" xmlns="http://www.w3.org/2000/svg" xmlns:xlink="http://www.w3.org/1999/xlink" x="0px" y="0px"
	 viewBox="0 0 965 390" style="enable-background:new 0 0 965 390;" xml:space="preserve">
<style type="text/css">
	.st0{fill:#58C7EE;}
	.st1{opacity:0.59;fill:#01AAE5;}
	.st2{fill:#01AAE5;}
</style>
<g>
	<path class="st0" d="M963,45.7V20.5L936,0H10v24.2l6,5v32.3l-6-5v31.7l6,5v32.3l-6-5v31.7l6,5v32.3l-6-5v147.9L63.1,390H963v-20.9
		l-6-4.3V41.4L963,45.7z M962,369.7V389H63.6L11,331.7V187l6,5v-35.5l-6-5V123l6,5V92.5l-6-5V59l6,5V28.5l-6-5V1h924.6L962,21.2v22
		l-6-4.3v326.6L962,369.7z"/>
	<polygon class="st1" points="63.6,389 11,331.7 11,187 17,192 17,156.5 11,151.5 11,123 17,128 17,92.5 11,87.5 11,59 17,64 
		17,28.5 11,23.5 11,1 935.6,1 962,21.2 962,43.1 956,38.8 956,365.4 962,369.7 962,389 	"/>
	<polygon class="st0" points="13,51.4 13,33.8 1,24.5 1,42.1 	"/>
	<polygon class="st0" points="13,116.3 13,98.7 1,89.3 1,106.9 	"/>
	<polygon class="st0" points="13,181.1 13,163.5 1,154.2 1,171.8 	"/>
	<polygon class="st2" points="7,157.4 7,113.6 5,112.2 5,156 	"/>
	<polygon class="st2" points="7,92.6 7,48.8 5,47.4 5,91.2 	"/>
</g>
</svg>
