<?xml version="1.0" encoding="utf-8"?>
<!-- Generator: Adobe Illustrator 19.1.0, SVG Export Plug-In . SVG Version: 6.00 Build 0)  -->
<svg version="1.1" id="Layer_1" xmlns="http://www.w3.org/2000/svg" xmlns:xlink="http://www.w3.org/1999/xlink" x="0px" y="0px"
	 viewBox="0 0 660 390" style="enable-background:new 0 0 660 390;" xml:space="preserve">
<style type="text/css">
	.st0{fill:#58C7EE;}
	.st1{opacity:0.59;fill:#01AAE5;}
	.st2{fill:#01AAE5;}
</style>
<g>
	<path class="st0" d="M660,45.7V20.5L633,0H9v24.2l6,5v32.3l-6-5v31.7l6,5v32.3l-6-5v31.7l6,5v32.3l-6-5v147.9L62.2,390H660v-20.9
		l-6-4.3V41.4L660,45.7z M659,369.7V389H62.6L10,331.7V187l6,5v-35.5l-6-5V123l6,5V92.5l-6-5V59l6,5V28.5l-6-5V1h622.6L659,21.2v22
		l-6-4.3v326.6L659,369.7z"/>
	<polygon class="st1" points="62.6,389 10,331.7 10,187 16,192 16,156.5 10,151.5 10,123 16,128 16,92.5 10,87.5 10,59 16,64 
		16,28.5 10,23.5 10,1 632.6,1 659,21.2 659,43.1 653,38.8 653,365.4 659,369.7 659,389 	"/>
	<polygon class="st0" points="12,51.4 12,33.8 0,24.5 0,42.1 	"/>
	<polygon class="st0" points="12,116.3 12,98.7 0,89.3 0,106.9 	"/>
	<polygon class="st0" points="12,181.1 12,163.5 0,154.2 0,171.8 	"/>
	<polygon class="st2" points="6,157.4 6,113.6 4,112.2 4,156 	"/>
	<polygon class="st2" points="6,92.6 6,48.8 4,47.4 4,91.2 	"/>
</g>
</svg>
